<svg xmlns="http://www.w3.org/2000/svg" xmlns:xlink="http://www.w3.org/1999/xlink" contentStyleType="text/css" height="464px" preserveAspectRatio="none" style="width:372px;height:464px;background:#FFFFFF;" version="1.1" viewBox="0 0 372 464" width="372px" zoomAndPan="magnify"><defs/><g><!--class com.smartbay.progettofinale.Services.ArticleService--><a href="ArticleService.html" target="_top" title="ArticleService.html" xlink:actuate="onRequest" xlink:href="ArticleService.html" xlink:show="new" xlink:title="ArticleService.html" xlink:type="simple"><g id="elem_com.smartbay.progettofinale.Services.ArticleService"><rect codeLine="13" fill="#F1F1F1" height="241.3671" id="com.smartbay.progettofinale.Services.ArticleService" rx="2.5" ry="2.5" style="stroke:#181818;stroke-width:0.5;" width="359.4087" x="6" y="194"/><ellipse cx="92.3744" cy="215.344" fill="#ADD1B2" rx="11" ry="11" style="stroke:#181818;stroke-width:1.0;"/><path d="M95.3432,220.9846 Q94.7651,221.2815 94.1244,221.4221 Q93.4838,221.5783 92.7807,221.5783 Q90.2807,221.5783 88.9526,219.9377 Q87.6401,218.2815 87.6401,215.1565 Q87.6401,212.0315 88.9526,210.3752 Q90.2807,208.719 92.7807,208.719 Q93.4838,208.719 94.1244,208.8752 Q94.7807,209.0315 95.3432,209.3283 L95.3432,212.0471 Q94.7182,211.469 94.1244,211.2033 Q93.5307,210.9221 92.9057,210.9221 Q91.5619,210.9221 90.8744,212.0002 Q90.1869,213.0627 90.1869,215.1565 Q90.1869,217.2502 90.8744,218.3283 Q91.5619,219.3908 92.9057,219.3908 Q93.5307,219.3908 94.1244,219.1252 Q94.7182,218.844 95.3432,218.2658 L95.3432,220.9846 Z " fill="#000000"/><text fill="#000000" font-family="sans-serif" font-size="14" lengthAdjust="spacing" textLength="88.3257" x="157.7915" y="213.9659">ArticleService</text><text fill="#000000" font-family="sans-serif" font-size="10" lengthAdjust="spacing" textLength="178.1599" x="112.8744" y="228.7579">com.smartbay.progettofinale.Services</text><line style="stroke:#181818;stroke-width:0.5;" x1="7" x2="364.4087" y1="236.6879" y2="236.6879"/><ellipse cx="17" cy="251.7219" fill="#84BE84" rx="3" ry="3" style="stroke:#038048;stroke-width:1.0;"/><text fill="#000000" font-family="sans-serif" font-size="14" lengthAdjust="spacing" textLength="333.4087" x="26" y="255.6538">create(Article, Principal, MultipartFile[]): ArticleDTO</text><ellipse cx="17" cy="270.7898" fill="#84BE84" rx="3" ry="3" style="stroke:#038048;stroke-width:1.0;"/><text fill="#000000" font-family="sans-serif" font-size="14" lengthAdjust="spacing" textLength="117.6275" x="26" y="274.7218">delete(Long): void</text><ellipse cx="17" cy="289.8577" fill="#84BE84" rx="3" ry="3" style="stroke:#038048;stroke-width:1.0;"/><text fill="#000000" font-family="sans-serif" font-size="14" lengthAdjust="spacing" textLength="149.5614" x="26" y="293.7897">read(Long): ArticleDTO</text><ellipse cx="17" cy="308.9256" fill="#84BE84" rx="3" ry="3" style="stroke:#038048;stroke-width:1.0;"/><text fill="#000000" font-family="sans-serif" font-size="14" lengthAdjust="spacing" textLength="171.3873" x="26" y="312.8576">readAll(): List&lt;ArticleDTO&gt;</text><ellipse cx="17" cy="327.9935" fill="#84BE84" rx="3" ry="3" style="stroke:#038048;stroke-width:1.0;"/><text fill="#000000" font-family="sans-serif" font-size="14" lengthAdjust="spacing" textLength="315.0268" x="26" y="331.9255">update(Long, Article, MultipartFile[]): ArticleDTO</text><ellipse cx="17" cy="347.0614" fill="#84BE84" rx="3" ry="3" style="stroke:#038048;stroke-width:1.0;"/><text fill="#000000" font-family="sans-serif" font-size="14" lengthAdjust="spacing" textLength="304.2328" x="26" y="350.9934">searchByCategory(Category): List&lt;ArticleDTO&gt;</text><ellipse cx="17" cy="366.1294" fill="#84BE84" rx="3" ry="3" style="stroke:#038048;stroke-width:1.0;"/><text fill="#000000" font-family="sans-serif" font-size="14" lengthAdjust="spacing" textLength="246.161" x="26" y="370.0613">searchByUser(User): List&lt;ArticleDTO&gt;</text><ellipse cx="17" cy="385.1973" fill="#84BE84" rx="3" ry="3" style="stroke:#038048;stroke-width:1.0;"/><text fill="#000000" font-family="sans-serif" font-size="14" lengthAdjust="spacing" textLength="229.6691" x="26" y="389.1293">setIsAccepted(Boolean, Long): void</text><ellipse cx="17" cy="404.2652" fill="#84BE84" rx="3" ry="3" style="stroke:#038048;stroke-width:1.0;"/><text fill="#000000" font-family="sans-serif" font-size="14" lengthAdjust="spacing" textLength="225.3011" x="26" y="408.1972">updateStatus(Long, boolean): void</text><ellipse cx="17" cy="423.3331" fill="#84BE84" rx="3" ry="3" style="stroke:#038048;stroke-width:1.0;"/><text fill="#000000" font-family="sans-serif" font-size="14" lengthAdjust="spacing" textLength="208.0812" x="26" y="427.2651">search(String): List&lt;ArticleDTO&gt;</text></g></a><!--class com.smartbay.progettofinale.Services.CrudService--><a href="CrudService.html" target="_top" title="CrudService.html" xlink:actuate="onRequest" xlink:href="CrudService.html" xlink:show="new" xlink:title="CrudService.html" xlink:type="simple"><g id="elem_com.smartbay.progettofinale.Services.CrudService"><rect codeLine="26" fill="#F1F1F1" height="146.0275" id="com.smartbay.progettofinale.Services.CrudService" rx="2.5" ry="2.5" style="stroke:#181818;stroke-width:0.5;" width="339.8927" x="15.5" y="12"/><ellipse cx="34.5824" cy="33.344" fill="#B4A7E5" rx="11" ry="11" style="stroke:#181818;stroke-width:1.0;"/><path d="M30.5043,29.1096 L30.5043,26.9533 L37.8949,26.9533 L37.8949,29.1096 L35.4262,29.1096 L35.4262,37.1877 L37.8949,37.1877 L37.8949,39.344 L30.5043,39.344 L30.5043,37.1877 L32.9731,37.1877 L32.9731,29.1096 L30.5043,29.1096 Z " fill="#000000"/><text fill="#000000" font-family="sans-serif" font-size="14" font-style="italic" lengthAdjust="spacing" textLength="73.1077" x="96.5057" y="31.9659">CrudService</text><text fill="#000000" font-family="sans-serif" font-size="10" font-style="italic" lengthAdjust="spacing" textLength="167.1398" x="49.4897" y="46.7579">com.smartbay.progettofinale.Services</text><rect fill="#FFFFFF" height="18.3441" style="stroke:#181818;stroke-width:1.0;stroke-dasharray:2.0,2.0;" width="129.6809" x="228.7119" y="9"/><text fill="#000000" font-family="sans-serif" font-size="12" font-style="italic" lengthAdjust="spacing" textLength="127.6809" x="229.7119" y="22.8281">ArticleDTO, Article, Long</text><line style="stroke:#181818;stroke-width:0.5;" x1="16.5" x2="354.3927" y1="54.6879" y2="54.6879"/><ellipse cx="26.5" cy="69.7219" fill="#84BE84" rx="3" ry="3" style="stroke:#038048;stroke-width:1.0;"/><text fill="#000000" font-family="sans-serif" font-size="14" font-style="italic" lengthAdjust="spacing" textLength="149.0014" x="35.5" y="73.6538">readAll(): List&lt;ReadDto&gt;</text><ellipse cx="26.5" cy="88.7898" fill="#84BE84" rx="3" ry="3" style="stroke:#038048;stroke-width:1.0;"/><text fill="#000000" font-family="sans-serif" font-size="14" font-style="italic" lengthAdjust="spacing" textLength="139.8315" x="35.5" y="92.7218">read(Long): ArticleDTO</text><ellipse cx="26.5" cy="107.8577" fill="#84BE84" rx="3" ry="3" style="stroke:#038048;stroke-width:1.0;"/><text fill="#000000" font-family="sans-serif" font-size="14" font-style="italic" lengthAdjust="spacing" textLength="313.8927" x="35.5" y="111.7897">create(Article, Principal, MultipartFile[]): ArticleDTO</text><ellipse cx="26.5" cy="126.9256" fill="#84BE84" rx="3" ry="3" style="stroke:#038048;stroke-width:1.0;"/><text fill="#000000" font-family="sans-serif" font-size="14" font-style="italic" lengthAdjust="spacing" textLength="295.2448" x="35.5" y="130.8576">update(Long, Article, MultipartFile[]): ArticleDTO</text><ellipse cx="26.5" cy="145.9935" fill="#84BE84" rx="3" ry="3" style="stroke:#038048;stroke-width:1.0;"/><text fill="#000000" font-family="sans-serif" font-size="14" font-style="italic" lengthAdjust="spacing" textLength="109.5916" x="35.5" y="149.9255">delete(Long): void</text></g></a><polygon fill="none" points="185.5,158.295,179.5,176.295,191.5,176.295,185.5,158.295" style="stroke:#181818;stroke-width:1.0;"/><path d="M185.5,176.295 C185.5,187.6144 185.5,181.5683 185.5,193.6142 " fill="none" style="stroke:#181818;stroke-width:1.0;stroke-dasharray:7.0,7.0;"/><text fill="#888888" font-family="sans-serif" font-size="10" lengthAdjust="spacing" textLength="2.6" x="180.7" y="439.69">&#160;</text><a href="https://github.com/talsma-ict/umldoclet" target="_top" title="https://github.com/talsma-ict/umldoclet" xlink:actuate="onRequest" xlink:href="https://github.com/talsma-ict/umldoclet" xlink:show="new" xlink:title="https://github.com/talsma-ict/umldoclet" xlink:type="simple"><text fill="#888888" font-family="sans-serif" font-size="10" lengthAdjust="spacing" textLength="76.7199" x="143.64" y="453.31">UMLDoclet 2.2.1</text></a><!--SRC=[jLNRRjD047tdAmPum8ZKSQmKsgYA558kHK6W9dqAUTYi9_QAzQxP7HSPwBypZjt6fIrNuGTVTixEd9avtW40U0HJMrHEfHa1MQ1CUJXxEmDX4aZHe1E42QXSfEXXZTgQr3T0155IPXtOpVPBMkVG5zOaogJmHfmByBPq4druxnviGoqklNyMlkDzNTMBnrPg90YcZpkKucZmT2-EudrO2Erp0IVJHTXws-s9mpWS0FlMIgBnxB8q2RejhKaX93zcZQK7v-YyieRtHAsVEbLf3GbbF1J2aQzJUg-5ePhh8EJum_0P19Fvx3gtw73BhGSJPqIPmAdzL5wbUxzm8cN6MbIs9F0vaZ2YiNacRKJEvH8IvyX11N4bZJMujMSgGS2ye0es2dNYVrnbPvdbvUswrC9xU73arHSS3ORZYIF5TPcZE-UiFvZM48sbpKCkegErgCB2sHI9x4OPeJ5iqVu1S6z-1nXU3mFBvVM5CADShrRmTSknlfv8XzpmeCNruBrJHgf2w1wyBJMfklWlbSRbwl48MjJnujtEGOBSRWnch496d5kLx6piExcqtBQtja-q3jWyKvwETfZn3bGMYMW3zE2Av- -HyoYSp9vNK_QGMbS5boy_ZNYvwyoZ2-hRBz1quYTIOi4_Jl3SMet2zE3MWZIvp4bGwTkCris66z26H30dRaXw5u6BHctA4BeDwxQZkAaha_yjjqwC3hLEb-eKnop33l2c1h-AjISd95tSLCGfVn-J7Ty9_ecykj1_bNdNrpy8iklcZX-dRUcVrX-EleNXtnmIJRWZJvN6NPatrhAaEasghzTLWMwcpCUfrNmqFZoutNfM7_HQ6UJP8ZyQv8Cmka9UDE7wdNXjh0zckSo82Z_gzrD5MRaEEPq-ROVCdfBKBtETDDFbXpcpMhLpuzNL0Ak7m5vqi1SVBWRFHl5Wj7yGxW_ZU30u70wVHF4eYfOlIcSBx9_Q75VV0G00]--></g></svg>