<svg xmlns="http://www.w3.org/2000/svg" xmlns:xlink="http://www.w3.org/1999/xlink" contentStyleType="text/css" height="464px" preserveAspectRatio="none" style="width:363px;height:464px;background:#FFFFFF;" version="1.1" viewBox="0 0 363 464" width="363px" zoomAndPan="magnify"><defs/><g><!--class com.smartbay.progettofinale.Services.ArticleService--><a href="ArticleService.html" target="_top" title="ArticleService.html" xlink:actuate="onRequest" xlink:href="ArticleService.html" xlink:show="new" xlink:title="ArticleService.html" xlink:type="simple"><g id="elem_com.smartbay.progettofinale.Services.ArticleService"><rect codeLine="13" fill="#F1F1F1" height="241.3671" id="com.smartbay.progettofinale.Services.ArticleService" rx="2.5" ry="2.5" style="stroke:#181818;stroke-width:0.5;" width="350.1967" x="6" y="194"/><ellipse cx="87.7684" cy="215.344" fill="#ADD1B2" rx="11" ry="11" style="stroke:#181818;stroke-width:1.0;"/><path d="M90.7372,220.9846 Q90.1591,221.2815 89.5184,221.4221 Q88.8778,221.5783 88.1747,221.5783 Q85.6747,221.5783 84.3466,219.9377 Q83.0341,218.2815 83.0341,215.1565 Q83.0341,212.0315 84.3466,210.3752 Q85.6747,208.719 88.1747,208.719 Q88.8778,208.719 89.5184,208.8752 Q90.1747,209.0315 90.7372,209.3283 L90.7372,212.0471 Q90.1122,211.469 89.5184,211.2033 Q88.9247,210.9221 88.2997,210.9221 Q86.9559,210.9221 86.2684,212.0002 Q85.5809,213.0627 85.5809,215.1565 Q85.5809,217.2502 86.2684,218.3283 Q86.9559,219.3908 88.2997,219.3908 Q88.9247,219.3908 89.5184,219.1252 Q90.1122,218.844 90.7372,218.2658 L90.7372,220.9846 Z " fill="#000000"/><text fill="#000000" font-family="sans-serif" font-size="14" lengthAdjust="spacing" textLength="88.3257" x="153.1855" y="213.9659">ArticleService</text><text fill="#000000" font-family="sans-serif" font-size="10" lengthAdjust="spacing" textLength="178.1599" x="108.2684" y="228.7579">com.smartbay.progettofinale.Services</text><line style="stroke:#181818;stroke-width:0.5;" x1="7" x2="355.1967" y1="236.6879" y2="236.6879"/><ellipse cx="17" cy="251.7219" fill="#84BE84" rx="3" ry="3" style="stroke:#038048;stroke-width:1.0;"/><text fill="#000000" font-family="sans-serif" font-size="14" lengthAdjust="spacing" textLength="324.1967" x="26" y="255.6538">create(Article, Principal, MultipartFile): ArticleDTO</text><ellipse cx="17" cy="270.7898" fill="#84BE84" rx="3" ry="3" style="stroke:#038048;stroke-width:1.0;"/><text fill="#000000" font-family="sans-serif" font-size="14" lengthAdjust="spacing" textLength="117.6275" x="26" y="274.7218">delete(Long): void</text><ellipse cx="17" cy="289.8577" fill="#84BE84" rx="3" ry="3" style="stroke:#038048;stroke-width:1.0;"/><text fill="#000000" font-family="sans-serif" font-size="14" lengthAdjust="spacing" textLength="149.5614" x="26" y="293.7897">read(Long): ArticleDTO</text><ellipse cx="17" cy="308.9256" fill="#84BE84" rx="3" ry="3" style="stroke:#038048;stroke-width:1.0;"/><text fill="#000000" font-family="sans-serif" font-size="14" lengthAdjust="spacing" textLength="171.3873" x="26" y="312.8576">readAll(): List&lt;ArticleDTO&gt;</text><ellipse cx="17" cy="327.9935" fill="#84BE84" rx="3" ry="3" style="stroke:#038048;stroke-width:1.0;"/><text fill="#000000" font-family="sans-serif" font-size="14" lengthAdjust="spacing" textLength="305.8148" x="26" y="331.9255">update(Long, Article, MultipartFile): ArticleDTO</text><ellipse cx="17" cy="347.0614" fill="#84BE84" rx="3" ry="3" style="stroke:#038048;stroke-width:1.0;"/><text fill="#000000" font-family="sans-serif" font-size="14" lengthAdjust="spacing" textLength="304.2328" x="26" y="350.9934">searchByCategory(Category): List&lt;ArticleDTO&gt;</text><ellipse cx="17" cy="366.1294" fill="#84BE84" rx="3" ry="3" style="stroke:#038048;stroke-width:1.0;"/><text fill="#000000" font-family="sans-serif" font-size="14" lengthAdjust="spacing" textLength="246.161" x="26" y="370.0613">searchByUser(User): List&lt;ArticleDTO&gt;</text><ellipse cx="17" cy="385.1973" fill="#84BE84" rx="3" ry="3" style="stroke:#038048;stroke-width:1.0;"/><text fill="#000000" font-family="sans-serif" font-size="14" lengthAdjust="spacing" textLength="229.6691" x="26" y="389.1293">setIsAccepted(Boolean, Long): void</text><ellipse cx="17" cy="404.2652" fill="#84BE84" rx="3" ry="3" style="stroke:#038048;stroke-width:1.0;"/><text fill="#000000" font-family="sans-serif" font-size="14" lengthAdjust="spacing" textLength="225.3011" x="26" y="408.1972">updateStatus(Long, boolean): void</text><ellipse cx="17" cy="423.3331" fill="#84BE84" rx="3" ry="3" style="stroke:#038048;stroke-width:1.0;"/><text fill="#000000" font-family="sans-serif" font-size="14" lengthAdjust="spacing" textLength="208.0812" x="26" y="427.2651">search(String): List&lt;ArticleDTO&gt;</text></g></a><!--class com.smartbay.progettofinale.Services.CrudService--><a href="CrudService.html" target="_top" title="CrudService.html" xlink:actuate="onRequest" xlink:href="CrudService.html" xlink:show="new" xlink:title="CrudService.html" xlink:type="simple"><g id="elem_com.smartbay.progettofinale.Services.CrudService"><rect codeLine="26" fill="#F1F1F1" height="146.0275" id="com.smartbay.progettofinale.Services.CrudService" rx="2.5" ry="2.5" style="stroke:#181818;stroke-width:0.5;" width="331.7728" x="15" y="12"/><ellipse cx="30.4285" cy="33.344" fill="#B4A7E5" rx="11" ry="11" style="stroke:#181818;stroke-width:1.0;"/><path d="M26.3503,29.1096 L26.3503,26.9533 L33.741,26.9533 L33.741,29.1096 L31.2722,29.1096 L31.2722,37.1877 L33.741,37.1877 L33.741,39.344 L26.3503,39.344 L26.3503,37.1877 L28.8191,37.1877 L28.8191,29.1096 L26.3503,29.1096 Z " fill="#000000"/><text fill="#000000" font-family="sans-serif" font-size="14" font-style="italic" lengthAdjust="spacing" textLength="73.1077" x="91.5397" y="31.9659">CrudService</text><text fill="#000000" font-family="sans-serif" font-size="10" font-style="italic" lengthAdjust="spacing" textLength="167.1398" x="44.5237" y="46.7579">com.smartbay.progettofinale.Services</text><rect fill="#FFFFFF" height="18.3441" style="stroke:#181818;stroke-width:1.0;stroke-dasharray:2.0,2.0;" width="129.6809" x="220.0919" y="9"/><text fill="#000000" font-family="sans-serif" font-size="12" font-style="italic" lengthAdjust="spacing" textLength="127.6809" x="221.0919" y="22.8281">ArticleDTO, Article, Long</text><line style="stroke:#181818;stroke-width:0.5;" x1="16" x2="345.7728" y1="54.6879" y2="54.6879"/><ellipse cx="26" cy="69.7219" fill="#84BE84" rx="3" ry="3" style="stroke:#038048;stroke-width:1.0;"/><text fill="#000000" font-family="sans-serif" font-size="14" font-style="italic" lengthAdjust="spacing" textLength="149.0014" x="35" y="73.6538">readAll(): List&lt;ReadDto&gt;</text><ellipse cx="26" cy="88.7898" fill="#84BE84" rx="3" ry="3" style="stroke:#038048;stroke-width:1.0;"/><text fill="#000000" font-family="sans-serif" font-size="14" font-style="italic" lengthAdjust="spacing" textLength="139.8315" x="35" y="92.7218">read(Long): ArticleDTO</text><ellipse cx="26" cy="107.8577" fill="#84BE84" rx="3" ry="3" style="stroke:#038048;stroke-width:1.0;"/><text fill="#000000" font-family="sans-serif" font-size="14" font-style="italic" lengthAdjust="spacing" textLength="305.7728" x="35" y="111.7897">create(Article, Principal, MultipartFile): ArticleDTO</text><ellipse cx="26" cy="126.9256" fill="#84BE84" rx="3" ry="3" style="stroke:#038048;stroke-width:1.0;"/><text fill="#000000" font-family="sans-serif" font-size="14" font-style="italic" lengthAdjust="spacing" textLength="287.1249" x="35" y="130.8576">update(Long, Article, MultipartFile): ArticleDTO</text><ellipse cx="26" cy="145.9935" fill="#84BE84" rx="3" ry="3" style="stroke:#038048;stroke-width:1.0;"/><text fill="#000000" font-family="sans-serif" font-size="14" font-style="italic" lengthAdjust="spacing" textLength="109.5916" x="35" y="149.9255">delete(Long): void</text></g></a><polygon fill="none" points="181,158.295,175,176.295,187,176.295,181,158.295" style="stroke:#181818;stroke-width:1.0;"/><path d="M181,176.295 C181,187.6144 181,181.5683 181,193.6142 " fill="none" style="stroke:#181818;stroke-width:1.0;stroke-dasharray:7.0,7.0;"/><text fill="#888888" font-family="sans-serif" font-size="10" lengthAdjust="spacing" textLength="2.6" x="176.2" y="439.69">&#160;</text><a href="https://github.com/talsma-ict/umldoclet" target="_top" title="https://github.com/talsma-ict/umldoclet" xlink:actuate="onRequest" xlink:href="https://github.com/talsma-ict/umldoclet" xlink:show="new" xlink:title="https://github.com/talsma-ict/umldoclet" xlink:type="simple"><text fill="#888888" font-family="sans-serif" font-size="10" lengthAdjust="spacing" textLength="76.7199" x="139.14" y="453.31">UMLDoclet 2.2.1</text></a><!--SRC=[jLLDSzD03BtpAmGSS8VKSLm29TF9J4Zvd30mJNeAEMpMYht3UjViocKCzByZnsxZqfRF8OSaNZr9JzBp2W3W0KnjKJcLPWHaWJBbuVJj38H984M3JX0ce7AHeeSrQcjItm0HH4cPTM0tsoTfdKDVM9Ceay8RSIR0sz99zE6TEx1DjRY8_bduJlHrLHyUMwcH89ZkTIZ5qU3nVXp5GrW8xNC1hwUBi8ssyud3E1m0nzPAel4SiZG9kYsjII4a_ymQIm_Eq7bb3Vj4RPowL6aD2MKy5CAHhqjwhuMXckiWvFoFmYSGJEQpgzoYfrjkFPWu8ye4JkodyhBSkuKJAJFMeh8bWS-HX16DpJDf8t9kbv0uHqugY3jfhC6jFLC90kO5LR1Hg1F_uoa7oomVRy-b5jx3lIEllk1ey6WySQIuBtDqPrpr1zCQeh6qUSXDTBGMLLWucoAHtIWZD8Ojsjy3ditl0CEhQM2vl7eGPfJhrGg-RZdMduVI8GyyQ74zUE-KaQeGkWTlIqsgRluBfN5l12tcUF5kvvuW3nk36MkG4MTM9JiRHqukB3VvrlQ9rW6RPyhJqGupte7A8X5jWXvSilmTQXw5azcpQih-gNLLSF7df_akl4uzkg3- -WMQNlk9b5ZmInCyirQZC3suiHrD9NCILFgsddNZS0tQa0ZcnCD8RoDmtYXD6KAtOSrsr3PrPVA_fTR9qQ7McL5TufWbs05UrzzNiVRaXAJpwteuuUTZikDRmJyHLnVwRnBlHlfhCNQ3tFBAjEFyqzx3qRSm_9lBeKbtvAdIk6lnnbgMKsT0zUTLLQ2RAVDnQZLVYVSFRxQUrXUyLWPvfyYF1la2Z2wHvqswVYTVc-k3MIupeiAF-lrKKLQkGowdJzlbigyazSjS9yrM-M6_h5RjldXvkRZgoty_EjoFdou6qUWW7XqSXe-7WuFXSFWaVXZ5eoXQFY-TBR1_OdDSVGS0]--></g></svg>