<svg xmlns="http://www.w3.org/2000/svg" xmlns:xlink="http://www.w3.org/1999/xlink" contentStyleType="text/css" height="331px" preserveAspectRatio="none" style="width:392px;height:331px;background:#FFFFFF;" version="1.1" viewBox="0 0 392 331" width="392px" zoomAndPan="magnify"><defs/><g><!--class com.smartbay.progettofinale.Services.CareerRequestServiceImpl--><a href="CareerRequestServiceImpl.html" target="_top" title="CareerRequestServiceImpl.html" xlink:actuate="onRequest" xlink:href="CareerRequestServiceImpl.html" xlink:show="new" xlink:title="CareerRequestServiceImpl.html" xlink:type="simple"><g id="elem_com.smartbay.progettofinale.Services.CareerRequestServiceImpl"><rect codeLine="13" fill="#F1F1F1" height="126.9596" id="com.smartbay.progettofinale.Services.CareerRequestServiceImpl" rx="2.5" ry="2.5" style="stroke:#181818;stroke-width:0.5;" width="379.5267" x="6" y="175"/><ellipse cx="102.4334" cy="196.344" fill="#ADD1B2" rx="11" ry="11" style="stroke:#181818;stroke-width:1.0;"/><path d="M105.4022,201.9846 Q104.824,202.2815 104.1834,202.4221 Q103.5428,202.5783 102.8397,202.5783 Q100.3397,202.5783 99.0115,200.9377 Q97.699,199.2815 97.699,196.1565 Q97.699,193.0315 99.0115,191.3752 Q100.3397,189.719 102.8397,189.719 Q103.5428,189.719 104.1834,189.8752 Q104.8397,190.0315 105.4022,190.3283 L105.4022,193.0471 Q104.7772,192.469 104.1834,192.2033 Q103.5897,191.9221 102.9647,191.9221 Q101.6209,191.9221 100.9334,193.0002 Q100.2459,194.0627 100.2459,196.1565 Q100.2459,198.2502 100.9334,199.3283 Q101.6209,200.3908 102.9647,200.3908 Q103.5897,200.3908 104.1834,200.1252 Q104.7772,199.844 105.4022,199.2658 L105.4022,201.9846 Z " fill="#000000"/><text fill="#000000" font-family="sans-serif" font-size="14" lengthAdjust="spacing" textLength="174.3413" x="124.8427" y="194.9659">CareerRequestServiceImpl</text><text fill="#000000" font-family="sans-serif" font-size="10" lengthAdjust="spacing" textLength="178.1599" x="122.9334" y="209.7579">com.smartbay.progettofinale.Services</text><line style="stroke:#181818;stroke-width:0.5;" x1="7" x2="384.5267" y1="217.6879" y2="217.6879"/><ellipse cx="17" cy="232.7219" fill="#84BE84" rx="3" ry="3" style="stroke:#038048;stroke-width:1.0;"/><text fill="#000000" font-family="sans-serif" font-size="14" lengthAdjust="spacing" textLength="353.5267" x="26" y="236.6538">isRoleAlreadyAssigned(User, CareerRequest): boolean</text><ellipse cx="17" cy="251.7898" fill="#84BE84" rx="3" ry="3" style="stroke:#038048;stroke-width:1.0;"/><text fill="#000000" font-family="sans-serif" font-size="14" lengthAdjust="spacing" textLength="208.7532" x="26" y="255.7218">save(CareerRequest, User): void</text><ellipse cx="17" cy="270.8577" fill="#84BE84" rx="3" ry="3" style="stroke:#038048;stroke-width:1.0;"/><text fill="#000000" font-family="sans-serif" font-size="14" lengthAdjust="spacing" textLength="162.5394" x="26" y="274.7897">careerAccept(Long): void</text><ellipse cx="17" cy="289.9256" fill="#84BE84" rx="3" ry="3" style="stroke:#038048;stroke-width:1.0;"/><text fill="#000000" font-family="sans-serif" font-size="14" lengthAdjust="spacing" textLength="172.1293" x="26" y="293.8576">find(Long): CareerRequest</text></g></a><!--class com.smartbay.progettofinale.Services.CareerRequestService--><a href="CareerRequestService.html" target="_top" title="CareerRequestService.html" xlink:actuate="onRequest" xlink:href="CareerRequestService.html" xlink:show="new" xlink:title="CareerRequestService.html" xlink:type="simple"><g id="elem_com.smartbay.progettofinale.Services.CareerRequestService"><rect codeLine="20" fill="#F1F1F1" height="126.9596" id="com.smartbay.progettofinale.Services.CareerRequestService" rx="2.5" ry="2.5" style="stroke:#181818;stroke-width:0.5;" width="355.0407" x="18.5" y="12"/><ellipse cx="108.2005" cy="33.344" fill="#B4A7E5" rx="11" ry="11" style="stroke:#181818;stroke-width:1.0;"/><path d="M104.1223,29.1096 L104.1223,26.9533 L111.513,26.9533 L111.513,29.1096 L109.0442,29.1096 L109.0442,37.1877 L111.513,37.1877 L111.513,39.344 L104.1223,39.344 L104.1223,37.1877 L106.5911,37.1877 L106.5911,29.1096 L104.1223,29.1096 Z " fill="#000000"/><text fill="#000000" font-family="sans-serif" font-size="14" font-style="italic" lengthAdjust="spacing" textLength="133.2935" x="145.6236" y="31.9659">CareerRequestService</text><text fill="#000000" font-family="sans-serif" font-size="10" font-style="italic" lengthAdjust="spacing" textLength="167.1398" x="128.7005" y="46.7579">com.smartbay.progettofinale.Services</text><line style="stroke:#181818;stroke-width:0.5;" x1="19.5" x2="372.5407" y1="54.6879" y2="54.6879"/><ellipse cx="29.5" cy="69.7219" fill="#84BE84" rx="3" ry="3" style="stroke:#038048;stroke-width:1.0;"/><text fill="#000000" font-family="sans-serif" font-size="14" font-style="italic" lengthAdjust="spacing" textLength="329.0407" x="38.5" y="73.6538">isRoleAlreadyAssigned(User, CareerRequest): boolean</text><ellipse cx="29.5" cy="88.7898" fill="#84BE84" rx="3" ry="3" style="stroke:#038048;stroke-width:1.0;"/><text fill="#000000" font-family="sans-serif" font-size="14" font-style="italic" lengthAdjust="spacing" textLength="194.5013" x="38.5" y="92.7218">save(CareerRequest, User): void</text><ellipse cx="29.5" cy="107.8577" fill="#84BE84" rx="3" ry="3" style="stroke:#038048;stroke-width:1.0;"/><text fill="#000000" font-family="sans-serif" font-size="14" font-style="italic" lengthAdjust="spacing" textLength="151.9694" x="38.5" y="111.7897">careerAccept(Long): void</text><ellipse cx="29.5" cy="126.9256" fill="#84BE84" rx="3" ry="3" style="stroke:#038048;stroke-width:1.0;"/><text fill="#000000" font-family="sans-serif" font-size="14" font-style="italic" lengthAdjust="spacing" textLength="160.5934" x="38.5" y="130.8576">find(Long): CareerRequest</text></g></a><polygon fill="none" points="196,139.2078,190,157.2078,202,157.2078,196,139.2078" style="stroke:#181818;stroke-width:1.0;"/><path d="M196,157.2078 C196,168.9508 196,163.2255 196,174.9633 " fill="none" style="stroke:#181818;stroke-width:1.0;stroke-dasharray:7.0,7.0;"/><text fill="#888888" font-family="sans-serif" font-size="10" lengthAdjust="spacing" textLength="2.6" x="191.2" y="306.69">&#160;</text><a href="https://github.com/talsma-ict/umldoclet" target="_top" title="https://github.com/talsma-ict/umldoclet" xlink:actuate="onRequest" xlink:href="https://github.com/talsma-ict/umldoclet" xlink:show="new" xlink:title="https://github.com/talsma-ict/umldoclet" xlink:type="simple"><text fill="#888888" font-family="sans-serif" font-size="10" lengthAdjust="spacing" textLength="76.7199" x="154.14" y="320.31">UMLDoclet 2.2.1</text></a><!--SRC=[lLHHJzim47xdLzpOmufetJIZXLO8gUgcmTH9KobFfGzNvvfOE7PcEvqond-VavQImX1eICjB5DztttttdNC001zWfBF2Y3Xnu3IuH5Yu-ZO6L174fCYWemX4YZ5PM93KAhPh807cBj46zBBwujeOifbMaL0nVCKLWjMvuMJPtXvKfQRtx3_HrjWNHNduIND93XgZWvgaCEZqMc4GTc6AqgO85wCfsx0zv8GiP1tmt59mKjPJvYeYKyaQPiZzQxoED655nWgjV4wmuIbRvLev5Cf2XiRPigNl4fKhjNQOht_4Zg4nl1plQWlwbROc38t2F8A9_f5lstsN6OozOec5pXtOb1mgNCUi5wqmzNOXfqloHT5v9vLMLCKJ4H5Gcha2be9aP1-VUh94- -Fgd4kq5lPFhVX5WyxHsGWDaPbGASPTabdvtY_IJ5wh3IGuupfbtaxZ5bYmpEYOdDDBeL0IssJOVV1JUWsGFLSGPhFdGYnngPpFuRRge7mEXPreIKDf2ADYQAs85KMDAqkc2Jiq1mDOQ0z5zP1iSKMD7LGJobIFNMaHFG1vXHboJfbhZFrrVeBmtKNtaHt62dAtzbmeHsRff_U2x__LysVyVkhrBIwiCyZTtTjih_EyTWBrd1U7KGU_QYx_xjtfRyRUTjtN2awjAoITRLjOQkslIityyZalCZ9ZeMv6MleV__t9twDNvHgJGf7VdFn6aV_DWotoRbskNQktgNMjPhF4kSmEskrOk2HVCDzOsrKhj2MuQ-UfZDQxyz4MdSytM_7BTZsNAwuLdBJ2_hJJ6tIF1n_xh1lsmw1tqkiU1k4W26QVSwCpQazqIlC_]--></g></svg>