<svg xmlns="http://www.w3.org/2000/svg" xmlns:xlink="http://www.w3.org/1999/xlink" contentStyleType="text/css" height="369px" preserveAspectRatio="none" style="width:399px;height:369px;background:#FFFFFF;" version="1.1" viewBox="0 0 399 369" width="399px" zoomAndPan="magnify"><defs/><g><!--class com.smartbay.progettofinale.Services.CategoryService--><a href="CategoryService.html" target="_top" title="CategoryService.html" xlink:actuate="onRequest" xlink:href="CategoryService.html" xlink:show="new" xlink:title="CategoryService.html" xlink:type="simple"><g id="elem_com.smartbay.progettofinale.Services.CategoryService"><rect codeLine="13" fill="#F1F1F1" height="146.0275" id="com.smartbay.progettofinale.Services.CategoryService" rx="2.5" ry="2.5" style="stroke:#181818;stroke-width:0.5;" width="386.2607" x="6" y="194"/><ellipse cx="105.8004" cy="215.344" fill="#ADD1B2" rx="11" ry="11" style="stroke:#181818;stroke-width:1.0;"/><path d="M108.7691,220.9846 Q108.191,221.2815 107.5504,221.4221 Q106.9098,221.5783 106.2066,221.5783 Q103.7066,221.5783 102.3785,219.9377 Q101.066,218.2815 101.066,215.1565 Q101.066,212.0315 102.3785,210.3752 Q103.7066,208.719 106.2066,208.719 Q106.9098,208.719 107.5504,208.8752 Q108.2066,209.0315 108.7691,209.3283 L108.7691,212.0471 Q108.1441,211.469 107.5504,211.2033 Q106.9566,210.9221 106.3316,210.9221 Q104.9879,210.9221 104.3004,212.0002 Q103.6129,213.0627 103.6129,215.1565 Q103.6129,217.2502 104.3004,218.3283 Q104.9879,219.3908 106.3316,219.3908 Q106.9566,219.3908 107.5504,219.1252 Q108.1441,218.844 108.7691,218.2658 L108.7691,220.9846 Z " fill="#000000"/><text fill="#000000" font-family="sans-serif" font-size="14" lengthAdjust="spacing" textLength="106.3576" x="162.2015" y="213.9659">CategoryService</text><text fill="#000000" font-family="sans-serif" font-size="10" lengthAdjust="spacing" textLength="178.1599" x="126.3004" y="228.7579">com.smartbay.progettofinale.Services</text><line style="stroke:#181818;stroke-width:0.5;" x1="7" x2="391.2607" y1="236.6879" y2="236.6879"/><ellipse cx="17" cy="251.7219" fill="#84BE84" rx="3" ry="3" style="stroke:#038048;stroke-width:1.0;"/><text fill="#000000" font-family="sans-serif" font-size="14" lengthAdjust="spacing" textLength="360.2607" x="26" y="255.6538">create(Category, Principal, MultipartFile): CategoryDTO</text><ellipse cx="17" cy="270.7898" fill="#84BE84" rx="3" ry="3" style="stroke:#038048;stroke-width:1.0;"/><text fill="#000000" font-family="sans-serif" font-size="14" lengthAdjust="spacing" textLength="117.6275" x="26" y="274.7218">delete(Long): void</text><ellipse cx="17" cy="289.8577" fill="#84BE84" rx="3" ry="3" style="stroke:#038048;stroke-width:1.0;"/><text fill="#000000" font-family="sans-serif" font-size="14" lengthAdjust="spacing" textLength="167.5934" x="26" y="293.7897">read(Long): CategoryDTO</text><ellipse cx="17" cy="308.9256" fill="#84BE84" rx="3" ry="3" style="stroke:#038048;stroke-width:1.0;"/><text fill="#000000" font-family="sans-serif" font-size="14" lengthAdjust="spacing" textLength="189.4193" x="26" y="312.8576">readAll(): List&lt;CategoryDTO&gt;</text><ellipse cx="17" cy="327.9935" fill="#84BE84" rx="3" ry="3" style="stroke:#038048;stroke-width:1.0;"/><text fill="#000000" font-family="sans-serif" font-size="14" lengthAdjust="spacing" textLength="341.8787" x="26" y="331.9255">update(Long, Category, MultipartFile): CategoryDTO</text></g></a><!--class com.smartbay.progettofinale.Services.CrudService--><a href="CrudService.html" target="_top" title="CrudService.html" xlink:actuate="onRequest" xlink:href="CrudService.html" xlink:show="new" xlink:title="CrudService.html" xlink:type="simple"><g id="elem_com.smartbay.progettofinale.Services.CrudService"><rect codeLine="21" fill="#F1F1F1" height="146.0275" id="com.smartbay.progettofinale.Services.CrudService" rx="2.5" ry="2.5" style="stroke:#181818;stroke-width:0.5;" width="366.2967" x="16" y="12"/><ellipse cx="33.6477" cy="33.344" fill="#B4A7E5" rx="11" ry="11" style="stroke:#181818;stroke-width:1.0;"/><path d="M29.5696,29.1096 L29.5696,26.9533 L36.9602,26.9533 L36.9602,29.1096 L34.4915,29.1096 L34.4915,37.1877 L36.9602,37.1877 L36.9602,39.344 L29.5696,39.344 L29.5696,37.1877 L32.0384,37.1877 L32.0384,29.1096 L29.5696,29.1096 Z " fill="#000000"/><text fill="#000000" font-family="sans-serif" font-size="14" font-style="italic" lengthAdjust="spacing" textLength="73.1077" x="95.2521" y="31.9659">CrudService</text><text fill="#000000" font-family="sans-serif" font-size="10" font-style="italic" lengthAdjust="spacing" textLength="167.1398" x="48.2361" y="46.7579">com.smartbay.progettofinale.Services</text><rect fill="#FFFFFF" height="18.3441" style="stroke:#181818;stroke-width:1.0;stroke-dasharray:2.0,2.0;" width="159.2731" x="226.0236" y="9"/><text fill="#000000" font-family="sans-serif" font-size="12" font-style="italic" lengthAdjust="spacing" textLength="157.2731" x="227.0236" y="22.8281">CategoryDTO, Category, Long</text><line style="stroke:#181818;stroke-width:0.5;" x1="17" x2="381.2967" y1="54.6879" y2="54.6879"/><ellipse cx="27" cy="69.7219" fill="#84BE84" rx="3" ry="3" style="stroke:#038048;stroke-width:1.0;"/><text fill="#000000" font-family="sans-serif" font-size="14" font-style="italic" lengthAdjust="spacing" textLength="149.0014" x="36" y="73.6538">readAll(): List&lt;ReadDto&gt;</text><ellipse cx="27" cy="88.7898" fill="#84BE84" rx="3" ry="3" style="stroke:#038048;stroke-width:1.0;"/><text fill="#000000" font-family="sans-serif" font-size="14" font-style="italic" lengthAdjust="spacing" textLength="157.0934" x="36" y="92.7218">read(Long): CategoryDTO</text><ellipse cx="27" cy="107.8577" fill="#84BE84" rx="3" ry="3" style="stroke:#038048;stroke-width:1.0;"/><text fill="#000000" font-family="sans-serif" font-size="14" font-style="italic" lengthAdjust="spacing" textLength="340.2967" x="36" y="111.7897">create(Category, Principal, MultipartFile): CategoryDTO</text><ellipse cx="27" cy="126.9256" fill="#84BE84" rx="3" ry="3" style="stroke:#038048;stroke-width:1.0;"/><text fill="#000000" font-family="sans-serif" font-size="14" font-style="italic" lengthAdjust="spacing" textLength="321.6487" x="36" y="130.8576">update(Long, Category, MultipartFile): CategoryDTO</text><ellipse cx="27" cy="145.9935" fill="#84BE84" rx="3" ry="3" style="stroke:#038048;stroke-width:1.0;"/><text fill="#000000" font-family="sans-serif" font-size="14" font-style="italic" lengthAdjust="spacing" textLength="109.5916" x="36" y="149.9255">delete(Long): void</text></g></a><polygon fill="none" points="199,158.1757,193,176.1757,205,176.1757,199,158.1757" style="stroke:#181818;stroke-width:1.0;"/><path d="M199,176.1757 C199,187.9126 199,182.0708 199,193.8081 " fill="none" style="stroke:#181818;stroke-width:1.0;stroke-dasharray:7.0,7.0;"/><text fill="#888888" font-family="sans-serif" font-size="10" lengthAdjust="spacing" textLength="2.6" x="194.2" y="344.69">&#160;</text><a href="https://github.com/talsma-ict/umldoclet" target="_top" title="https://github.com/talsma-ict/umldoclet" xlink:actuate="onRequest" xlink:href="https://github.com/talsma-ict/umldoclet" xlink:show="new" xlink:title="https://github.com/talsma-ict/umldoclet" xlink:type="simple"><text fill="#888888" font-family="sans-serif" font-size="10" lengthAdjust="spacing" textLength="76.7199" x="157.14" y="358.31">UMLDoclet 2.2.1</text></a><!--SRC=[jLHRJzim57xdLvonXnNHkcbWQwcgIbNPLKL3K9vA7rpdDB5mxCnsEcMC_pxdKf8Ls8LfUObopkVlN3xd0m1u1LELP9g7aGMhm4RSmDNP3AWC84I9cbeCWCSqH0Ch54g6fWGYqDH6IeDQ5rzCQOqcKJBWCeHFT4F1g5GpD6Hl3ufIyotxLseQxAii3vug9j12QthGQCdtUcywlkU_XZaL9gRmSJed5LjznYS-wO7Z5foXD8uobG7gegr9GfbxpSfC6pQe3LVIdV4gddnKfgIbN1f8gBOc7-bSK6dpNdl4rJycVMXDBcS_z-QT5BsrOQ8bJGEuK5_I-t5V99g6hcD1CvLQC35QAccPCwvfIMEtBihm4brHQjqcfP9Ov2CU862Ss0pM74LWTgEEB58kNCIPeCR0_iZmRpZi7O-dRgkXqjabweqR-rfM6M_CL4pS5hLTqOmaMeLehLfpIGMI2ctsmOdp9q2oKmSMYvq8YMmibakuBThCdqEcqM5QMs0RpZMNZ2TKjE4i5PRd0hpZ0W-6i0MTpZ_N104wnR4rSnVHGJQA1tNESGVRpAE7Sy14Y9RBpxYnemPeNAFI9A1LYJRKdVwklRjI3IujwhNJjQc8JeF_haPTepbNSu9yed4kKmrzAD4jNHchARDt3_TruRvFhHe_2VxLzflOVxq6JQvdohLByyJ5gbJzMmbWz9sGP_r6PRsHiPd0Uj5hfTorQiYKFn-o1FMCovkf4iu-NWuUprxbPYYuHEU_x4QYCmll7dbNbkiswbMrhkLY4LcRc66t6t8RfIlYvkdQmeWxdDbk6ekWTE0TBrukAszzVs_okL5sl477FvdtlE6HFpmQa7xFE_AE1_t-eUSFFM_nDjKgmUw5Yd7v0m00]--></g></svg>