<svg xmlns="http://www.w3.org/2000/svg" xmlns:xlink="http://www.w3.org/1999/xlink" contentStyleType="text/css" height="369px" preserveAspectRatio="none" style="width:408px;height:369px;background:#FFFFFF;" version="1.1" viewBox="0 0 408 369" width="408px" zoomAndPan="magnify"><defs/><g><!--class com.smartbay.progettofinale.Services.CategoryService--><a href="CategoryService.html" target="_top" title="CategoryService.html" xlink:actuate="onRequest" xlink:href="CategoryService.html" xlink:show="new" xlink:title="CategoryService.html" xlink:type="simple"><g id="elem_com.smartbay.progettofinale.Services.CategoryService"><rect codeLine="13" fill="#F1F1F1" height="146.0275" id="com.smartbay.progettofinale.Services.CategoryService" rx="2.5" ry="2.5" style="stroke:#181818;stroke-width:0.5;" width="395.4726" x="6" y="194"/><ellipse cx="110.4064" cy="215.344" fill="#ADD1B2" rx="11" ry="11" style="stroke:#181818;stroke-width:1.0;"/><path d="M113.3751,220.9846 Q112.797,221.2815 112.1564,221.4221 Q111.5158,221.5783 110.8126,221.5783 Q108.3126,221.5783 106.9845,219.9377 Q105.672,218.2815 105.672,215.1565 Q105.672,212.0315 106.9845,210.3752 Q108.3126,208.719 110.8126,208.719 Q111.5158,208.719 112.1564,208.8752 Q112.8126,209.0315 113.3751,209.3283 L113.3751,212.0471 Q112.7501,211.469 112.1564,211.2033 Q111.5626,210.9221 110.9376,210.9221 Q109.5939,210.9221 108.9064,212.0002 Q108.2189,213.0627 108.2189,215.1565 Q108.2189,217.2502 108.9064,218.3283 Q109.5939,219.3908 110.9376,219.3908 Q111.5626,219.3908 112.1564,219.1252 Q112.7501,218.844 113.3751,218.2658 L113.3751,220.9846 Z " fill="#000000"/><text fill="#000000" font-family="sans-serif" font-size="14" lengthAdjust="spacing" textLength="106.3576" x="166.8075" y="213.9659">CategoryService</text><text fill="#000000" font-family="sans-serif" font-size="10" lengthAdjust="spacing" textLength="178.1599" x="130.9064" y="228.7579">com.smartbay.progettofinale.Services</text><line style="stroke:#181818;stroke-width:0.5;" x1="7" x2="400.4726" y1="236.6879" y2="236.6879"/><ellipse cx="17" cy="251.7219" fill="#84BE84" rx="3" ry="3" style="stroke:#038048;stroke-width:1.0;"/><text fill="#000000" font-family="sans-serif" font-size="14" lengthAdjust="spacing" textLength="369.4726" x="26" y="255.6538">create(Category, Principal, MultipartFile[]): CategoryDTO</text><ellipse cx="17" cy="270.7898" fill="#84BE84" rx="3" ry="3" style="stroke:#038048;stroke-width:1.0;"/><text fill="#000000" font-family="sans-serif" font-size="14" lengthAdjust="spacing" textLength="117.6275" x="26" y="274.7218">delete(Long): void</text><ellipse cx="17" cy="289.8577" fill="#84BE84" rx="3" ry="3" style="stroke:#038048;stroke-width:1.0;"/><text fill="#000000" font-family="sans-serif" font-size="14" lengthAdjust="spacing" textLength="167.5934" x="26" y="293.7897">read(Long): CategoryDTO</text><ellipse cx="17" cy="308.9256" fill="#84BE84" rx="3" ry="3" style="stroke:#038048;stroke-width:1.0;"/><text fill="#000000" font-family="sans-serif" font-size="14" lengthAdjust="spacing" textLength="189.4193" x="26" y="312.8576">readAll(): List&lt;CategoryDTO&gt;</text><ellipse cx="17" cy="327.9935" fill="#84BE84" rx="3" ry="3" style="stroke:#038048;stroke-width:1.0;"/><text fill="#000000" font-family="sans-serif" font-size="14" lengthAdjust="spacing" textLength="351.0907" x="26" y="331.9255">update(Long, Category, MultipartFile[]): CategoryDTO</text></g></a><!--class com.smartbay.progettofinale.Services.CrudService--><a href="CrudService.html" target="_top" title="CrudService.html" xlink:actuate="onRequest" xlink:href="CrudService.html" xlink:show="new" xlink:title="CrudService.html" xlink:type="simple"><g id="elem_com.smartbay.progettofinale.Services.CrudService"><rect codeLine="21" fill="#F1F1F1" height="146.0275" id="com.smartbay.progettofinale.Services.CrudService" rx="2.5" ry="2.5" style="stroke:#181818;stroke-width:0.5;" width="374.4166" x="16.5" y="12"/><ellipse cx="37.8017" cy="33.344" fill="#B4A7E5" rx="11" ry="11" style="stroke:#181818;stroke-width:1.0;"/><path d="M33.7236,29.1096 L33.7236,26.9533 L41.1142,26.9533 L41.1142,29.1096 L38.6454,29.1096 L38.6454,37.1877 L41.1142,37.1877 L41.1142,39.344 L33.7236,39.344 L33.7236,37.1877 L36.1923,37.1877 L36.1923,29.1096 L33.7236,29.1096 Z " fill="#000000"/><text fill="#000000" font-family="sans-serif" font-size="14" font-style="italic" lengthAdjust="spacing" textLength="73.1077" x="100.2181" y="31.9659">CrudService</text><text fill="#000000" font-family="sans-serif" font-size="10" font-style="italic" lengthAdjust="spacing" textLength="167.1398" x="53.2021" y="46.7579">com.smartbay.progettofinale.Services</text><rect fill="#FFFFFF" height="18.3441" style="stroke:#181818;stroke-width:1.0;stroke-dasharray:2.0,2.0;" width="159.2731" x="234.6435" y="9"/><text fill="#000000" font-family="sans-serif" font-size="12" font-style="italic" lengthAdjust="spacing" textLength="157.2731" x="235.6435" y="22.8281">CategoryDTO, Category, Long</text><line style="stroke:#181818;stroke-width:0.5;" x1="17.5" x2="389.9166" y1="54.6879" y2="54.6879"/><ellipse cx="27.5" cy="69.7219" fill="#84BE84" rx="3" ry="3" style="stroke:#038048;stroke-width:1.0;"/><text fill="#000000" font-family="sans-serif" font-size="14" font-style="italic" lengthAdjust="spacing" textLength="149.0014" x="36.5" y="73.6538">readAll(): List&lt;ReadDto&gt;</text><ellipse cx="27.5" cy="88.7898" fill="#84BE84" rx="3" ry="3" style="stroke:#038048;stroke-width:1.0;"/><text fill="#000000" font-family="sans-serif" font-size="14" font-style="italic" lengthAdjust="spacing" textLength="157.0934" x="36.5" y="92.7218">read(Long): CategoryDTO</text><ellipse cx="27.5" cy="107.8577" fill="#84BE84" rx="3" ry="3" style="stroke:#038048;stroke-width:1.0;"/><text fill="#000000" font-family="sans-serif" font-size="14" font-style="italic" lengthAdjust="spacing" textLength="348.4166" x="36.5" y="111.7897">create(Category, Principal, MultipartFile[]): CategoryDTO</text><ellipse cx="27.5" cy="126.9256" fill="#84BE84" rx="3" ry="3" style="stroke:#038048;stroke-width:1.0;"/><text fill="#000000" font-family="sans-serif" font-size="14" font-style="italic" lengthAdjust="spacing" textLength="329.7687" x="36.5" y="130.8576">update(Long, Category, MultipartFile[]): CategoryDTO</text><ellipse cx="27.5" cy="145.9935" fill="#84BE84" rx="3" ry="3" style="stroke:#038048;stroke-width:1.0;"/><text fill="#000000" font-family="sans-serif" font-size="14" font-style="italic" lengthAdjust="spacing" textLength="109.5916" x="36.5" y="149.9255">delete(Long): void</text></g></a><polygon fill="none" points="203.5,158.1757,197.5,176.1757,209.5,176.1757,203.5,158.1757" style="stroke:#181818;stroke-width:1.0;"/><path d="M203.5,176.1757 C203.5,187.9126 203.5,182.0708 203.5,193.8081 " fill="none" style="stroke:#181818;stroke-width:1.0;stroke-dasharray:7.0,7.0;"/><text fill="#888888" font-family="sans-serif" font-size="10" lengthAdjust="spacing" textLength="2.6" x="198.7" y="344.69">&#160;</text><a href="https://github.com/talsma-ict/umldoclet" target="_top" title="https://github.com/talsma-ict/umldoclet" xlink:actuate="onRequest" xlink:href="https://github.com/talsma-ict/umldoclet" xlink:show="new" xlink:title="https://github.com/talsma-ict/umldoclet" xlink:type="simple"><text fill="#888888" font-family="sans-serif" font-size="10" lengthAdjust="spacing" textLength="76.7199" x="161.64" y="358.31">UMLDoclet 2.2.1</text></a><!--SRC=[jLJRRjf047tFLqpJXn855aEI5X12GgHN4JLAo1FXOR47UvNrhhkxfdBJ_7l7niGkINf9LRzOdZbxvdBM1m3W5KnqaXaHHWwS1XS92rTdK-0gW10L6kum017p42qiKMeLsWqGWQSkqWRqglZojJ5e4wq2eKBunDSSh4wDZvRjxK5HQhPb_yfjZNsPvS5JxKjqq9WSr5hgUftNhQxNFO4PbpRcy74oOoLRTQRBkgm3n2s5ZyeIPQe2D4LRuuJxz9fkCarOex52AphZbJpvgBvMZWjb8U76sNoaSycLotljCAf_pDv0Otmv_Rathr_qreInKJmDu49_IU_7VP4O7bB7acSwTM1ZT5pnJSvIquh7j2xkuoLIKUveaqehBFAH210mJbm6Au4oiBjH8eiqXOkuBxcri3-quXiEEiUZ2Mqrr2QxHBEciQzLcV56leuPRT6u9SzOOdI8pkcLK5mYAz5s7qYSFm6odJemd-z4MEHYkLZ0RT5c_Xpw1WdJs0ARS6w4yaN2PHFEKkb4Bi0x8N6-E1Z05dOw-rnH14YQOsDALv4WQos2AaVimJRpwE4SC9QoGVcfi6vO0uqgL9e4l2pHXAhNtpTujr54A8TcHThMLJ5fyDyLgMhK9wlFaCyqogMge0zbkkLBwmpttTt3ZLtGzwdJeoV1lzf_7VllLw7Ezcp9TecUk5wbidyh0mo_C_QitsbJRsXT9h5QzafhkbergVBdGvQWcGfrCz6IREHbx_7iLMwAKYWa7_Pl599fUFV8kqsvTgrUMUjQpUUHSuaTjDkXS56wP3HFsnM6t1A-QwUn33PElEF9YqNfiU_lpJutp9RNQnrrPbrluFK6NeUT77dzVgTtr3_qkWFFcxzDZKwmVQ5ZNFm0]--></g></svg>