<svg xmlns="http://www.w3.org/2000/svg" xmlns:xlink="http://www.w3.org/1999/xlink" contentStyleType="text/css" height="426px" preserveAspectRatio="none" style="width:410px;height:426px;background:#FFFFFF;" version="1.1" viewBox="0 0 410 426" width="410px" zoomAndPan="magnify"><defs/><g><!--class com.smartbay.progettofinale.Services.CustomUserDetails--><a href="CustomUserDetails.html" target="_top" title="CustomUserDetails.html" xlink:actuate="onRequest" xlink:href="CustomUserDetails.html" xlink:show="new" xlink:title="CustomUserDetails.html" xlink:type="simple"><g id="elem_com.smartbay.progettofinale.Services.CustomUserDetails"><rect codeLine="13" fill="#F1F1F1" height="241.3671" id="com.smartbay.progettofinale.Services.CustomUserDetails" rx="2.5" ry="2.5" style="stroke:#181818;stroke-width:0.5;" width="397.7266" x="6" y="156"/><ellipse cx="111.5334" cy="177.344" fill="#ADD1B2" rx="11" ry="11" style="stroke:#181818;stroke-width:1.0;"/><path d="M114.5021,182.9846 Q113.924,183.2815 113.2834,183.4221 Q112.6427,183.5783 111.9396,183.5783 Q109.4396,183.5783 108.1115,181.9377 Q106.799,180.2815 106.799,177.1565 Q106.799,174.0315 108.1115,172.3752 Q109.4396,170.719 111.9396,170.719 Q112.6427,170.719 113.2834,170.8752 Q113.9396,171.0315 114.5021,171.3283 L114.5021,174.0471 Q113.8771,173.469 113.2834,173.2033 Q112.6896,172.9221 112.0646,172.9221 Q110.7209,172.9221 110.0334,174.0002 Q109.3459,175.0627 109.3459,177.1565 Q109.3459,179.2502 110.0334,180.3283 Q110.7209,181.3908 112.0646,181.3908 Q112.6896,181.3908 113.2834,181.1252 Q113.8771,180.844 114.5021,180.2658 L114.5021,182.9846 Z " fill="#000000"/><text fill="#000000" font-family="sans-serif" font-size="14" lengthAdjust="spacing" textLength="126.3915" x="157.9175" y="175.9659">CustomUserDetails</text><text fill="#000000" font-family="sans-serif" font-size="10" lengthAdjust="spacing" textLength="178.1599" x="132.0334" y="190.7579">com.smartbay.progettofinale.Services</text><line style="stroke:#181818;stroke-width:0.5;" x1="7" x2="402.7266" y1="198.6879" y2="198.6879"/><ellipse cx="17" cy="213.7219" fill="#84BE84" rx="3" ry="3" style="stroke:#038048;stroke-width:1.0;"/><text fill="#000000" font-family="sans-serif" font-size="14" lengthAdjust="spacing" textLength="210.3492" x="26" y="217.6538">isAccountNonExpired(): boolean</text><ellipse cx="17" cy="232.7898" fill="#84BE84" rx="3" ry="3" style="stroke:#038048;stroke-width:1.0;"/><text fill="#000000" font-family="sans-serif" font-size="14" lengthAdjust="spacing" textLength="207.1572" x="26" y="236.7218">isAccountNonLocked(): boolean</text><ellipse cx="17" cy="251.8577" fill="#84BE84" rx="3" ry="3" style="stroke:#038048;stroke-width:1.0;"/><text fill="#000000" font-family="sans-serif" font-size="14" lengthAdjust="spacing" textLength="231.6571" x="26" y="255.7897">isCredentialsNonExpired(): boolean</text><ellipse cx="17" cy="270.9256" fill="#84BE84" rx="3" ry="3" style="stroke:#038048;stroke-width:1.0;"/><text fill="#000000" font-family="sans-serif" font-size="14" lengthAdjust="spacing" textLength="132.6915" x="26" y="274.8576">isEnabled(): boolean</text><ellipse cx="17" cy="289.9935" fill="#84BE84" rx="3" ry="3" style="stroke:#038048;stroke-width:1.0;"/><text fill="#000000" font-family="sans-serif" font-size="14" lengthAdjust="spacing" textLength="371.7266" x="26" y="293.9255">getAuthorities(): Collection&lt;? extends GrantedAuthority&gt;</text><ellipse cx="17" cy="309.0614" fill="#84BE84" rx="3" ry="3" style="stroke:#038048;stroke-width:1.0;"/><text fill="#000000" font-family="sans-serif" font-size="14" lengthAdjust="spacing" textLength="140.3495" x="26" y="312.9934">getPassword(): String</text><ellipse cx="17" cy="328.1294" fill="#84BE84" rx="3" ry="3" style="stroke:#038048;stroke-width:1.0;"/><text fill="#000000" font-family="sans-serif" font-size="14" lengthAdjust="spacing" textLength="144.8575" x="26" y="332.0613">getUsername(): String</text><ellipse cx="17" cy="347.1973" fill="#84BE84" rx="3" ry="3" style="stroke:#038048;stroke-width:1.0;"/><text fill="#000000" font-family="sans-serif" font-size="14" lengthAdjust="spacing" textLength="83.7757" x="26" y="351.1293">getId(): Long</text><ellipse cx="17" cy="366.2652" fill="#84BE84" rx="3" ry="3" style="stroke:#038048;stroke-width:1.0;"/><text fill="#000000" font-family="sans-serif" font-size="14" lengthAdjust="spacing" textLength="109.6756" x="26" y="370.1972">setId(Long): void</text><ellipse cx="17" cy="385.3331" fill="#84BE84" rx="3" ry="3" style="stroke:#038048;stroke-width:1.0;"/><text fill="#000000" font-family="sans-serif" font-size="14" lengthAdjust="spacing" textLength="137.3815" x="26" y="389.2651">getFullname(): String</text></g></a><!--class org.springframework.security.core.userdetails.UserDetails--><g id="elem_org.springframework.security.core.userdetails.UserDetails"><rect codeLine="26" fill="#F1F1F1" height="107.8917" id="org.springframework.security.core.userdetails.UserDetails" rx="2.5" ry="2.5" style="stroke:#181818;stroke-width:0.5;" width="373.8707" x="18" y="12"/><ellipse cx="98.7305" cy="33.344" fill="#B4A7E5" rx="11" ry="11" style="stroke:#181818;stroke-width:1.0;"/><path d="M94.6524,29.1096 L94.6524,26.9533 L102.043,26.9533 L102.043,29.1096 L99.5742,29.1096 L99.5742,37.1877 L102.043,37.1877 L102.043,39.344 L94.6524,39.344 L94.6524,37.1877 L97.1211,37.1877 L97.1211,29.1096 L94.6524,29.1096 Z " fill="#000000"/><text fill="#000000" font-family="sans-serif" font-size="14" font-style="italic" lengthAdjust="spacing" textLength="70.2797" x="186.0455" y="31.9659">UserDetails</text><text fill="#000000" font-family="sans-serif" font-size="10" font-style="italic" lengthAdjust="spacing" textLength="203.9097" x="119.2305" y="46.7579">org.springframework.security.core.userdetails</text><line style="stroke:#181818;stroke-width:0.5;" x1="19" x2="390.8707" y1="54.6879" y2="54.6879"/><ellipse cx="29" cy="69.7219" fill="#84BE84" rx="3" ry="3" style="stroke:#038048;stroke-width:1.0;"/><text fill="#000000" font-family="sans-serif" font-size="14" font-style="italic" lengthAdjust="spacing" textLength="347.8707" x="38" y="73.6538">getAuthorities(): Collection&lt;? extends GrantedAuthority&gt;</text><ellipse cx="29" cy="88.7898" fill="#84BE84" rx="3" ry="3" style="stroke:#038048;stroke-width:1.0;"/><text fill="#000000" font-family="sans-serif" font-size="14" font-style="italic" lengthAdjust="spacing" textLength="131.8655" x="38" y="92.7218">getPassword(): String</text><ellipse cx="29" cy="107.8577" fill="#84BE84" rx="3" ry="3" style="stroke:#038048;stroke-width:1.0;"/><text fill="#000000" font-family="sans-serif" font-size="14" font-style="italic" lengthAdjust="spacing" textLength="135.5755" x="38" y="111.7897">getUsername(): String</text></g><polygon fill="none" points="205,120.1528,199,138.1528,211,138.1528,205,120.1528" style="stroke:#181818;stroke-width:1.0;"/><path d="M205,138.1528 C205,149.2527 205,143.3794 205,155.8054 " fill="none" style="stroke:#181818;stroke-width:1.0;stroke-dasharray:7.0,7.0;"/><text fill="#888888" font-family="sans-serif" font-size="10" lengthAdjust="spacing" textLength="2.6" x="200.2" y="401.69">&#160;</text><a href="https://github.com/talsma-ict/umldoclet" target="_top" title="https://github.com/talsma-ict/umldoclet" xlink:actuate="onRequest" xlink:href="https://github.com/talsma-ict/umldoclet" xlink:show="new" xlink:title="https://github.com/talsma-ict/umldoclet" xlink:type="simple"><text fill="#888888" font-family="sans-serif" font-size="10" lengthAdjust="spacing" textLength="76.7199" x="163.14" y="415.31">UMLDoclet 2.2.1</text></a><!--SRC=[hLJ9JXj14Btp5HLo20ZS7ezOZ6KHMOOG8YT2B2VZGxkdF6wvfslItGCuX7zFpTY0MPm5PIwMQtcrlNu001-WI_dKwNGS8124iVPmyRK7qYQGeaKd0oQWCvcYXo4QigcV1IB88ep90OsgVugSGv-JJRHDuOkyak2fS0gzM5c1gjJvFVgrz0lemsbfF21bCC1QTtsXfJXgxDJYADw6Ssby9k6uUoxcQ8yviOX50nZRQ8NMCsHX4tHLMvrSAlxfpJoRS8NEQxAS4yrnob4LsI2rzP1B5tmvqecHDfIzDWJNtnAxiDOvwptjBTghUjk4ZhEoIE2KlXSFuxxBdKovOoEdL0Jm6GPfvSpdkMahCrwNL7Y6N5G6tgGbYvL_h1C4pF8mXP56a_ZdLWOR4vihkpBIUrXjU_q3Musj_MxX0sKN7jq1rzJ6NzgvBzfNb0dUemj3EHMvenH3e96sqg0uGtV5Q_AhmEVvcq3neXBq-oziOXmoCnZ0RTLi-Mretr6A2Xk-aJsyoRN3P6sz1KCYWzA-7jSZDLaQrcK4j44pIVu8UMZbq2pnyfITYjKwQFHbI9UCGHMOCksFW3S1RUBXo34vCBaFdUu_GJZXSroJgogS1SVFuOcxN4rv_2NkuoglHujcNvbB6xkkI2TFCZuLnhm2U3TZX-PEtOXvji2Grxb1BXK-B_D7Zk5uX8dmg8foGi7F6qN1USaihoB9FsM8HPuyak5M3drmKeMx_x3-Ps2_kSIpo2L7cU_mxNEsVmhnnhSqAztsOMhmSS8H4TzpON_bztcQe-jfE-5riOwyRxxklIXLqMYBBCHgOf5L8tg8l9kLgo_KczUwjFt-E8JSj-hrL8TnCUIPitge5BccLQWNcKbcKlnCb0U3kSWUFQXzgPYrg5cBzyuRkwsuqTfkYfrufnatT_TsDwAu5KNzmy9HZlLJod3m2m00]--></g></svg>