<svg xmlns="http://www.w3.org/2000/svg" xmlns:xlink="http://www.w3.org/1999/xlink" contentStyleType="text/css" height="293px" preserveAspectRatio="none" style="width:439px;height:293px;background:#FFFFFF;" version="1.1" viewBox="0 0 439 293" width="439px" zoomAndPan="magnify"><defs/><g><!--class com.smartbay.progettofinale.Services.ImageServiceImpl--><a href="ImageServiceImpl.html" target="_top" title="ImageServiceImpl.html" xlink:actuate="onRequest" xlink:href="ImageServiceImpl.html" xlink:show="new" xlink:title="ImageServiceImpl.html" xlink:type="simple"><g id="elem_com.smartbay.progettofinale.Services.ImageServiceImpl"><rect codeLine="13" fill="#F1F1F1" height="107.8917" id="com.smartbay.progettofinale.Services.ImageServiceImpl" rx="2.5" ry="2.5" style="stroke:#181818;stroke-width:0.5;" width="426.7345" x="6" y="156"/><ellipse cx="126.0373" cy="177.344" fill="#ADD1B2" rx="11" ry="11" style="stroke:#181818;stroke-width:1.0;"/><path d="M129.0061,182.9846 Q128.4279,183.2815 127.7873,183.4221 Q127.1467,183.5783 126.4436,183.5783 Q123.9436,183.5783 122.6154,181.9377 Q121.3029,180.2815 121.3029,177.1565 Q121.3029,174.0315 122.6154,172.3752 Q123.9436,170.719 126.4436,170.719 Q127.1467,170.719 127.7873,170.8752 Q128.4436,171.0315 129.0061,171.3283 L129.0061,174.0471 Q128.3811,173.469 127.7873,173.2033 Q127.1936,172.9221 126.5686,172.9221 Q125.2248,172.9221 124.5373,174.0002 Q123.8498,175.0627 123.8498,177.1565 Q123.8498,179.2502 124.5373,180.3283 Q125.2248,181.3908 126.5686,181.3908 Q127.1936,181.3908 127.7873,181.1252 Q128.3811,180.844 129.0061,180.2658 L129.0061,182.9846 Z " fill="#000000"/><text fill="#000000" font-family="sans-serif" font-size="14" lengthAdjust="spacing" textLength="118.9576" x="176.1385" y="175.9659">ImageServiceImpl</text><text fill="#000000" font-family="sans-serif" font-size="10" lengthAdjust="spacing" textLength="178.1599" x="146.5373" y="190.7579">com.smartbay.progettofinale.Services</text><line style="stroke:#181818;stroke-width:0.5;" x1="7" x2="431.7345" y1="198.6879" y2="198.6879"/><ellipse cx="17" cy="213.7219" fill="#84BE84" rx="3" ry="3" style="stroke:#038048;stroke-width:1.0;"/><text fill="#000000" font-family="sans-serif" font-size="14" lengthAdjust="spacing" textLength="242.6751" x="26" y="217.6538">saveImageOnDB(String, Article): void</text><ellipse cx="17" cy="232.7898" fill="#84BE84" rx="3" ry="3" style="stroke:#038048;stroke-width:1.0;"/><text fill="#000000" font-family="sans-serif" font-size="14" lengthAdjust="spacing" textLength="400.7345" x="26" y="236.7218">saveImageOnDisk(MultipartFile): CompletableFuture&lt;String&gt;</text><ellipse cx="17" cy="251.8577" fill="#84BE84" rx="3" ry="3" style="stroke:#038048;stroke-width:1.0;"/><text fill="#000000" font-family="sans-serif" font-size="14" lengthAdjust="spacing" textLength="166.1514" x="26" y="255.7897">deleteImage(String): void</text></g></a><!--class com.smartbay.progettofinale.Services.ImageService--><a href="ImageService.html" target="_top" title="ImageService.html" xlink:actuate="onRequest" xlink:href="ImageService.html" xlink:show="new" xlink:title="ImageService.html" xlink:type="simple"><g id="elem_com.smartbay.progettofinale.Services.ImageService"><rect codeLine="19" fill="#F1F1F1" height="107.8917" id="com.smartbay.progettofinale.Services.ImageService" rx="2.5" ry="2.5" style="stroke:#181818;stroke-width:0.5;" width="403.3265" x="18" y="12"/><ellipse cx="131.8434" cy="33.344" fill="#B4A7E5" rx="11" ry="11" style="stroke:#181818;stroke-width:1.0;"/><path d="M127.7652,29.1096 L127.7652,26.9533 L135.1559,26.9533 L135.1559,29.1096 L132.6871,29.1096 L132.6871,37.1877 L135.1559,37.1877 L135.1559,39.344 L127.7652,39.344 L127.7652,37.1877 L130.234,37.1877 L130.234,29.1096 L127.7652,29.1096 Z " fill="#000000"/><text fill="#000000" font-family="sans-serif" font-size="14" font-style="italic" lengthAdjust="spacing" textLength="82.9357" x="194.4454" y="31.9659">ImageService</text><text fill="#000000" font-family="sans-serif" font-size="10" font-style="italic" lengthAdjust="spacing" textLength="167.1398" x="152.3434" y="46.7579">com.smartbay.progettofinale.Services</text><line style="stroke:#181818;stroke-width:0.5;" x1="19" x2="420.3265" y1="54.6879" y2="54.6879"/><ellipse cx="29" cy="69.7219" fill="#84BE84" rx="3" ry="3" style="stroke:#038048;stroke-width:1.0;"/><text fill="#000000" font-family="sans-serif" font-size="14" font-style="italic" lengthAdjust="spacing" textLength="227.7511" x="38" y="73.6538">saveImageOnDB(String, Article): void</text><ellipse cx="29" cy="88.7898" fill="#84BE84" rx="3" ry="3" style="stroke:#038048;stroke-width:1.0;"/><text fill="#000000" font-family="sans-serif" font-size="14" font-style="italic" lengthAdjust="spacing" textLength="377.3265" x="38" y="92.7218">saveImageOnDisk(MultipartFile): CompletableFuture&lt;String&gt;</text><ellipse cx="29" cy="107.8577" fill="#84BE84" rx="3" ry="3" style="stroke:#038048;stroke-width:1.0;"/><text fill="#000000" font-family="sans-serif" font-size="14" font-style="italic" lengthAdjust="spacing" textLength="155.7494" x="38" y="111.7897">deleteImage(String): void</text></g></a><polygon fill="none" points="219.5,120.2796,213.5,138.2796,225.5,138.2796,219.5,120.2796" style="stroke:#181818;stroke-width:1.0;"/><path d="M219.5,138.2796 C219.5,149.9268 219.5,144.2537 219.5,155.8941 " fill="none" style="stroke:#181818;stroke-width:1.0;stroke-dasharray:7.0,7.0;"/><text fill="#888888" font-family="sans-serif" font-size="10" lengthAdjust="spacing" textLength="2.6" x="214.7" y="268.69">&#160;</text><a href="https://github.com/talsma-ict/umldoclet" target="_top" title="https://github.com/talsma-ict/umldoclet" xlink:actuate="onRequest" xlink:href="https://github.com/talsma-ict/umldoclet" xlink:show="new" xlink:title="https://github.com/talsma-ict/umldoclet" xlink:type="simple"><text fill="#888888" font-family="sans-serif" font-size="10" lengthAdjust="spacing" textLength="76.7199" x="177.64" y="282.31">UMLDoclet 2.2.1</text></a><!--SRC=[lLHDJzj04BtpAwRqq238nZO4I1GXqL0eLL0h4auXXuqziLUiTztTSIgNyj-x_cX8Kv20GtsnF3Fxtfitwm40-013dHL6n0a1QQ14MBYv6W5N4SIeq73224JAOxGmHwbLREj219vJeWteHVKLQcFGPbf5GiNmXIyvM9sR42tRseAAQl87_GUtQ-ZpeWoUwL0YGMkuioOfyFp3Tk05NPXmQLCEbyC9Qz0UpmGiO3uuR2b2LDP1vYf2KyawpNZeNgCwimTBD5PevSvu3KxPQgWLSQ4iPDoGBLlw9hcYKglF7Fy1EuBMwNZqjpQlLsdRWrEZU1x1jVwUhzfzbnaUEyMI5pedi2aILxpEMITQyTJPnKCSeoFbv9nKMc6LJqI4W6b61Im4oiXkHXrOebsuYeUIMmlR0oj-Ojy_EBaifpL6itGzNwQPl5LDoZi9TSgSZORcl62PqJ4IwOLGN29hJjXjSDDvII7R98BfT3F44ahbR0RtbTBosRLyYLNPLtNsiJKcu-vBQI49DyoTFYorY9wk5lQkTPLB4kMKpaLLFTIEnLaxbtYUKsvmK2EUF494w0fga8PkdUMXDb4eGhDmutZ6oFzYueQ1_vftp-UM30_fuPK-FdVmRPQkext8tTSxCVZ5sDjkOSqui5H8V9IyqDeDUCtAylbSP6X6GjqDjNJ_t_lZfxCtvJQHGg5ROE6TGlUtUQlAXvgkiyRNSDsgwJGXoco_qua59VcSkOOwL6sojWYfawSogbVOnZARpPhbTB7QakMcQNl7xQ0tyG_xtQF-Vezrkxw_t_M2_Lqlw7lUz5DkT8QTQvtYx3S0]--></g></svg>