<svg xmlns="http://www.w3.org/2000/svg" xmlns:xlink="http://www.w3.org/1999/xlink" contentStyleType="text/css" height="426px" preserveAspectRatio="none" style="width:609px;height:426px;background:#FFFFFF;" version="1.1" viewBox="0 0 609 426" width="609px" zoomAndPan="magnify"><defs/><g><!--class com.smartbay.progettofinale.Services.UserServiceImpl--><a href="UserServiceImpl.html" target="_top" title="UserServiceImpl.html" xlink:actuate="onRequest" xlink:href="UserServiceImpl.html" xlink:show="new" xlink:title="UserServiceImpl.html" xlink:type="simple"><g id="elem_com.smartbay.progettofinale.Services.UserServiceImpl"><rect codeLine="13" fill="#F1F1F1" height="184.1633" id="com.smartbay.progettofinale.Services.UserServiceImpl" rx="2.5" ry="2.5" style="stroke:#181818;stroke-width:0.5;" width="596.5818" x="6" y="213"/><ellipse cx="210.961" cy="234.344" fill="#ADD1B2" rx="11" ry="11" style="stroke:#181818;stroke-width:1.0;"/><path d="M213.9297,239.9846 Q213.3516,240.2815 212.711,240.4221 Q212.0704,240.5783 211.3672,240.5783 Q208.8672,240.5783 207.5391,238.9377 Q206.2266,237.2815 206.2266,234.1565 Q206.2266,231.0315 207.5391,229.3752 Q208.8672,227.719 211.3672,227.719 Q212.0704,227.719 212.711,227.8752 Q213.3672,228.0315 213.9297,228.3283 L213.9297,231.0471 Q213.3047,230.469 212.711,230.2033 Q212.1172,229.9221 211.4922,229.9221 Q210.1485,229.9221 209.461,231.0002 Q208.7735,232.0627 208.7735,234.1565 Q208.7735,236.2502 209.461,237.3283 Q210.1485,238.3908 211.4922,238.3908 Q212.1172,238.3908 212.711,238.1252 Q213.3047,237.844 213.9297,237.2658 L213.9297,239.9846 Z " fill="#000000"/><text fill="#000000" font-family="sans-serif" font-size="14" lengthAdjust="spacing" textLength="107.3796" x="266.8511" y="232.9659">UserServiceImpl</text><text fill="#000000" font-family="sans-serif" font-size="10" lengthAdjust="spacing" textLength="178.1599" x="231.461" y="247.7579">com.smartbay.progettofinale.Services</text><line style="stroke:#181818;stroke-width:0.5;" x1="7" x2="601.5818" y1="255.6879" y2="255.6879"/><ellipse cx="17" cy="270.7219" fill="#84BE84" rx="3" ry="3" style="stroke:#038048;stroke-width:1.0;"/><text fill="#000000" font-family="sans-serif" font-size="14" lengthAdjust="spacing" textLength="250.9631" x="26" y="274.6538">passwordEncoder(): PasswordEncoder</text><ellipse cx="17" cy="289.7898" fill="#84BE84" rx="3" ry="3" style="stroke:#038048;stroke-width:1.0;"/><text fill="#000000" font-family="sans-serif" font-size="14" lengthAdjust="spacing" textLength="194.3053" x="26" y="293.7218">findUserByEmail(String): User</text><ellipse cx="17" cy="308.8577" fill="#84BE84" rx="3" ry="3" style="stroke:#038048;stroke-width:1.0;"/><text fill="#000000" font-family="sans-serif" font-size="14" lengthAdjust="spacing" textLength="570.5818" x="26" y="312.7897">saveUser(UserDTO, RedirectAttributes, HttpServletRequest, HttpServletResponse): void</text><ellipse cx="17" cy="327.9256" fill="#84BE84" rx="3" ry="3" style="stroke:#038048;stroke-width:1.0;"/><text fill="#000000" font-family="sans-serif" font-size="14" lengthAdjust="spacing" textLength="200.0033" x="26" y="331.8576">dashboard(): PersonalInfoDTO</text><ellipse cx="17" cy="346.9935" fill="#84BE84" rx="3" ry="3" style="stroke:#038048;stroke-width:1.0;"/><text fill="#000000" font-family="sans-serif" font-size="14" lengthAdjust="spacing" textLength="194.6832" x="26" y="350.9255">addBalance(BigDecimal): void</text><ellipse cx="17" cy="366.0614" fill="#84BE84" rx="3" ry="3" style="stroke:#038048;stroke-width:1.0;"/><text fill="#000000" font-family="sans-serif" font-size="14" lengthAdjust="spacing" textLength="213.9612" x="26" y="369.9934">getUserInfo(Long): UserInfoDTO</text><ellipse cx="17" cy="385.1294" fill="#84BE84" rx="3" ry="3" style="stroke:#038048;stroke-width:1.0;"/><text fill="#000000" font-family="sans-serif" font-size="14" lengthAdjust="spacing" textLength="105.1676" x="26" y="389.0613">find(Long): User</text></g></a><!--class com.smartbay.progettofinale.Services.UserService--><a href="UserService.html" target="_top" title="UserService.html" xlink:actuate="onRequest" xlink:href="UserService.html" xlink:show="new" xlink:title="UserService.html" xlink:type="simple"><g id="elem_com.smartbay.progettofinale.Services.UserService"><rect codeLine="23" fill="#F1F1F1" height="165.0954" id="com.smartbay.progettofinale.Services.UserService" rx="2.5" ry="2.5" style="stroke:#181818;stroke-width:0.5;" width="553.5599" x="27.5" y="12"/><ellipse cx="216.4601" cy="33.344" fill="#B4A7E5" rx="11" ry="11" style="stroke:#181818;stroke-width:1.0;"/><path d="M212.3819,29.1096 L212.3819,26.9533 L219.7726,26.9533 L219.7726,29.1096 L217.3038,29.1096 L217.3038,37.1877 L219.7726,37.1877 L219.7726,39.344 L212.3819,39.344 L212.3819,37.1877 L214.8507,37.1877 L214.8507,29.1096 L212.3819,29.1096 Z " fill="#000000"/><text fill="#000000" font-family="sans-serif" font-size="14" font-style="italic" lengthAdjust="spacing" textLength="71.1897" x="284.9351" y="31.9659">UserService</text><text fill="#000000" font-family="sans-serif" font-size="10" font-style="italic" lengthAdjust="spacing" textLength="167.1398" x="236.9601" y="46.7579">com.smartbay.progettofinale.Services</text><line style="stroke:#181818;stroke-width:0.5;" x1="28.5" x2="580.0599" y1="54.6879" y2="54.6879"/><ellipse cx="38.5" cy="69.7219" fill="#84BE84" rx="3" ry="3" style="stroke:#038048;stroke-width:1.0;"/><text fill="#000000" font-family="sans-serif" font-size="14" font-style="italic" lengthAdjust="spacing" textLength="527.5599" x="47.5" y="73.6538">saveUser(UserDTO, RedirectAttributes, HttpServletRequest, HttpServletResponse): void</text><ellipse cx="38.5" cy="88.7898" fill="#84BE84" rx="3" ry="3" style="stroke:#038048;stroke-width:1.0;"/><text fill="#000000" font-family="sans-serif" font-size="14" font-style="italic" lengthAdjust="spacing" textLength="182.4613" x="47.5" y="92.7218">findUserByEmail(String): User</text><ellipse cx="38.5" cy="107.8577" fill="#84BE84" rx="3" ry="3" style="stroke:#038048;stroke-width:1.0;"/><text fill="#000000" font-family="sans-serif" font-size="14" font-style="italic" lengthAdjust="spacing" textLength="98.4896" x="47.5" y="111.7897">find(Long): User</text><ellipse cx="38.5" cy="126.9256" fill="#84BE84" rx="3" ry="3" style="stroke:#038048;stroke-width:1.0;"/><text fill="#000000" font-family="sans-serif" font-size="14" font-style="italic" lengthAdjust="spacing" textLength="188.6913" x="47.5" y="130.8576">dashboard(): PersonalInfoDTO</text><ellipse cx="38.5" cy="145.9935" fill="#84BE84" rx="3" ry="3" style="stroke:#038048;stroke-width:1.0;"/><text fill="#000000" font-family="sans-serif" font-size="14" font-style="italic" lengthAdjust="spacing" textLength="198.4353" x="47.5" y="149.9255">getUserInfo(Long): UserInfoDTO</text><ellipse cx="38.5" cy="165.0614" fill="#84BE84" rx="3" ry="3" style="stroke:#038048;stroke-width:1.0;"/><text fill="#000000" font-family="sans-serif" font-size="14" font-style="italic" lengthAdjust="spacing" textLength="185.2053" x="47.5" y="168.9934">addBalance(BigDecimal): void</text></g></a><polygon fill="none" points="304.5,177.0073,298.5,195.0073,310.5,195.0073,304.5,177.0073" style="stroke:#181818;stroke-width:1.0;"/><path d="M304.5,195.0073 C304.5,206.7715 304.5,200.9418 304.5,212.8788 " fill="none" style="stroke:#181818;stroke-width:1.0;stroke-dasharray:7.0,7.0;"/><text fill="#888888" font-family="sans-serif" font-size="10" lengthAdjust="spacing" textLength="2.6" x="299.7" y="401.69">&#160;</text><a href="https://github.com/talsma-ict/umldoclet" target="_top" title="https://github.com/talsma-ict/umldoclet" xlink:actuate="onRequest" xlink:href="https://github.com/talsma-ict/umldoclet" xlink:show="new" xlink:title="https://github.com/talsma-ict/umldoclet" xlink:type="simple"><text fill="#888888" font-family="sans-serif" font-size="10" lengthAdjust="spacing" textLength="76.7199" x="262.64" y="415.31">UMLDoclet 2.2.1</text></a><!--SRC=[lLLDRzf04BtdLqpJGua2nZYK41H58YHgKb4r0d8Y71Pxi5TPxxgxQo8tpN_lhA50859ffTO7aEVZpPjvurq0W0_GKrcXUPnOi0fimWtSV-a3an74A54pYn7mbCLeO8f2oTWi0X5ORXEbGStAjr1fZIPJCk8oXizipi2eN8Tel8C3A4kDVg4_CRE1FYsSyKg50YrKUaSRb0A_qQe5Vl0HHaoObC5jR-GjqTOvWHTu3I1imKEKXY1p6Q4kQNKp5j9VV-6fmXoruKfIZh_4SQs6Ibh6fO6CQMjSItU2IUkuDZogt_HEeT8TzbzpyyzARbNeQido20RgMxvgzrscMKoC1IjKRi6aQ9ba2vyXqfAbD2uMuX2fABCqIQaablw4HmYOPhQ06KSHcMqhWIMApAKz5CmOE3mt_3js6isBUuDwY7fEBT-ccNYGIuz_4QhKeobgEsM5bsaLexLgnYKJw2qpp26GEFi4UbjrO3pUidY9JSLa0iybJVSSPqJrIUdeMeQA9AeSTU3kjMaTI_KYXtXPNAUCYyhGQbejod36TPXXStIMYlkv6dsjmW0ZhZ6qNKiPqzoYgSADjPcZHlioG2UJtRAvrJL8w7F5epLwn4moLKn79LLQ7aL3k9KpHPNMKIoABXbjJ8YLInvVOKXVZDZ1eYawZYwxqbUhLdRGNEER0QNdPI4sbnRrZDRcRS7_XzYlXTuL-PbDZTKij2__M9pDGlijotR6pfItW_QIVpDXJuqtKtwxF4lf_rYdyn-UzrUVygBUkR65m8iLvvbIj7iRGhldfiXGzxbyx2b1HzZxzjlUUtSW2owHxe3mKI8TMFugycLHhhvHRrdhGOx72Is2wTJhCRT9FlMedxejBuCQ3sqzJqMqk0MsxeF9P7c-VrfTDEwmhldjMd0sQlYTaw1pqlPQxTDcizbkjOxzeEFxu-jSgmph0vNYv2S0]--></g></svg>