<svg xmlns="http://www.w3.org/2000/svg" xmlns:xlink="http://www.w3.org/1999/xlink" contentStyleType="text/css" height="330px" preserveAspectRatio="none" style="width:833px;height:330px;" version="1.1" viewBox="0 0 833 330" width="833px" zoomAndPan="magnify"><defs/><g><!--class com.smartbay.progettofinale.Security--><a href="com/smartbay/progettofinale/Security/package-summary.html" target="_top" title="com/smartbay/progettofinale/Security/package-summary.html" xlink:actuate="onRequest" xlink:href="com/smartbay/progettofinale/Security/package-summary.html" xlink:show="new" xlink:title="com/smartbay/progettofinale/Security/package-summary.html" xlink:type="simple"><g id="elem_com.smartbay.progettofinale.Security"><rect codeLine="35" fill="#F1F1F1" height="29.0679" id="com.smartbay.progettofinale.Security" rx="2.5" ry="2.5" style="stroke:#181818;stroke-width:0.5;" width="254.5551" x="457" y="142"/><text fill="#000000" font-family="sans-serif" font-size="14" lengthAdjust="spacing" textLength="248.5551" x="460" y="161.9659">com.smartbay.progettofinale.Security</text></g></a><!--class com.smartbay.progettofinale.Repositories--><a href="com/smartbay/progettofinale/Repositories/package-summary.html" target="_top" title="com/smartbay/progettofinale/Repositories/package-summary.html" xlink:actuate="onRequest" xlink:href="com/smartbay/progettofinale/Repositories/package-summary.html" xlink:show="new" xlink:title="com/smartbay/progettofinale/Repositories/package-summary.html" xlink:type="simple"><g id="elem_com.smartbay.progettofinale.Repositories"><rect codeLine="37" fill="#F1F1F1" height="29.0679" id="com.smartbay.progettofinale.Repositories" rx="2.5" ry="2.5" style="stroke:#181818;stroke-width:0.5;" width="283.535" x="418.5" y="207"/><text fill="#000000" font-family="sans-serif" font-size="14" lengthAdjust="spacing" textLength="277.535" x="421.5" y="226.9659">com.smartbay.progettofinale.Repositories</text></g></a><!--class com.smartbay.progettofinale.Models--><a href="com/smartbay/progettofinale/Models/package-summary.html" target="_top" title="com/smartbay/progettofinale/Models/package-summary.html" xlink:actuate="onRequest" xlink:href="com/smartbay/progettofinale/Models/package-summary.html" xlink:show="new" xlink:title="com/smartbay/progettofinale/Models/package-summary.html" xlink:type="simple"><g id="elem_com.smartbay.progettofinale.Models"><rect codeLine="39" fill="#F1F1F1" height="29.0679" id="com.smartbay.progettofinale.Models" rx="2.5" ry="2.5" style="stroke:#181818;stroke-width:0.5;" width="250.0051" x="350.5" y="272"/><text fill="#000000" font-family="sans-serif" font-size="14" lengthAdjust="spacing" textLength="244.0051" x="353.5" y="291.9659">com.smartbay.progettofinale.Models</text></g></a><!--class com.smartbay.progettofinale.Controllers--><a href="com/smartbay/progettofinale/Controllers/package-summary.html" target="_top" title="com/smartbay/progettofinale/Controllers/package-summary.html" xlink:actuate="onRequest" xlink:href="com/smartbay/progettofinale/Controllers/package-summary.html" xlink:show="new" xlink:title="com/smartbay/progettofinale/Controllers/package-summary.html" xlink:type="simple"><g id="elem_com.smartbay.progettofinale.Controllers"><rect codeLine="41" fill="#F1F1F1" height="29.0679" id="com.smartbay.progettofinale.Controllers" rx="2.5" ry="2.5" style="stroke:#181818;stroke-width:0.5;" width="274.897" x="6" y="12"/><text fill="#000000" font-family="sans-serif" font-size="14" lengthAdjust="spacing" textLength="268.897" x="9" y="31.9659">com.smartbay.progettofinale.Controllers</text></g></a><!--class com.smartbay.progettofinale.Services--><a href="com/smartbay/progettofinale/Services/package-summary.html" target="_top" title="com/smartbay/progettofinale/Services/package-summary.html" xlink:actuate="onRequest" xlink:href="com/smartbay/progettofinale/Services/package-summary.html" xlink:show="new" xlink:title="com/smartbay/progettofinale/Services/package-summary.html" xlink:type="simple"><g id="elem_com.smartbay.progettofinale.Services"><rect codeLine="43" fill="#F1F1F1" height="29.0679" id="com.smartbay.progettofinale.Services" rx="2.5" ry="2.5" style="stroke:#181818;stroke-width:0.5;" width="255.4231" x="275" y="77"/><text fill="#000000" font-family="sans-serif" font-size="14" lengthAdjust="spacing" textLength="249.4231" x="278" y="96.9659">com.smartbay.progettofinale.Services</text></g></a><!--class com.smartbay.progettofinale.DTO--><a href="com/smartbay/progettofinale/DTO/package-summary.html" target="_top" title="com/smartbay/progettofinale/DTO/package-summary.html" xlink:actuate="onRequest" xlink:href="com/smartbay/progettofinale/DTO/package-summary.html" xlink:show="new" xlink:title="com/smartbay/progettofinale/DTO/package-summary.html" xlink:type="simple"><g id="elem_com.smartbay.progettofinale.DTO"><rect codeLine="45" fill="#F1F1F1" height="29.0679" id="com.smartbay.progettofinale.DTO" rx="2.5" ry="2.5" style="stroke:#181818;stroke-width:0.5;" width="230.9512" x="131" y="142"/><text fill="#000000" font-family="sans-serif" font-size="14" lengthAdjust="spacing" textLength="224.9512" x="134" y="161.9659">com.smartbay.progettofinale.DTO</text></g></a><!--class com.smartbay.progettofinale.Global--><a href="com/smartbay/progettofinale/Global/package-summary.html" target="_top" title="com/smartbay/progettofinale/Global/package-summary.html" xlink:actuate="onRequest" xlink:href="com/smartbay/progettofinale/Global/package-summary.html" xlink:show="new" xlink:title="com/smartbay/progettofinale/Global/package-summary.html" xlink:type="simple"><g id="elem_com.smartbay.progettofinale.Global"><rect codeLine="47" fill="#F1F1F1" height="29.0679" id="com.smartbay.progettofinale.Global" rx="2.5" ry="2.5" style="stroke:#181818;stroke-width:0.5;" width="244.3631" x="299.5" y="12"/><text fill="#000000" font-family="sans-serif" font-size="14" lengthAdjust="spacing" textLength="238.3631" x="302.5" y="31.9659">com.smartbay.progettofinale.Global</text></g></a><!--class com.smartbay.progettofinale.Config--><a href="com/smartbay/progettofinale/Config/package-summary.html" target="_top" title="com/smartbay/progettofinale/Config/package-summary.html" xlink:actuate="onRequest" xlink:href="com/smartbay/progettofinale/Config/package-summary.html" xlink:show="new" xlink:title="com/smartbay/progettofinale/Config/package-summary.html" xlink:type="simple"><g id="elem_com.smartbay.progettofinale.Config"><rect codeLine="49" fill="#F1F1F1" height="29.0679" id="com.smartbay.progettofinale.Config" rx="2.5" ry="2.5" style="stroke:#181818;stroke-width:0.5;" width="245.0211" x="581" y="12"/><text fill="#000000" font-family="sans-serif" font-size="14" lengthAdjust="spacing" textLength="239.0211" x="584" y="31.9659">com.smartbay.progettofinale.Config</text></g></a><polygon fill="#181818" points="565.6975,206.8566,572.6394,199.8702,567.4775,202.1842,565.1635,197.0222,565.6975,206.8566" style="stroke:#181818;stroke-width:1.0;"/><path d="M579.2924,171.1701 C575.2668,181.7373 571.8565,190.6892 567.8335,201.2497 " fill="none" style="stroke:#181818;stroke-width:1.0;"/><polygon fill="#181818" points="600.5132,273.558,610.0159,276.1465,605.4554,272.7995,608.8023,268.239,600.5132,273.558" style="stroke:#181818;stroke-width:1.0;"/><path d="M643.9584,171.0778 C687.8751,183.9087 736.0909,205.7162 711.5,236 C696.6229,254.3212 655.0022,265.1958 606.4438,272.6478 " fill="none" style="stroke:#181818;stroke-width:1.0;"/><polygon fill="#181818" points="346.5836,76.8987,338.784,70.8849,341.7253,75.717,336.8932,78.6582,346.5836,76.8987" style="stroke:#181818;stroke-width:1.0;"/><path d="M199.062,41.0151 C242.613,51.6086 297.112,64.8651 340.7536,75.4806 " fill="none" style="stroke:#181818;stroke-width:1.0;"/><polygon fill="#181818" points="418.3767,213.7963,409.6305,209.268,413.3855,213.4988,409.1547,217.2538,418.3767,213.7963" style="stroke:#181818;stroke-width:1.0;"/><path d="M135.0166,41.3826 C118.9665,69.6159 88.5837,134.1636 121.5,171 C141.2873,193.1439 291.818,206.2547 412.3873,213.4394 " fill="none" style="stroke:#181818;stroke-width:1.0;"/><polygon fill="#181818" points="235.5565,141.9003,233.0305,132.3808,232.4219,138.0048,226.7978,137.3962,235.5565,141.9003" style="stroke:#181818;stroke-width:1.0;"/><path d="M154.5228,41.1982 C174.3474,65.8346 212.0281,112.6612 231.7949,137.2257 " fill="none" style="stroke:#181818;stroke-width:1.0;"/><polygon fill="#181818" points="394.7098,271.992,386.5925,266.4144,389.794,271.0781,385.1304,274.2797,394.7098,271.992" style="stroke:#181818;stroke-width:1.0;"/><path d="M129.0874,41.1697 C120.4614,50.37 110.2736,63.2897 105.5,77 C91.762,116.4569 79.6927,137.3819 104.5,171 C139.1206,217.9167 290.4787,252.6158 388.8109,270.8954 " fill="none" style="stroke:#181818;stroke-width:1.0;"/><polygon fill="#181818" points="580.6318,141.7752,581.6563,131.9798,579.0874,137.0197,574.0475,134.4508,580.6318,141.7752" style="stroke:#181818;stroke-width:1.0;"/><path d="M273.4129,41.0076 C384.1836,52.959 527.2921,69.6135 538.5,77 C561.7131,92.2984 572.8971,117.9584 578.7785,136.0686 " fill="none" style="stroke:#181818;stroke-width:1.0;"/><polygon fill="#181818" points="547.7347,236.1701,538.2449,238.8052,543.8756,239.3492,543.3316,244.9799,547.7347,236.1701" style="stroke:#181818;stroke-width:1.0;"/><path d="M499.5825,271.8566 C515.2632,261.2961 530.2764,250.5523 543.1037,239.9851 " fill="none" style="stroke:#181818;stroke-width:1.0;"/><polygon fill="#181818" points="406.6147,76.8566,413.043,69.3949,408.0584,72.0696,405.3837,67.085,406.6147,76.8566" style="stroke:#181818;stroke-width:1.0;"/><path d="M417.3773,41.1701 C414.1903,51.7373 411.532,60.5517 408.3471,71.1122 " fill="none" style="stroke:#181818;stroke-width:1.0;"/><polygon fill="#181818" points="586.3956,141.8344,591.2037,133.2389,586.8539,136.8555,583.2374,132.5057,586.3956,141.8344" style="stroke:#181818;stroke-width:1.0;"/><path d="M515.6808,41.0955 C537.1294,48.4576 557.8771,59.7394 572.5,77 C587.9174,95.1984 588.5273,118.6752 586.9456,135.8597 " fill="none" style="stroke:#181818;stroke-width:1.0;"/><polygon fill="#181818" points="245.9776,141.9896,250.0218,133.0093,246.0022,136.9896,242.0219,132.97,245.9776,141.9896" style="stroke:#181818;stroke-width:1.0;"/><path d="M326.5038,41.0014 C303.9032,48.3497 281.6811,59.6483 265.5,77 C248.8602,94.8435 246.0921,118.6961 246.0071,135.9897 " fill="none" style="stroke:#181818;stroke-width:1.0;"/><polygon fill="#181818" points="488.2329,271.8566,497.7224,269.2202,492.0917,268.677,492.6349,263.0463,488.2329,271.8566" style="stroke:#181818;stroke-width:1.0;"/><path d="M536.3778,236.1701 C520.6905,246.7373 505.6793,257.4805 492.8634,268.041 " fill="none" style="stroke:#181818;stroke-width:1.0;"/><polygon fill="#181818" points="446.5944,271.7991,440.2308,264.2821,442.0923,269.6239,436.7505,271.4854,446.5944,271.7991" style="stroke:#181818;stroke-width:1.0;"/><path d="M267.815,171.0885 C293.318,187.1784 337.4715,214.5037 376.5,236 C399.7281,248.7937 421.2792,259.5681 441.1919,269.1889 " fill="none" style="stroke:#181818;stroke-width:1.0;"/><polygon fill="#181818" points="512.1022,206.9671,505.0095,200.1338,507.4028,205.2594,502.2772,207.6527,512.1022,206.9671" style="stroke:#181818;stroke-width:1.0;"/><path d="M407.2463,106.1792 C413.8363,123.3782 427.2774,152.8449 447.5,171 C465.828,187.4542 484.8534,197.0651 506.463,204.9179 " fill="none" style="stroke:#181818;stroke-width:1.0;"/><polygon fill="#181818" points="447.2561,271.9006,441.5723,263.8573,442.9608,269.3411,437.4771,270.7296,447.2561,271.9006" style="stroke:#181818;stroke-width:1.0;"/><path d="M399.5405,106.1531 C394.4903,132.8885 386.8115,193.2597 409.5,236 C417.7603,251.5606 428.1648,260.5241 442.1018,268.8292 " fill="none" style="stroke:#181818;stroke-width:1.0;"/><polygon fill="#181818" points="280.1794,141.8987,290.0224,142.2375,284.8156,140.0264,287.0267,134.8196,280.1794,141.8987" style="stroke:#181818;stroke-width:1.0;"/><path d="M369.0341,106.0151 C342.8026,116.6086 312.0289,129.0364 285.7428,139.6519 " fill="none" style="stroke:#181818;stroke-width:1.0;"/><polygon fill="#181818" points="545.2074,141.8987,538.011,135.1748,540.4825,140.2632,535.3941,142.7347,545.2074,141.8987" style="stroke:#181818;stroke-width:1.0;"/><path d="M441.5436,106.0151 C472.147,116.6086 508.8704,129.3205 539.5375,139.9361 " fill="none" style="stroke:#181818;stroke-width:1.0;"/><polygon fill="#181818" points="467.2244,76.953,476.853,79.0244,472.1184,75.9287,475.2141,71.1941,467.2244,76.953" style="stroke:#181818;stroke-width:1.0;"/><path d="M638.9279,41.0151 C588.2283,51.6266 523.836,65.1041 473.0971,75.7239 " fill="none" style="stroke:#181818;stroke-width:1.0;"/><polygon fill="#181818" points="669.5774,206.969,679.4103,207.5298,674.2547,205.2018,676.5828,200.0462,669.5774,206.969" style="stroke:#181818;stroke-width:1.0;"/><path d="M710.8811,41.3534 C724.4726,68.9752 749.5335,131.6266 720.5,171 C707.9027,188.0837 695.0923,197.3287 675.1902,204.8483 " fill="none" style="stroke:#181818;stroke-width:1.0;"/><text fill="#888888" font-family="sans-serif" font-size="10" lengthAdjust="spacing" textLength="2.6" x="411.2" y="305.69">&#160;</text><a href="https://github.com/talsma-ict/umldoclet" target="_top" title="https://github.com/talsma-ict/umldoclet" xlink:actuate="onRequest" xlink:href="https://github.com/talsma-ict/umldoclet" xlink:show="new" xlink:title="https://github.com/talsma-ict/umldoclet" xlink:type="simple"><text fill="#888888" font-family="sans-serif" font-size="10" lengthAdjust="spacing" textLength="76.7199" x="374.14" y="319.31">UMLDoclet 2.2.1</text></a><!--SRC=[jLTTJzim57tdLzonXp6D9cdvA5G82PM9RIeQekMfwuERt2PM7Jkp7QO8xR_l9cbBGDCI92ylQUpZS-w7VNqB0F01nYehD8yJ2rQ1JRY1Xzi9C1b1Z18rinW1JrcC1fOeb8nD3KHWkKsK1hMglaAbDPfCoOZB6BwnHmP6vJf4u-tjGIKrsxB_OgR1lYpAmMiL2hHmCFxOC6aGz4zxWs1m0ZCcJChWwtZcRTYUrmoyWTS7uXOyH6c8CfSHwigiguo5z9hKCuVmYDfm9MbDiE4fNGsLj8nB0ndJrfGktGacRMbhtoFzOsy81rVJoKlRWlFAjaEuqfBb4Tohd_dEtNUPPZ5PB5YXSWicHSiagwRCcaiIOYaiMRYEjI9pGoKebbOpQMWAfQsHv9raASMLXJZ5Sf4bc5GIg_c4HnHvhYaCpz-OPhQ05KSHcTUZP4MYQBWQ3rNgKL2rNRB2oxIAqLgruf89zAOOvfhJYbxlyf_0UyoKuMGLH-EEzLP5ADhvnfGthOIWfBPIJb4_qYvmI_ecxzz2V3txxfJllmIqJcOhQQtjDfOtGYsPS9VqpdmTVUx8roNDpRYuoZFfkgBQXjXrfUZ8wjhABXdfJDPvkz2vM_7OQGthmlSY9Plxy8xk9BhkwJALwusGOCR0VXT7zs4-9vo_nValSVuMvsUrIi_aAK4BBx6fM2pWgHBytLMsQN-RT1FhIBxUUst2DSgHPAD0j-ase8x4jzklFSirpf4i7SasHO8u4giBTvjUZNANKpgi7T99g3R9wdLXR27milfTFYkbBFN3Jxk1ylbIPAWdTCZ7LUlv_kplimzbAqsr0Abx3zSIoPbWXwnTlF0RUXkj7t8-JwpDpCZtOswJVEcLpjcgZU_nqFfvAgAwVt_LoIyMcqfqi_kBKBRPlU2iDpYVzKz79yFHqRat70P7mzFZa-6dO30AWlddNAkCZhbASV47]--></g></svg>