<svg xmlns="http://www.w3.org/2000/svg" xmlns:xlink="http://www.w3.org/1999/xlink" contentStyleType="text/css" height="734px" preserveAspectRatio="none" style="width:1847px;height:734px;background:#FFFFFF;" version="1.1" viewBox="0 0 1847 734" width="1847px" zoomAndPan="magnify"><defs/><g><!--cluster com.smartbay.progettofinale.Controllers--><g id="cluster_com.smartbay.progettofinale.Controllers"><path d="M16.5,4 L305.6889,4 A3.75,3.75 0 0 1 308.1889,6.5 L315.1889,29.0679 L1837.5,29.0679 A2.5,2.5 0 0 1 1840,31.5679 L1840,694.5 A2.5,2.5 0 0 1 1837.5,697 L16.5,697 A2.5,2.5 0 0 1 14,694.5 L14,6.5 A2.5,2.5 0 0 1 16.5,4 " fill="none" style="stroke:#000000;stroke-width:1.5;"/><line style="stroke:#000000;stroke-width:1.5;" x1="14" x2="315.1889" y1="29.0679" y2="29.0679"/><text fill="#000000" font-family="sans-serif" font-size="14" font-weight="bold" lengthAdjust="spacing" textLength="288.1889" x="18" y="20.9659">com.smartbay.progettofinale.Controllers</text></g><!--class UserController--><a href="UserController.html" target="_top" title="UserController.html" xlink:actuate="onRequest" xlink:href="UserController.html" xlink:show="new" xlink:title="UserController.html" xlink:type="simple"><g id="elem_UserController"><rect codeLine="12" fill="#F1F1F1" height="257.7471" id="UserController" rx="2.5" ry="2.5" style="stroke:#181818;stroke-width:0.5;" width="772.6174" x="22.5" y="34"/><ellipse cx="356.1609" cy="50" fill="#ADD1B2" rx="11" ry="11" style="stroke:#181818;stroke-width:1.0;"/><path d="M359.1296,55.6406 Q358.5515,55.9375 357.9109,56.0781 Q357.2702,56.2344 356.5671,56.2344 Q354.0671,56.2344 352.739,54.5938 Q351.4265,52.9375 351.4265,49.8125 Q351.4265,46.6875 352.739,45.0313 Q354.0671,43.375 356.5671,43.375 Q357.2702,43.375 357.9109,43.5313 Q358.5671,43.6875 359.1296,43.9844 L359.1296,46.7031 Q358.5046,46.125 357.9109,45.8594 Q357.3171,45.5781 356.6921,45.5781 Q355.3484,45.5781 354.6609,46.6563 Q353.9734,47.7188 353.9734,49.8125 Q353.9734,51.9063 354.6609,52.9844 Q355.3484,54.0469 356.6921,54.0469 Q357.3171,54.0469 357.9109,53.7813 Q358.5046,53.5 359.1296,52.9219 L359.1296,55.6406 Z " fill="#000000"/><text fill="#000000" font-family="sans-serif" font-size="14" lengthAdjust="spacing" textLength="96.7956" x="376.6609" y="55.432">UserController</text><line style="stroke:#181818;stroke-width:0.5;" x1="23.5" x2="794.1174" y1="66" y2="66"/><line style="stroke:#181818;stroke-width:0.5;" x1="23.5" x2="794.1174" y1="74" y2="74"/><ellipse cx="33.5" cy="89.034" fill="#84BE84" rx="3" ry="3" style="stroke:#038048;stroke-width:1.0;"/><text fill="#000000" font-family="sans-serif" font-size="14" lengthAdjust="spacing" textLength="134.5815" x="42.5" y="92.9659">home(Model): String</text><ellipse cx="33.5" cy="108.1019" fill="#84BE84" rx="3" ry="3" style="stroke:#038048;stroke-width:1.0;"/><text fill="#000000" font-family="sans-serif" font-size="14" lengthAdjust="spacing" textLength="215.7952" x="42.5" y="112.0339">getUserInfo(Long, Model): String</text><ellipse cx="33.5" cy="127.1698" fill="#84BE84" rx="3" ry="3" style="stroke:#038048;stroke-width:1.0;"/><text fill="#000000" font-family="sans-serif" font-size="14" lengthAdjust="spacing" textLength="167.6214" x="42.5" y="131.1018">dashboard(Model): String</text><ellipse cx="33.5" cy="146.2377" fill="#84BE84" rx="3" ry="3" style="stroke:#038048;stroke-width:1.0;"/><text fill="#000000" font-family="sans-serif" font-size="14" lengthAdjust="spacing" textLength="381.9886" x="42.5" y="150.1697">addBalance(BigDecimal, Model, RedirectAttributes): String</text><ellipse cx="33.5" cy="165.3056" fill="#84BE84" rx="3" ry="3" style="stroke:#038048;stroke-width:1.0;"/><text fill="#000000" font-family="sans-serif" font-size="14" lengthAdjust="spacing" textLength="147.8114" x="42.5" y="169.2376">register(Model): String</text><ellipse cx="33.5" cy="184.3735" fill="#84BE84" rx="3" ry="3" style="stroke:#038048;stroke-width:1.0;"/><text fill="#000000" font-family="sans-serif" font-size="14" lengthAdjust="spacing" textLength="88.1437" x="42.5" y="188.3055">login(): String</text><ellipse cx="33.5" cy="203.4415" fill="#84BE84" rx="3" ry="3" style="stroke:#038048;stroke-width:1.0;"/><text fill="#000000" font-family="sans-serif" font-size="14" lengthAdjust="spacing" textLength="746.6174" x="42.5" y="207.3734">registration(UserDTO, BindingResult, Model, RedirectAttributes, HttpServletRequest, HttpServletResponse): String</text><ellipse cx="33.5" cy="222.5094" fill="#84BE84" rx="3" ry="3" style="stroke:#038048;stroke-width:1.0;"/><text fill="#000000" font-family="sans-serif" font-size="14" lengthAdjust="spacing" textLength="258.887" x="42.5" y="226.4414">userArticlesSearch(Long, Model): String</text><ellipse cx="33.5" cy="241.5773" fill="#84BE84" rx="3" ry="3" style="stroke:#038048;stroke-width:1.0;"/><text fill="#000000" font-family="sans-serif" font-size="14" lengthAdjust="spacing" textLength="211.0492" x="42.5" y="245.5093">adminDashboard(Model): String</text><ellipse cx="33.5" cy="260.6452" fill="#84BE84" rx="3" ry="3" style="stroke:#038048;stroke-width:1.0;"/><text fill="#000000" font-family="sans-serif" font-size="14" lengthAdjust="spacing" textLength="214.5912" x="42.5" y="264.5772">revisorDashboard(Model): String</text><ellipse cx="33.5" cy="279.7131" fill="#84BE84" rx="3" ry="3" style="stroke:#038048;stroke-width:1.0;"/><text fill="#000000" font-family="sans-serif" font-size="14" lengthAdjust="spacing" textLength="272.677" x="42.5" y="283.6451">writerDashboard(Model, Principal): String</text></g></a><!--class CategoryController--><a href="CategoryController.html" target="_top" title="CategoryController.html" xlink:actuate="onRequest" xlink:href="CategoryController.html" xlink:show="new" xlink:title="CategoryController.html" xlink:type="simple"><g id="elem_CategoryController"><rect codeLine="26" fill="#F1F1F1" height="162.4075" id="CategoryController" rx="2.5" ry="2.5" style="stroke:#181818;stroke-width:0.5;" width="561.6661" x="814" y="82"/><ellipse cx="1027.6673" cy="98" fill="#ADD1B2" rx="11" ry="11" style="stroke:#181818;stroke-width:1.0;"/><path d="M1030.636,103.6406 Q1030.0579,103.9375 1029.4173,104.0781 Q1028.7766,104.2344 1028.0735,104.2344 Q1025.5735,104.2344 1024.2454,102.5938 Q1022.9329,100.9375 1022.9329,97.8125 Q1022.9329,94.6875 1024.2454,93.0313 Q1025.5735,91.375 1028.0735,91.375 Q1028.7766,91.375 1029.4173,91.5313 Q1030.0735,91.6875 1030.636,91.9844 L1030.636,94.7031 Q1030.011,94.125 1029.4173,93.8594 Q1028.8235,93.5781 1028.1985,93.5781 Q1026.8548,93.5781 1026.1673,94.6563 Q1025.4798,95.7188 1025.4798,97.8125 Q1025.4798,99.9063 1026.1673,100.9844 Q1026.8548,102.0469 1028.1985,102.0469 Q1028.8235,102.0469 1029.4173,101.7813 Q1030.011,101.5 1030.636,100.9219 L1030.636,103.6406 Z " fill="#000000"/><text fill="#000000" font-family="sans-serif" font-size="14" lengthAdjust="spacing" textLength="125.8315" x="1048.1673" y="103.432">CategoryController</text><line style="stroke:#181818;stroke-width:0.5;" x1="815" x2="1374.6661" y1="114" y2="114"/><line style="stroke:#181818;stroke-width:0.5;" x1="815" x2="1374.6661" y1="122" y2="122"/><ellipse cx="825" cy="137.034" fill="#84BE84" rx="3" ry="3" style="stroke:#038048;stroke-width:1.0;"/><text fill="#000000" font-family="sans-serif" font-size="14" lengthAdjust="spacing" textLength="239.0491" x="834" y="140.9659">categorySearch(Long, Model): String</text><ellipse cx="825" cy="156.1019" fill="#84BE84" rx="3" ry="3" style="stroke:#038048;stroke-width:1.0;"/><text fill="#000000" font-family="sans-serif" font-size="14" lengthAdjust="spacing" textLength="197.3293" x="834" y="160.0339">categoryCreate(Model): String</text><ellipse cx="825" cy="175.1698" fill="#84BE84" rx="3" ry="3" style="stroke:#038048;stroke-width:1.0;"/><text fill="#000000" font-family="sans-serif" font-size="14" lengthAdjust="spacing" textLength="481.8363" x="834" y="179.1018">categoryStore(Category, BindingResult, RedirectAttributes, Model): String</text><ellipse cx="825" cy="194.2377" fill="#84BE84" rx="3" ry="3" style="stroke:#038048;stroke-width:1.0;"/><text fill="#000000" font-family="sans-serif" font-size="14" lengthAdjust="spacing" textLength="219.5192" x="834" y="198.1697">categoryEdit(Long, Model): String</text><ellipse cx="825" cy="213.3056" fill="#84BE84" rx="3" ry="3" style="stroke:#038048;stroke-width:1.0;"/><text fill="#000000" font-family="sans-serif" font-size="14" lengthAdjust="spacing" textLength="535.6661" x="834" y="217.2376">categoryUpdate(Long, Category, BindingResult, RedirectAttributes, Model): String</text><ellipse cx="825" cy="232.3735" fill="#84BE84" rx="3" ry="3" style="stroke:#038048;stroke-width:1.0;"/><text fill="#000000" font-family="sans-serif" font-size="14" lengthAdjust="spacing" textLength="315.3909" x="834" y="236.3055">categoryDelete(Long, RedirectAttributes): String</text></g></a><!--class CarrelloController--><a href="CarrelloController.html" target="_top" title="CarrelloController.html" xlink:actuate="onRequest" xlink:href="CarrelloController.html" xlink:show="new" xlink:title="CarrelloController.html" xlink:type="simple"><g id="elem_CarrelloController"><rect codeLine="35" fill="#F1F1F1" height="238.6792" id="CarrelloController" rx="2.5" ry="2.5" style="stroke:#181818;stroke-width:0.5;" width="437.1226" x="1394.5" y="43.5"/><ellipse cx="1549.7945" cy="59.5" fill="#ADD1B2" rx="11" ry="11" style="stroke:#181818;stroke-width:1.0;"/><path d="M1552.7633,65.1406 Q1552.1852,65.4375 1551.5445,65.5781 Q1550.9039,65.7344 1550.2008,65.7344 Q1547.7008,65.7344 1546.3727,64.0938 Q1545.0602,62.4375 1545.0602,59.3125 Q1545.0602,56.1875 1546.3727,54.5313 Q1547.7008,52.875 1550.2008,52.875 Q1550.9039,52.875 1551.5445,53.0313 Q1552.2008,53.1875 1552.7633,53.4844 L1552.7633,56.2031 Q1552.1383,55.625 1551.5445,55.3594 Q1550.9508,55.0781 1550.3258,55.0781 Q1548.982,55.0781 1548.2945,56.1563 Q1547.607,57.2188 1547.607,59.3125 Q1547.607,61.4063 1548.2945,62.4844 Q1548.982,63.5469 1550.3258,63.5469 Q1550.9508,63.5469 1551.5445,63.2813 Q1552.1383,63 1552.7633,62.4219 L1552.7633,65.1406 Z " fill="#000000"/><text fill="#000000" font-family="sans-serif" font-size="14" lengthAdjust="spacing" textLength="118.0336" x="1570.2945" y="64.932">CarrelloController</text><line style="stroke:#181818;stroke-width:0.5;" x1="1395.5" x2="1830.6226" y1="75.5" y2="75.5"/><line style="stroke:#181818;stroke-width:0.5;" x1="1395.5" x2="1830.6226" y1="83.5" y2="83.5"/><ellipse cx="1405.5" cy="98.534" fill="#84BE84" rx="3" ry="3" style="stroke:#038048;stroke-width:1.0;"/><text fill="#000000" font-family="sans-serif" font-size="14" lengthAdjust="spacing" textLength="331.6307" x="1414.5" y="102.4659">CarrelloController(SecurityService, CarrelloService)</text><ellipse cx="1405.5" cy="117.6019" fill="#84BE84" rx="3" ry="3" style="stroke:#038048;stroke-width:1.0;"/><text fill="#000000" font-family="sans-serif" font-size="14" lengthAdjust="spacing" textLength="169.8894" x="1414.5" y="121.5339">getCarrello(Model): String</text><ellipse cx="1405.5" cy="136.6698" fill="#84BE84" rx="3" ry="3" style="stroke:#038048;stroke-width:1.0;"/><text fill="#000000" font-family="sans-serif" font-size="14" lengthAdjust="spacing" textLength="332.9748" x="1414.5" y="140.6018">aggiungiUnArticolo(Long): ResponseEntity&lt;String&gt;</text><ellipse cx="1405.5" cy="155.7377" fill="#84BE84" rx="3" ry="3" style="stroke:#038048;stroke-width:1.0;"/><text fill="#000000" font-family="sans-serif" font-size="14" lengthAdjust="spacing" textLength="398.8866" x="1414.5" y="159.6697">aggiornaQuantitaCarrello(Long, int): ResponseEntity&lt;String&gt;</text><ellipse cx="1405.5" cy="174.8056" fill="#84BE84" rx="3" ry="3" style="stroke:#038048;stroke-width:1.0;"/><text fill="#000000" font-family="sans-serif" font-size="14" lengthAdjust="spacing" textLength="237.7051" x="1414.5" y="178.7376">aggiungiUnoDaArticoli(Long): String</text><ellipse cx="1405.5" cy="193.8735" fill="#84BE84" rx="3" ry="3" style="stroke:#038048;stroke-width:1.0;"/><text fill="#000000" font-family="sans-serif" font-size="14" lengthAdjust="spacing" textLength="411.1226" x="1414.5" y="197.8055">addArticleFromDropdown(Long, int, RedirectAttributes): String</text><ellipse cx="1405.5" cy="212.9415" fill="#84BE84" rx="3" ry="3" style="stroke:#038048;stroke-width:1.0;"/><text fill="#000000" font-family="sans-serif" font-size="14" lengthAdjust="spacing" textLength="386.2166" x="1414.5" y="216.8734">rimuoviArticoloDaCarrello(Long, RedirectAttributes): String</text><ellipse cx="1405.5" cy="232.0094" fill="#84BE84" rx="3" ry="3" style="stroke:#038048;stroke-width:1.0;"/><text fill="#000000" font-family="sans-serif" font-size="14" lengthAdjust="spacing" textLength="362.9067" x="1414.5" y="235.9414">rimuoviUnoDaCarrello(Long, RedirectAttributes): String</text><ellipse cx="1405.5" cy="251.0773" fill="#84BE84" rx="3" ry="3" style="stroke:#038048;stroke-width:1.0;"/><text fill="#000000" font-family="sans-serif" font-size="14" lengthAdjust="spacing" textLength="370.7887" x="1414.5" y="255.0093">aggiungiUnoDaCarrello(Long, RedirectAttributes): String</text><ellipse cx="1405.5" cy="270.1452" fill="#84BE84" rx="3" ry="3" style="stroke:#038048;stroke-width:1.0;"/><text fill="#000000" font-family="sans-serif" font-size="14" lengthAdjust="spacing" textLength="270.535" x="1414.5" y="274.0772">svuotaCarrello(RedirectAttributes): String</text></g></a><!--class OrdineController--><a href="OrdineController.html" target="_top" title="OrdineController.html" xlink:actuate="onRequest" xlink:href="OrdineController.html" xlink:show="new" xlink:title="OrdineController.html" xlink:type="simple"><g id="elem_OrdineController"><rect codeLine="48" fill="#F1F1F1" height="105.2038" id="OrdineController" rx="2.5" ry="2.5" style="stroke:#181818;stroke-width:0.5;" width="379.4427" x="219.5" y="404.5"/><ellipse cx="349.1395" cy="420.5" fill="#ADD1B2" rx="11" ry="11" style="stroke:#181818;stroke-width:1.0;"/><path d="M352.1083,426.1406 Q351.5302,426.4375 350.8895,426.5781 Q350.2489,426.7344 349.5458,426.7344 Q347.0458,426.7344 345.7177,425.0938 Q344.4052,423.4375 344.4052,420.3125 Q344.4052,417.1875 345.7177,415.5313 Q347.0458,413.875 349.5458,413.875 Q350.2489,413.875 350.8895,414.0313 Q351.5458,414.1875 352.1083,414.4844 L352.1083,417.2031 Q351.4833,416.625 350.8895,416.3594 Q350.2958,416.0781 349.6708,416.0781 Q348.327,416.0781 347.6395,417.1563 Q346.952,418.2188 346.952,420.3125 Q346.952,422.4063 347.6395,423.4844 Q348.327,424.5469 349.6708,424.5469 Q350.2958,424.5469 350.8895,424.2813 Q351.4833,424 352.1083,423.4219 L352.1083,426.1406 Z " fill="#000000"/><text fill="#000000" font-family="sans-serif" font-size="14" lengthAdjust="spacing" textLength="111.6636" x="369.6395" y="425.932">OrdineController</text><line style="stroke:#181818;stroke-width:0.5;" x1="220.5" x2="597.9427" y1="436.5" y2="436.5"/><line style="stroke:#181818;stroke-width:0.5;" x1="220.5" x2="597.9427" y1="444.5" y2="444.5"/><ellipse cx="230.5" cy="459.534" fill="#84BE84" rx="3" ry="3" style="stroke:#038048;stroke-width:1.0;"/><text fill="#000000" font-family="sans-serif" font-size="14" lengthAdjust="spacing" textLength="318.8907" x="239.5" y="463.4659">OrdineController(OrdineService, SecurityService)</text><ellipse cx="230.5" cy="478.6019" fill="#84BE84" rx="3" ry="3" style="stroke:#038048;stroke-width:1.0;"/><text fill="#000000" font-family="sans-serif" font-size="14" lengthAdjust="spacing" textLength="342.6067" x="239.5" y="482.5339">confermaOrdine(RedirectAttributes): ModelAndView</text><ellipse cx="230.5" cy="497.6698" fill="#84BE84" rx="3" ry="3" style="stroke:#038048;stroke-width:1.0;"/><text fill="#000000" font-family="sans-serif" font-size="14" lengthAdjust="spacing" textLength="353.4427" x="239.5" y="501.6018">getOrdiniUtente(): ResponseEntity&lt;List&lt;OrdineDTO&gt;&gt;</text></g></a><!--class ArticleController--><a href="ArticleController.html" target="_top" title="ArticleController.html" xlink:actuate="onRequest" xlink:href="ArticleController.html" xlink:show="new" xlink:title="ArticleController.html" xlink:type="simple"><g id="elem_ArticleController"><rect codeLine="54" fill="#F1F1F1" height="257.7471" id="ArticleController" rx="2.5" ry="2.5" style="stroke:#181818;stroke-width:0.5;" width="690.8718" x="616.5" y="328"/><ellipse cx="903.7861" cy="344" fill="#ADD1B2" rx="11" ry="11" style="stroke:#181818;stroke-width:1.0;"/><path d="M906.7548,349.6406 Q906.1767,349.9375 905.5361,350.0781 Q904.8955,350.2344 904.1923,350.2344 Q901.6923,350.2344 900.3642,348.5938 Q899.0517,346.9375 899.0517,343.8125 Q899.0517,340.6875 900.3642,339.0313 Q901.6923,337.375 904.1923,337.375 Q904.8955,337.375 905.5361,337.5313 Q906.1923,337.6875 906.7548,337.9844 L906.7548,340.7031 Q906.1298,340.125 905.5361,339.8594 Q904.9423,339.5781 904.3173,339.5781 Q902.9736,339.5781 902.2861,340.6563 Q901.5986,341.7188 901.5986,343.8125 Q901.5986,345.9063 902.2861,346.9844 Q902.9736,348.0469 904.3173,348.0469 Q904.9423,348.0469 905.5361,347.7813 Q906.1298,347.5 906.7548,346.9219 L906.7548,349.6406 Z " fill="#000000"/><text fill="#000000" font-family="sans-serif" font-size="14" lengthAdjust="spacing" textLength="107.7996" x="924.2861" y="349.432">ArticleController</text><line style="stroke:#181818;stroke-width:0.5;" x1="617.5" x2="1306.3718" y1="360" y2="360"/><line style="stroke:#181818;stroke-width:0.5;" x1="617.5" x2="1306.3718" y1="368" y2="368"/><ellipse cx="627.5" cy="383.034" fill="#84BE84" rx="3" ry="3" style="stroke:#038048;stroke-width:1.0;"/><text fill="#000000" font-family="sans-serif" font-size="14" lengthAdjust="spacing" textLength="181.0193" x="636.5" y="386.9659">articlesIndex(Model): String</text><ellipse cx="627.5" cy="402.1019" fill="#84BE84" rx="3" ry="3" style="stroke:#038048;stroke-width:1.0;"/><text fill="#000000" font-family="sans-serif" font-size="14" lengthAdjust="spacing" textLength="180.3333" x="636.5" y="406.0339">articleCreate(Model): String</text><ellipse cx="627.5" cy="421.1698" fill="#84BE84" rx="3" ry="3" style="stroke:#038048;stroke-width:1.0;"/><text fill="#000000" font-family="sans-serif" font-size="14" lengthAdjust="spacing" textLength="617.748" x="636.5" y="425.1018">articlesStore(Article, BindingResult, RedirectAttributes, Principal, MultipartFile[], Model): String</text><ellipse cx="627.5" cy="440.2377" fill="#84BE84" rx="3" ry="3" style="stroke:#038048;stroke-width:1.0;"/><text fill="#000000" font-family="sans-serif" font-size="14" lengthAdjust="spacing" textLength="215.1932" x="636.5" y="444.1697">detailArticle(Long, Model): String</text><ellipse cx="627.5" cy="459.3056" fill="#84BE84" rx="3" ry="3" style="stroke:#038048;stroke-width:1.0;"/><text fill="#000000" font-family="sans-serif" font-size="14" lengthAdjust="spacing" textLength="203.7272" x="636.5" y="463.2376">editArticle(Long, Model): String</text><ellipse cx="627.5" cy="478.3735" fill="#84BE84" rx="3" ry="3" style="stroke:#038048;stroke-width:1.0;"/><text fill="#000000" font-family="sans-serif" font-size="14" lengthAdjust="spacing" textLength="664.8718" x="636.5" y="482.3055">articleUpdate(Long, Article, BindingResult, RedirectAttributes, Principal, MultipartFile[], Model): String</text><ellipse cx="627.5" cy="497.4415" fill="#84BE84" rx="3" ry="3" style="stroke:#038048;stroke-width:1.0;"/><text fill="#000000" font-family="sans-serif" font-size="14" lengthAdjust="spacing" textLength="298.3949" x="636.5" y="501.3734">articleDelete(Long, RedirectAttributes): String</text><ellipse cx="627.5" cy="516.5094" fill="#84BE84" rx="3" ry="3" style="stroke:#038048;stroke-width:1.0;"/><text fill="#000000" font-family="sans-serif" font-size="14" lengthAdjust="spacing" textLength="214.5912" x="636.5" y="520.4414">revisorDashboard(Model): String</text><ellipse cx="627.5" cy="535.5773" fill="#84BE84" rx="3" ry="3" style="stroke:#038048;stroke-width:1.0;"/><text fill="#000000" font-family="sans-serif" font-size="14" lengthAdjust="spacing" textLength="262.163" x="636.5" y="539.5093">revisorDetailArticle(Long, Model): String</text><ellipse cx="627.5" cy="554.6452" fill="#84BE84" rx="3" ry="3" style="stroke:#038048;stroke-width:1.0;"/><text fill="#000000" font-family="sans-serif" font-size="14" lengthAdjust="spacing" textLength="383.6967" x="636.5" y="558.5772">articleSetAccepted(String, Long, RedirectAttributes): String</text><ellipse cx="627.5" cy="573.7131" fill="#84BE84" rx="3" ry="3" style="stroke:#038048;stroke-width:1.0;"/><text fill="#000000" font-family="sans-serif" font-size="14" lengthAdjust="spacing" textLength="228.3811" x="636.5" y="577.6451">articleSearch(String, Model): String</text></g></a><!--class OperationController--><a href="OperationController.html" target="_top" title="OperationController.html" xlink:actuate="onRequest" xlink:href="OperationController.html" xlink:show="new" xlink:title="OperationController.html" xlink:type="simple"><g id="elem_OperationController"><rect codeLine="68" fill="#F1F1F1" height="124.2717" id="OperationController" rx="2.5" ry="2.5" style="stroke:#181818;stroke-width:0.5;" width="500.4583" x="1326" y="395"/><ellipse cx="1505.4584" cy="411" fill="#ADD1B2" rx="11" ry="11" style="stroke:#181818;stroke-width:1.0;"/><path d="M1508.4272,416.6406 Q1507.849,416.9375 1507.2084,417.0781 Q1506.5678,417.2344 1505.8647,417.2344 Q1503.3647,417.2344 1502.0365,415.5938 Q1500.724,413.9375 1500.724,410.8125 Q1500.724,407.6875 1502.0365,406.0313 Q1503.3647,404.375 1505.8647,404.375 Q1506.5678,404.375 1507.2084,404.5313 Q1507.8647,404.6875 1508.4272,404.9844 L1508.4272,407.7031 Q1507.8022,407.125 1507.2084,406.8594 Q1506.6147,406.5781 1505.9897,406.5781 Q1504.6459,406.5781 1503.9584,407.6563 Q1503.2709,408.7188 1503.2709,410.8125 Q1503.2709,412.9063 1503.9584,413.9844 Q1504.6459,415.0469 1505.9897,415.0469 Q1506.6147,415.0469 1507.2084,414.7813 Q1507.8022,414.5 1508.4272,413.9219 L1508.4272,416.6406 Z " fill="#000000"/><text fill="#000000" font-family="sans-serif" font-size="14" lengthAdjust="spacing" textLength="133.0415" x="1525.9584" y="416.432">OperationController</text><line style="stroke:#181818;stroke-width:0.5;" x1="1327" x2="1825.4583" y1="427" y2="427"/><line style="stroke:#181818;stroke-width:0.5;" x1="1327" x2="1825.4583" y1="435" y2="435"/><ellipse cx="1337" cy="450.034" fill="#84BE84" rx="3" ry="3" style="stroke:#038048;stroke-width:1.0;"/><text fill="#000000" font-family="sans-serif" font-size="14" lengthAdjust="spacing" textLength="235.2551" x="1346" y="453.9659">careerRequestCreate(Model): String</text><ellipse cx="1337" cy="469.1019" fill="#84BE84" rx="3" ry="3" style="stroke:#038048;stroke-width:1.0;"/><text fill="#000000" font-family="sans-serif" font-size="14" lengthAdjust="spacing" textLength="474.4583" x="1346" y="473.0339">careerRequestStore(CareerRequest, Principal, RedirectAttributes): String</text><ellipse cx="1337" cy="488.1698" fill="#84BE84" rx="3" ry="3" style="stroke:#038048;stroke-width:1.0;"/><text fill="#000000" font-family="sans-serif" font-size="14" lengthAdjust="spacing" textLength="270.6329" x="1346" y="492.1018">careerRequestDetail(Long, Model): String</text><ellipse cx="1337" cy="507.2377" fill="#84BE84" rx="3" ry="3" style="stroke:#038048;stroke-width:1.0;"/><text fill="#000000" font-family="sans-serif" font-size="14" lengthAdjust="spacing" textLength="354.6887" x="1346" y="511.1697">careerRequestAccept(Long, RedirectAttributes): String</text></g></a><!--class ExceptionHandlingController--><a href="ExceptionHandlingController.html" target="_top" title="ExceptionHandlingController.html" xlink:actuate="onRequest" xlink:href="ExceptionHandlingController.html" xlink:show="new" xlink:title="ExceptionHandlingController.html" xlink:type="simple"><g id="elem_ExceptionHandlingController"><rect codeLine="75" fill="#F1F1F1" height="67.0679" id="ExceptionHandlingController" rx="2.5" ry="2.5" style="stroke:#181818;stroke-width:0.5;" width="236.6712" x="290.5" y="622"/><ellipse cx="311.9413" cy="638" fill="#ADD1B2" rx="11" ry="11" style="stroke:#181818;stroke-width:1.0;"/><path d="M314.91,643.6406 Q314.3319,643.9375 313.6913,644.0781 Q313.0506,644.2344 312.3475,644.2344 Q309.8475,644.2344 308.5194,642.5938 Q307.2069,640.9375 307.2069,637.8125 Q307.2069,634.6875 308.5194,633.0313 Q309.8475,631.375 312.3475,631.375 Q313.0506,631.375 313.6913,631.5313 Q314.3475,631.6875 314.91,631.9844 L314.91,634.7031 Q314.285,634.125 313.6913,633.8594 Q313.0975,633.5781 312.4725,633.5781 Q311.1288,633.5781 310.4413,634.6563 Q309.7538,635.7188 309.7538,637.8125 Q309.7538,639.9063 310.4413,640.9844 Q311.1288,642.0469 312.4725,642.0469 Q313.0975,642.0469 313.6913,641.7813 Q314.285,641.5 314.91,640.9219 L314.91,643.6406 Z " fill="#000000"/><text fill="#000000" font-family="sans-serif" font-size="14" lengthAdjust="spacing" textLength="190.3573" x="327.3726" y="643.432">ExceptionHandlingController</text><line style="stroke:#181818;stroke-width:0.5;" x1="291.5" x2="526.1712" y1="654" y2="654"/><line style="stroke:#181818;stroke-width:0.5;" x1="291.5" x2="526.1712" y1="662" y2="662"/><ellipse cx="301.5" cy="677.034" fill="#84BE84" rx="3" ry="3" style="stroke:#038048;stroke-width:1.0;"/><text fill="#000000" font-family="sans-serif" font-size="14" lengthAdjust="spacing" textLength="210.6712" x="310.5" y="680.9659">accessDenied(int, Model): String</text></g></a><text fill="#888888" font-family="sans-serif" font-size="10" lengthAdjust="spacing" textLength="2.6" x="914.2" y="709.69">&#160;</text><a href="https://github.com/talsma-ict/umldoclet" target="_top" title="https://github.com/talsma-ict/umldoclet" xlink:actuate="onRequest" xlink:href="https://github.com/talsma-ict/umldoclet" xlink:show="new" xlink:title="https://github.com/talsma-ict/umldoclet" xlink:type="simple"><text fill="#888888" font-family="sans-serif" font-size="10" lengthAdjust="spacing" textLength="76.7199" x="877.14" y="723.31">UMLDoclet 2.2.1</text></a><!--SRC=[lLTBSzf84BxdLypM7Y9Ni93PO3kKorKOdBMtI2NBOo-4mo0rOigZ6UtC28VQsl- -hHT64YB2IIqNeDNzzTUFQVKGGiXRCf3XLZ5_ROYHnAoP9hDF8qA5HtmGeAW1Zx20-g394hWKlauLWT38hAKYSfNySwLIe4CfF2PyyWVTKA9bf5pGzfit974rpT6VgTv3NsvZuL2w70on1cTxb3hEnULvn-bqoPHo7L3oE9ZQ6TgBJSVks1S4iJbpGMY4Z8G7Ag7L3wcBNwFqIOjiG6ac1Teu6KuSgYk5eKne4b9bT1pI5qw5YRbUsEZ_lNr5hFvaLEJcV4YujKXV2HfvP2p_ZdRX_X8gwYDZJhSoCaG7OAYWoIEDd3MWAsemVxrUQe14dp3Do2MmCLHbbdHhXqhwO8nSCK4vs0FagIJd60Jv9pMBFowd6ZEhGRqeaFcyAB3N9k2B1TgHlS-xjGp0-YGzu6SzCZ4AgrTKGFynqADOIMk4zM-HOzeUrUkbfCexYaazxuvYXbsmxfW_11SxZ6V0BJ86ZobmJT-WwJ8oe6jW5FXC6r17VN7fCs4THS12O4zOSPZ3wUSMkMD95uz1HzmSeTKY3yQ44r0RRCCnnDKt9Lby8ZJKU8_GOLyPXbsi9q2LkswGOUe5J0mRfLd1XccfcYa_AuQfBEcso1VKT5b83vZzM-x00PvdNwfjeGkhmffET3F5nfd83GOAy9VLH7M29mwid5AbqeTAt0JstcFc1CApq8i9fmO_dSmGiFDoz2PdwK0TSPPpBajrB0jhwbXLj2RWHjXUs_XOu2HkxJnaWhFAoCaLZeyHtsUHyDbC9AT8ydH2eNP-yEw5GRStgV5jrLhYvFupeh4MtRbCCyU4EG4efI67D6F2SYOruoyxzX-L38PAXfvy5Yz-Jnc1B8ZaXkNn3yjHd0gKnF1QZ48YNWkYDv7SAyQh6lYpmeC4XVOjYsgQjwncfO9TuvOwkTIuk4UiG0KqDJhCFMdell3-Ol1SQVl4aCqC23p1rVORuSlg9WN75zNjRNq6ilugfA0Ygya1pLv9ZxX5VJj-03F4xm_W73CTm1cJHYDlzmB2wOTAB5xHFZ8EyyLtDX5Sk1ZFF3KOpkZQDDVEuYbCylyZgiploJF-z7qWLpunZHd12PY-wqA82xwLghN8gTCaHqhMWHoandTr18IGhdN5AL2LrcuZ2a1bIrsZ3MDFFrypzaI5aZVEGG4rBKMZFMFFAYt3Zwm3zzzY14pQ0zwLEAeMKdhaQTryGKPQ3q4mR8xaTNUygDdNZJPR3YypRoKbBgmby8SjLdZ4nDC0tuQA_7fz-EailY0YMS0xgViaa0vnzjmcxjfx_Z9VNyLyliRrNlVQRP-PTRIqyRhMDidbz9ovfXq5t4jlfQNxwMAHtJT_trryuylZkNDztlamlRZiTQzwlrtRdSlttUxLTTTvvtHwZZE_Zt0xWFOORscB_m00]--></g></svg>