<svg xmlns="http://www.w3.org/2000/svg" xmlns:xlink="http://www.w3.org/1999/xlink" contentStyleType="text/css" height="583px" preserveAspectRatio="none" style="width:2165px;height:583px;background:#FFFFFF;" version="1.1" viewBox="0 0 2165 583" width="2165px" zoomAndPan="magnify"><defs/><g><!--cluster com.smartbay.progettofinale.Repositories--><g id="cluster_com.smartbay.progettofinale.Repositories"><path d="M16.5,327 L314.5509,327 A3.75,3.75 0 0 1 317.0509,329.5 L324.0509,352.0679 L2155.5,352.0679 A2.5,2.5 0 0 1 2158,354.5679 L2158,543.5 A2.5,2.5 0 0 1 2155.5,546 L16.5,546 A2.5,2.5 0 0 1 14,543.5 L14,329.5 A2.5,2.5 0 0 1 16.5,327 " fill="none" style="stroke:#000000;stroke-width:1.5;"/><line style="stroke:#000000;stroke-width:1.5;" x1="14" x2="324.0509" y1="352.0679" y2="352.0679"/><text fill="#000000" font-family="sans-serif" font-size="14" font-weight="bold" lengthAdjust="spacing" textLength="297.0509" x="18" y="343.9659">com.smartbay.progettofinale.Repositories</text></g><!--cluster org.springframework.data.jpa.repository--><g id="cluster_org.springframework.data.jpa.repository"><path d="M360.5,4 L649.6749,4 A3.75,3.75 0 0 1 652.1749,6.5 L659.1749,29.0679 L751.5,29.0679 A2.5,2.5 0 0 1 754,31.5679 L754,316.5 A2.5,2.5 0 0 1 751.5,319 L360.5,319 A2.5,2.5 0 0 1 358,316.5 L358,6.5 A2.5,2.5 0 0 1 360.5,4 " fill="none" style="stroke:#000000;stroke-width:1.5;"/><line style="stroke:#000000;stroke-width:1.5;" x1="358" x2="659.1749" y1="29.0679" y2="29.0679"/><text fill="#000000" font-family="sans-serif" font-size="14" font-weight="bold" lengthAdjust="spacing" textLength="288.1749" x="362" y="20.9659">org.springframework.data.jpa.repository</text></g><!--cluster org.springframework.data.repository--><g id="cluster_org.springframework.data.repository"><path d="M1324.5,4 L1588.097,4 A3.75,3.75 0 0 1 1590.597,6.5 L1597.597,29.0679 L2028.5,29.0679 A2.5,2.5 0 0 1 2031,31.5679 L2031,316.5 A2.5,2.5 0 0 1 2028.5,319 L1324.5,319 A2.5,2.5 0 0 1 1322,316.5 L1322,6.5 A2.5,2.5 0 0 1 1324.5,4 " fill="none" style="stroke:#000000;stroke-width:1.5;"/><line style="stroke:#000000;stroke-width:1.5;" x1="1322" x2="1597.597" y1="29.0679" y2="29.0679"/><text fill="#000000" font-family="sans-serif" font-size="14" font-weight="bold" lengthAdjust="spacing" textLength="262.597" x="1326" y="20.9659">org.springframework.data.repository</text></g><!--class UserRepository--><a href="UserRepository.html" target="_top" title="UserRepository.html" xlink:actuate="onRequest" xlink:href="UserRepository.html" xlink:show="new" xlink:title="UserRepository.html" xlink:type="simple"><g id="elem_UserRepository"><rect codeLine="12" fill="#F1F1F1" height="86.1358" id="UserRepository" rx="2.5" ry="2.5" style="stroke:#181818;stroke-width:0.5;" width="279.161" x="22.5" y="404.5"/><ellipse cx="111.1407" cy="420.5" fill="#B4A7E5" rx="11" ry="11" style="stroke:#181818;stroke-width:1.0;"/><path d="M107.0626,416.2656 L107.0626,414.1094 L114.4532,414.1094 L114.4532,416.2656 L111.9844,416.2656 L111.9844,424.3438 L114.4532,424.3438 L114.4532,426.5 L107.0626,426.5 L107.0626,424.3438 L109.5313,424.3438 L109.5313,416.2656 L107.0626,416.2656 Z " fill="#000000"/><text fill="#000000" font-family="sans-serif" font-size="14" font-style="italic" lengthAdjust="spacing" textLength="93.3797" x="131.6407" y="425.932">UserRepository</text><line style="stroke:#181818;stroke-width:0.5;" x1="23.5" x2="300.661" y1="436.5" y2="436.5"/><line style="stroke:#181818;stroke-width:0.5;" x1="23.5" x2="300.661" y1="444.5" y2="444.5"/><ellipse cx="33.5" cy="459.534" fill="#84BE84" rx="3" ry="3" style="stroke:#038048;stroke-width:1.0;"/><text fill="#000000" font-family="sans-serif" font-size="14" font-style="italic" lengthAdjust="spacing" textLength="154.3774" x="42.5" y="463.4659">findByEmail(String): User</text><ellipse cx="33.5" cy="478.6019" fill="#84BE84" rx="3" ry="3" style="stroke:#038048;stroke-width:1.0;"/><text fill="#000000" font-family="sans-serif" font-size="14" font-style="italic" lengthAdjust="spacing" textLength="253.161" x="42.5" y="482.5339">findByUsername(String): Optional&lt;User&gt;</text></g></a><!--class CareerRequestRepository--><a href="CareerRequestRepository.html" target="_top" title="CareerRequestRepository.html" xlink:actuate="onRequest" xlink:href="CareerRequestRepository.html" xlink:show="new" xlink:title="CareerRequestRepository.html" xlink:type="simple"><g id="elem_CareerRequestRepository"><rect codeLine="17" fill="#F1F1F1" height="124.2717" id="CareerRequestRepository" rx="2.5" ry="2.5" style="stroke:#181818;stroke-width:0.5;" width="498.8621" x="1650.5" y="385.5"/><ellipse cx="1817.9393" cy="401.5" fill="#B4A7E5" rx="11" ry="11" style="stroke:#181818;stroke-width:1.0;"/><path d="M1813.8612,397.2656 L1813.8612,395.1094 L1821.2518,395.1094 L1821.2518,397.2656 L1818.7831,397.2656 L1818.7831,405.3438 L1821.2518,405.3438 L1821.2518,407.5 L1813.8612,407.5 L1813.8612,405.3438 L1816.33,405.3438 L1816.33,397.2656 L1813.8612,397.2656 Z " fill="#000000"/><text fill="#000000" font-family="sans-serif" font-size="14" font-style="italic" lengthAdjust="spacing" textLength="155.4834" x="1838.4393" y="406.932">CareerRequestRepository</text><line style="stroke:#181818;stroke-width:0.5;" x1="1651.5" x2="2148.3621" y1="417.5" y2="417.5"/><line style="stroke:#181818;stroke-width:0.5;" x1="1651.5" x2="2148.3621" y1="425.5" y2="425.5"/><ellipse cx="1661.5" cy="440.534" fill="#84BE84" rx="3" ry="3" style="stroke:#038048;stroke-width:1.0;"/><text fill="#000000" font-family="sans-serif" font-size="14" font-style="italic" lengthAdjust="spacing" textLength="275.295" x="1670.5" y="444.4659">findByIsCheckedFalse(): List&lt;CareerRequest&gt;</text><ellipse cx="1661.5" cy="459.6019" fill="#84BE84" rx="3" ry="3" style="stroke:#038048;stroke-width:1.0;"/><text fill="#000000" font-family="sans-serif" font-size="14" font-style="italic" lengthAdjust="spacing" textLength="169.2873" x="1670.5" y="463.5339">findAllUserIds(): List&lt;Long&gt;</text><ellipse cx="1661.5" cy="478.6698" fill="#84BE84" rx="3" ry="3" style="stroke:#038048;stroke-width:1.0;"/><text fill="#000000" font-family="sans-serif" font-size="14" font-style="italic" lengthAdjust="spacing" textLength="193.8712" x="1670.5" y="482.6018">findByUserId(Long): List&lt;Long&gt;</text><ellipse cx="1661.5" cy="497.7377" fill="#84BE84" rx="3" ry="3" style="stroke:#038048;stroke-width:1.0;"/><text fill="#000000" font-family="sans-serif" font-size="14" font-style="italic" lengthAdjust="spacing" textLength="472.8621" x="1670.5" y="501.6697">findByUserAndRoleAndIsCheckedFalse(User, Role): Optional&lt;CareerRequest&gt;</text></g></a><!--class CategoryRepository--><a href="CategoryRepository.html" target="_top" title="CategoryRepository.html" xlink:actuate="onRequest" xlink:href="CategoryRepository.html" xlink:show="new" xlink:title="CategoryRepository.html" xlink:type="simple"><g id="elem_CategoryRepository"><rect codeLine="24" fill="#F1F1F1" height="48" id="CategoryRepository" rx="2.5" ry="2.5" style="stroke:#181818;stroke-width:0.5;" width="153.1976" x="1180.5" y="423.5"/><ellipse cx="1195.5" cy="439.5" fill="#B4A7E5" rx="11" ry="11" style="stroke:#181818;stroke-width:1.0;"/><path d="M1191.4219,435.2656 L1191.4219,433.1094 L1198.8125,433.1094 L1198.8125,435.2656 L1196.3438,435.2656 L1196.3438,443.3438 L1198.8125,443.3438 L1198.8125,445.5 L1191.4219,445.5 L1191.4219,443.3438 L1193.8906,443.3438 L1193.8906,435.2656 L1191.4219,435.2656 Z " fill="#000000"/><text fill="#000000" font-family="sans-serif" font-size="14" font-style="italic" lengthAdjust="spacing" textLength="121.1976" x="1209.5" y="444.932">CategoryRepository</text><line style="stroke:#181818;stroke-width:0.5;" x1="1181.5" x2="1332.6976" y1="455.5" y2="455.5"/><line style="stroke:#181818;stroke-width:0.5;" x1="1181.5" x2="1332.6976" y1="463.5" y2="463.5"/></g></a><!--class RoleRepository--><a href="RoleRepository.html" target="_top" title="RoleRepository.html" xlink:actuate="onRequest" xlink:href="RoleRepository.html" xlink:show="new" xlink:title="RoleRepository.html" xlink:type="simple"><g id="elem_RoleRepository"><rect codeLine="26" fill="#F1F1F1" height="67.0679" id="RoleRepository" rx="2.5" ry="2.5" style="stroke:#181818;stroke-width:0.5;" width="181.2594" x="319.5" y="414"/><ellipse cx="360.3578" cy="430" fill="#B4A7E5" rx="11" ry="11" style="stroke:#181818;stroke-width:1.0;"/><path d="M356.2797,425.7656 L356.2797,423.6094 L363.6703,423.6094 L363.6703,425.7656 L361.2015,425.7656 L361.2015,433.8438 L363.6703,433.8438 L363.6703,436 L356.2797,436 L356.2797,433.8438 L358.7484,433.8438 L358.7484,425.7656 L356.2797,425.7656 Z " fill="#000000"/><text fill="#000000" font-family="sans-serif" font-size="14" font-style="italic" lengthAdjust="spacing" textLength="91.7977" x="380.104" y="435.432">RoleRepository</text><line style="stroke:#181818;stroke-width:0.5;" x1="320.5" x2="499.7594" y1="446" y2="446"/><line style="stroke:#181818;stroke-width:0.5;" x1="320.5" x2="499.7594" y1="454" y2="454"/><ellipse cx="330.5" cy="469.034" fill="#84BE84" rx="3" ry="3" style="stroke:#038048;stroke-width:1.0;"/><text fill="#000000" font-family="sans-serif" font-size="14" font-style="italic" lengthAdjust="spacing" textLength="155.2594" x="339.5" y="472.9659">findByName(String): Role</text></g></a><!--class ImageRepository--><a href="ImageRepository.html" target="_top" title="ImageRepository.html" xlink:actuate="onRequest" xlink:href="ImageRepository.html" xlink:show="new" xlink:title="ImageRepository.html" xlink:type="simple"><g id="elem_ImageRepository"><rect codeLine="30" fill="#F1F1F1" height="86.1358" id="ImageRepository" rx="2.5" ry="2.5" style="stroke:#181818;stroke-width:0.5;" width="256.1731" x="906" y="404.5"/><ellipse cx="977.2738" cy="420.5" fill="#B4A7E5" rx="11" ry="11" style="stroke:#181818;stroke-width:1.0;"/><path d="M973.1956,416.2656 L973.1956,414.1094 L980.5863,414.1094 L980.5863,416.2656 L978.1175,416.2656 L978.1175,424.3438 L980.5863,424.3438 L980.5863,426.5 L973.1956,426.5 L973.1956,424.3438 L975.6644,424.3438 L975.6644,416.2656 L973.1956,416.2656 Z " fill="#000000"/><text fill="#000000" font-family="sans-serif" font-size="14" font-style="italic" lengthAdjust="spacing" textLength="105.1256" x="997.7738" y="425.932">ImageRepository</text><line style="stroke:#181818;stroke-width:0.5;" x1="907" x2="1161.1731" y1="436.5" y2="436.5"/><line style="stroke:#181818;stroke-width:0.5;" x1="907" x2="1161.1731" y1="444.5" y2="444.5"/><ellipse cx="917" cy="459.534" fill="#84BE84" rx="3" ry="3" style="stroke:#038048;stroke-width:1.0;"/><text fill="#000000" font-family="sans-serif" font-size="14" font-style="italic" lengthAdjust="spacing" textLength="159.5014" x="926" y="463.4659">deleteByPath(String): void</text><ellipse cx="917" cy="478.6019" fill="#84BE84" rx="3" ry="3" style="stroke:#038048;stroke-width:1.0;"/><text fill="#000000" font-family="sans-serif" font-size="14" font-style="italic" lengthAdjust="spacing" textLength="230.1731" x="926" y="482.5339">findByPath(String): Optional&lt;Image&gt;</text></g></a><!--class ArticleRepository--><a href="ArticleRepository.html" target="_top" title="ArticleRepository.html" xlink:actuate="onRequest" xlink:href="ArticleRepository.html" xlink:show="new" xlink:title="ArticleRepository.html" xlink:type="simple"><g id="elem_ArticleRepository"><rect codeLine="35" fill="#F1F1F1" height="181.4754" id="ArticleRepository" rx="2.5" ry="2.5" style="stroke:#181818;stroke-width:0.5;" width="280.421" x="1352" y="357"/><ellipse cx="1435.9927" cy="373" fill="#B4A7E5" rx="11" ry="11" style="stroke:#181818;stroke-width:1.0;"/><path d="M1431.9146,368.7656 L1431.9146,366.6094 L1439.3052,366.6094 L1439.3052,368.7656 L1436.8364,368.7656 L1436.8364,376.8438 L1439.3052,376.8438 L1439.3052,379 L1431.9146,379 L1431.9146,376.8438 L1434.3833,376.8438 L1434.3833,368.7656 L1431.9146,368.7656 Z " fill="#000000"/><text fill="#000000" font-family="sans-serif" font-size="14" font-style="italic" lengthAdjust="spacing" textLength="103.9356" x="1456.4927" y="378.432">ArticleRepository</text><line style="stroke:#181818;stroke-width:0.5;" x1="1353" x2="1631.421" y1="389" y2="389"/><line style="stroke:#181818;stroke-width:0.5;" x1="1353" x2="1631.421" y1="397" y2="397"/><ellipse cx="1363" cy="412.034" fill="#84BE84" rx="3" ry="3" style="stroke:#038048;stroke-width:1.0;"/><text fill="#000000" font-family="sans-serif" font-size="14" font-style="italic" lengthAdjust="spacing" textLength="242.0171" x="1372" y="415.9659">findByCategory(Category): List&lt;Article&gt;</text><ellipse cx="1363" cy="431.1019" fill="#84BE84" rx="3" ry="3" style="stroke:#038048;stroke-width:1.0;"/><text fill="#000000" font-family="sans-serif" font-size="14" font-style="italic" lengthAdjust="spacing" textLength="186.3813" x="1372" y="435.0339">findByUser(User): List&lt;Article&gt;</text><ellipse cx="1363" cy="450.1698" fill="#84BE84" rx="3" ry="3" style="stroke:#038048;stroke-width:1.0;"/><text fill="#000000" font-family="sans-serif" font-size="14" font-style="italic" lengthAdjust="spacing" textLength="223.8591" x="1372" y="454.1018">findByIsAcceptedTrue(): List&lt;Article&gt;</text><ellipse cx="1363" cy="469.2377" fill="#84BE84" rx="3" ry="3" style="stroke:#038048;stroke-width:1.0;"/><text fill="#000000" font-family="sans-serif" font-size="14" font-style="italic" lengthAdjust="spacing" textLength="227.4571" x="1372" y="473.1697">findByIsAcceptedFalse(): List&lt;Article&gt;</text><ellipse cx="1363" cy="488.3056" fill="#84BE84" rx="3" ry="3" style="stroke:#038048;stroke-width:1.0;"/><text fill="#000000" font-family="sans-serif" font-size="14" font-style="italic" lengthAdjust="spacing" textLength="231.9931" x="1372" y="492.2376">findByIsAcceptedIsNull(): List&lt;Article&gt;</text><ellipse cx="1363" cy="507.3735" fill="#84BE84" rx="3" ry="3" style="stroke:#038048;stroke-width:1.0;"/><text fill="#000000" font-family="sans-serif" font-size="14" font-style="italic" lengthAdjust="spacing" textLength="254.421" x="1372" y="511.3055">findByIsAcceptedIsNotNull(): List&lt;Article&gt;</text><ellipse cx="1363" cy="526.4415" fill="#84BE84" rx="3" ry="3" style="stroke:#038048;stroke-width:1.0;"/><text fill="#000000" font-family="sans-serif" font-size="14" font-style="italic" lengthAdjust="spacing" textLength="169.1193" x="1372" y="530.3734">search(String): List&lt;Article&gt;</text></g></a><!--class OrdineRepository--><a href="OrdineRepository.html" target="_top" title="OrdineRepository.html" xlink:actuate="onRequest" xlink:href="OrdineRepository.html" xlink:show="new" xlink:title="OrdineRepository.html" xlink:type="simple"><g id="elem_OrdineRepository"><rect codeLine="45" fill="#F1F1F1" height="86.1358" id="OrdineRepository" rx="2.5" ry="2.5" style="stroke:#181818;stroke-width:0.5;" width="368.5647" x="518.5" y="404.5"/><ellipse cx="644.6465" cy="420.5" fill="#B4A7E5" rx="11" ry="11" style="stroke:#181818;stroke-width:1.0;"/><path d="M640.5684,416.2656 L640.5684,414.1094 L647.959,414.1094 L647.959,416.2656 L645.4903,416.2656 L645.4903,424.3438 L647.959,424.3438 L647.959,426.5 L640.5684,426.5 L640.5684,424.3438 L643.0372,424.3438 L643.0372,416.2656 L640.5684,416.2656 Z " fill="#000000"/><text fill="#000000" font-family="sans-serif" font-size="14" font-style="italic" lengthAdjust="spacing" textLength="107.7716" x="665.1465" y="425.932">OrdineRepository</text><line style="stroke:#181818;stroke-width:0.5;" x1="519.5" x2="886.0647" y1="436.5" y2="436.5"/><line style="stroke:#181818;stroke-width:0.5;" x1="519.5" x2="886.0647" y1="444.5" y2="444.5"/><ellipse cx="529.5" cy="459.534" fill="#84BE84" rx="3" ry="3" style="stroke:#038048;stroke-width:1.0;"/><text fill="#000000" font-family="sans-serif" font-size="14" font-style="italic" lengthAdjust="spacing" textLength="190.2173" x="538.5" y="463.4659">findByUser(User): List&lt;Ordine&gt;</text><ellipse cx="529.5" cy="478.6019" fill="#84BE84" rx="3" ry="3" style="stroke:#038048;stroke-width:1.0;"/><text fill="#000000" font-family="sans-serif" font-size="14" font-style="italic" lengthAdjust="spacing" textLength="342.5647" x="538.5" y="482.5339">findByUserOrderByDataOrdineDesc(User): List&lt;Ordine&gt;</text></g></a><!--class JpaRepository--><g id="elem_JpaRepository"><rect codeLine="53" fill="#F1F1F1" height="276.815" id="JpaRepository" rx="2.5" ry="2.5" style="stroke:#181818;stroke-width:0.5;" width="380.0306" x="366" y="34"/><ellipse cx="495.1294" cy="50" fill="#B4A7E5" rx="11" ry="11" style="stroke:#181818;stroke-width:1.0;"/><path d="M491.0512,45.7656 L491.0512,43.6094 L498.4419,43.6094 L498.4419,45.7656 L495.9731,45.7656 L495.9731,53.8438 L498.4419,53.8438 L498.4419,56 L491.0512,56 L491.0512,53.8438 L493.52,53.8438 L493.52,45.7656 L491.0512,45.7656 Z " fill="#000000"/><text fill="#000000" font-family="sans-serif" font-size="14" font-style="italic" lengthAdjust="spacing" textLength="85.1757" x="515.6294" y="55.432">JpaRepository</text><rect fill="#FFFFFF" height="18.3441" style="stroke:#181818;stroke-width:1.0;stroke-dasharray:2.0,2.0;" width="26.0962" x="722.9344" y="31"/><text fill="#000000" font-family="sans-serif" font-size="12" font-style="italic" lengthAdjust="spacing" textLength="24.0962" x="723.9344" y="44.8281">T, ID</text><line style="stroke:#181818;stroke-width:0.5;" x1="367" x2="745.0306" y1="66" y2="66"/><line style="stroke:#181818;stroke-width:0.5;" x1="367" x2="745.0306" y1="74" y2="74"/><ellipse cx="377" cy="89.034" fill="#84BE84" rx="3" ry="3" style="stroke:#038048;stroke-width:1.0;"/><text fill="#000000" font-family="sans-serif" font-size="14" font-style="italic" lengthAdjust="spacing" textLength="71.8057" x="386" y="92.9659">flush(): void</text><ellipse cx="377" cy="108.1019" fill="#84BE84" rx="3" ry="3" style="stroke:#038048;stroke-width:1.0;"/><text fill="#000000" font-family="sans-serif" font-size="14" font-style="italic" lengthAdjust="spacing" textLength="237.5091" x="386" y="112.0339">saveAndFlush(S extends T): S extends T</text><ellipse cx="377" cy="127.1698" fill="#84BE84" rx="3" ry="3" style="stroke:#038048;stroke-width:1.0;"/><text fill="#000000" font-family="sans-serif" font-size="14" font-style="italic" lengthAdjust="spacing" textLength="354.0306" x="386" y="131.1018">saveAllAndFlush(Iterable&lt;S extends T&gt;): List&lt;S extends T&gt;</text><ellipse cx="377" cy="146.2377" fill="#84BE84" rx="3" ry="3" style="stroke:#038048;stroke-width:1.0;"/><text fill="#000000" font-family="sans-serif" font-size="14" lengthAdjust="spacing" text-decoration="line-through" textLength="91.7416" x="386" y="150.1697">deleteInBatch</text><text fill="#000000" font-family="sans-serif" font-size="14" lengthAdjust="spacing" textLength="118.8455" x="477.7416" y="150.1697">(Iterable&lt;T&gt;): void</text><ellipse cx="377" cy="165.3056" fill="#84BE84" rx="3" ry="3" style="stroke:#038048;stroke-width:1.0;"/><text fill="#000000" font-family="sans-serif" font-size="14" font-style="italic" lengthAdjust="spacing" textLength="213.4152" x="386" y="169.2376">deleteAllInBatch(Iterable&lt;T&gt;): void</text><ellipse cx="377" cy="184.3735" fill="#84BE84" rx="3" ry="3" style="stroke:#038048;stroke-width:1.0;"/><text fill="#000000" font-family="sans-serif" font-size="14" font-style="italic" lengthAdjust="spacing" textLength="247.855" x="386" y="188.3055">deleteAllByIdInBatch(Iterable&lt;ID&gt;): void</text><ellipse cx="377" cy="203.4415" fill="#84BE84" rx="3" ry="3" style="stroke:#038048;stroke-width:1.0;"/><text fill="#000000" font-family="sans-serif" font-size="14" font-style="italic" lengthAdjust="spacing" textLength="141.9875" x="386" y="207.3734">deleteAllInBatch(): void</text><ellipse cx="377" cy="222.5094" fill="#84BE84" rx="3" ry="3" style="stroke:#038048;stroke-width:1.0;"/><text fill="#000000" font-family="sans-serif" font-size="14" font-style="italic" lengthAdjust="spacing" text-decoration="line-through" textLength="44.9258" x="386" y="226.4414">getOne</text><text fill="#000000" font-family="sans-serif" font-size="14" font-style="italic" lengthAdjust="spacing" textLength="36.2319" x="430.9258" y="226.4414">(ID): T</text><ellipse cx="377" cy="241.5773" fill="#84BE84" rx="3" ry="3" style="stroke:#038048;stroke-width:1.0;"/><text fill="#000000" font-family="sans-serif" font-size="14" font-style="italic" lengthAdjust="spacing" text-decoration="line-through" textLength="47.3198" x="386" y="245.5093">getById</text><text fill="#000000" font-family="sans-serif" font-size="14" font-style="italic" lengthAdjust="spacing" textLength="36.2319" x="433.3198" y="245.5093">(ID): T</text><ellipse cx="377" cy="260.6452" fill="#84BE84" rx="3" ry="3" style="stroke:#038048;stroke-width:1.0;"/><text fill="#000000" font-family="sans-serif" font-size="14" font-style="italic" lengthAdjust="spacing" textLength="143.9895" x="386" y="264.5772">getReferenceById(ID): T</text><ellipse cx="377" cy="279.7131" fill="#84BE84" rx="3" ry="3" style="stroke:#038048;stroke-width:1.0;"/><text fill="#000000" font-family="sans-serif" font-size="14" font-style="italic" lengthAdjust="spacing" textLength="298.6188" x="386" y="283.6451">findAll(Example&lt;S extends T&gt;): List&lt;S extends T&gt;</text><ellipse cx="377" cy="298.781" fill="#84BE84" rx="3" ry="3" style="stroke:#038048;stroke-width:1.0;"/><text fill="#000000" font-family="sans-serif" font-size="14" font-style="italic" lengthAdjust="spacing" textLength="331.0147" x="386" y="302.713">findAll(Example&lt;S extends T&gt;, Sort): List&lt;S extends T&gt;</text></g><!--class CrudRepository--><g id="elem_CrudRepository"><rect codeLine="70" fill="#F1F1F1" height="276.815" id="CrudRepository" rx="2.5" ry="2.5" style="stroke:#181818;stroke-width:0.5;" width="350.7987" x="1671.5" y="34"/><ellipse cx="1780.9524" cy="50" fill="#B4A7E5" rx="11" ry="11" style="stroke:#181818;stroke-width:1.0;"/><path d="M1776.8743,45.7656 L1776.8743,43.6094 L1784.2649,43.6094 L1784.2649,45.7656 L1781.7962,45.7656 L1781.7962,53.8438 L1784.2649,53.8438 L1784.2649,56 L1776.8743,56 L1776.8743,53.8438 L1779.3431,53.8438 L1779.3431,45.7656 L1776.8743,45.7656 Z " fill="#000000"/><text fill="#000000" font-family="sans-serif" font-size="14" font-style="italic" lengthAdjust="spacing" textLength="95.2977" x="1801.4524" y="55.432">CrudRepository</text><rect fill="#FFFFFF" height="18.3441" style="stroke:#181818;stroke-width:1.0;stroke-dasharray:2.0,2.0;" width="26.0962" x="1999.2025" y="31"/><text fill="#000000" font-family="sans-serif" font-size="12" font-style="italic" lengthAdjust="spacing" textLength="24.0962" x="2000.2025" y="44.8281">T, ID</text><line style="stroke:#181818;stroke-width:0.5;" x1="1672.5" x2="2021.2987" y1="66" y2="66"/><line style="stroke:#181818;stroke-width:0.5;" x1="1672.5" x2="2021.2987" y1="74" y2="74"/><ellipse cx="1682.5" cy="89.034" fill="#84BE84" rx="3" ry="3" style="stroke:#038048;stroke-width:1.0;"/><text fill="#000000" font-family="sans-serif" font-size="14" font-style="italic" lengthAdjust="spacing" textLength="180.8793" x="1691.5" y="92.9659">save(S extends T): S extends T</text><ellipse cx="1682.5" cy="108.1019" fill="#84BE84" rx="3" ry="3" style="stroke:#038048;stroke-width:1.0;"/><text fill="#000000" font-family="sans-serif" font-size="14" font-style="italic" lengthAdjust="spacing" textLength="324.7987" x="1691.5" y="112.0339">saveAll(Iterable&lt;S extends T&gt;): Iterable&lt;S extends T&gt;</text><ellipse cx="1682.5" cy="127.1698" fill="#84BE84" rx="3" ry="3" style="stroke:#038048;stroke-width:1.0;"/><text fill="#000000" font-family="sans-serif" font-size="14" font-style="italic" lengthAdjust="spacing" textLength="158.1154" x="1691.5" y="131.1018">findById(ID): Optional&lt;T&gt;</text><ellipse cx="1682.5" cy="146.2377" fill="#84BE84" rx="3" ry="3" style="stroke:#038048;stroke-width:1.0;"/><text fill="#000000" font-family="sans-serif" font-size="14" font-style="italic" lengthAdjust="spacing" textLength="141.4275" x="1691.5" y="150.1697">existsById(ID): boolean</text><ellipse cx="1682.5" cy="165.3056" fill="#84BE84" rx="3" ry="3" style="stroke:#038048;stroke-width:1.0;"/><text fill="#000000" font-family="sans-serif" font-size="14" font-style="italic" lengthAdjust="spacing" textLength="126.1395" x="1691.5" y="169.2376">findAll(): Iterable&lt;T&gt;</text><ellipse cx="1682.5" cy="184.3735" fill="#84BE84" rx="3" ry="3" style="stroke:#038048;stroke-width:1.0;"/><text fill="#000000" font-family="sans-serif" font-size="14" font-style="italic" lengthAdjust="spacing" textLength="232.0071" x="1691.5" y="188.3055">findAllById(Iterable&lt;ID&gt;): Iterable&lt;T&gt;</text><ellipse cx="1682.5" cy="203.4415" fill="#84BE84" rx="3" ry="3" style="stroke:#038048;stroke-width:1.0;"/><text fill="#000000" font-family="sans-serif" font-size="14" font-style="italic" lengthAdjust="spacing" textLength="78.1337" x="1691.5" y="207.3734">count(): long</text><ellipse cx="1682.5" cy="222.5094" fill="#84BE84" rx="3" ry="3" style="stroke:#038048;stroke-width:1.0;"/><text fill="#000000" font-family="sans-serif" font-size="14" font-style="italic" lengthAdjust="spacing" textLength="120.2596" x="1691.5" y="226.4414">deleteById(ID): void</text><ellipse cx="1682.5" cy="241.5773" fill="#84BE84" rx="3" ry="3" style="stroke:#038048;stroke-width:1.0;"/><text fill="#000000" font-family="sans-serif" font-size="14" font-style="italic" lengthAdjust="spacing" textLength="85.8197" x="1691.5" y="245.5093">delete(T): void</text><ellipse cx="1682.5" cy="260.6452" fill="#84BE84" rx="3" ry="3" style="stroke:#038048;stroke-width:1.0;"/><text fill="#000000" font-family="sans-serif" font-size="14" font-style="italic" lengthAdjust="spacing" textLength="260.707" x="1691.5" y="264.5772">deleteAllById(Iterable&lt;? extends ID&gt;): void</text><ellipse cx="1682.5" cy="279.7131" fill="#84BE84" rx="3" ry="3" style="stroke:#038048;stroke-width:1.0;"/><text fill="#000000" font-family="sans-serif" font-size="14" font-style="italic" lengthAdjust="spacing" textLength="226.2671" x="1691.5" y="283.6451">deleteAll(Iterable&lt;? extends T&gt;): void</text><ellipse cx="1682.5" cy="298.781" fill="#84BE84" rx="3" ry="3" style="stroke:#038048;stroke-width:1.0;"/><text fill="#000000" font-family="sans-serif" font-size="14" font-style="italic" lengthAdjust="spacing" textLength="93.8976" x="1691.5" y="302.713">deleteAll(): void</text></g><!--class ListCrudRepository--><g id="elem_ListCrudRepository"><rect codeLine="84" fill="#F1F1F1" height="105.2038" id="ListCrudRepository" rx="2.5" ry="2.5" style="stroke:#181818;stroke-width:0.5;" width="323.4008" x="1330.5" y="120"/><ellipse cx="1415.7535" cy="136" fill="#B4A7E5" rx="11" ry="11" style="stroke:#181818;stroke-width:1.0;"/><path d="M1411.6754,131.7656 L1411.6754,129.6094 L1419.066,129.6094 L1419.066,131.7656 L1416.5973,131.7656 L1416.5973,139.8438 L1419.066,139.8438 L1419.066,142 L1411.6754,142 L1411.6754,139.8438 L1414.1442,139.8438 L1414.1442,131.7656 L1411.6754,131.7656 Z " fill="#000000"/><text fill="#000000" font-family="sans-serif" font-size="14" font-style="italic" lengthAdjust="spacing" textLength="116.2976" x="1436.2535" y="141.432">ListCrudRepository</text><rect fill="#FFFFFF" height="18.3441" style="stroke:#181818;stroke-width:1.0;stroke-dasharray:2.0,2.0;" width="26.0962" x="1630.8046" y="117"/><text fill="#000000" font-family="sans-serif" font-size="12" font-style="italic" lengthAdjust="spacing" textLength="24.0962" x="1631.8046" y="130.8281">T, ID</text><line style="stroke:#181818;stroke-width:0.5;" x1="1331.5" x2="1652.9008" y1="152" y2="152"/><line style="stroke:#181818;stroke-width:0.5;" x1="1331.5" x2="1652.9008" y1="160" y2="160"/><ellipse cx="1341.5" cy="175.034" fill="#84BE84" rx="3" ry="3" style="stroke:#038048;stroke-width:1.0;"/><text fill="#000000" font-family="sans-serif" font-size="14" font-style="italic" lengthAdjust="spacing" textLength="297.4008" x="1350.5" y="178.9659">saveAll(Iterable&lt;S extends T&gt;): List&lt;S extends T&gt;</text><ellipse cx="1341.5" cy="194.1019" fill="#84BE84" rx="3" ry="3" style="stroke:#038048;stroke-width:1.0;"/><text fill="#000000" font-family="sans-serif" font-size="14" font-style="italic" lengthAdjust="spacing" textLength="98.7416" x="1350.5" y="198.0339">findAll(): List&lt;T&gt;</text><ellipse cx="1341.5" cy="213.1698" fill="#84BE84" rx="3" ry="3" style="stroke:#038048;stroke-width:1.0;"/><text fill="#000000" font-family="sans-serif" font-size="14" font-style="italic" lengthAdjust="spacing" textLength="204.6092" x="1350.5" y="217.1018">findAllById(Iterable&lt;ID&gt;): List&lt;T&gt;</text></g><polygon fill="none" points="365.7732,288.9621,347.4364,293.8367,354.0285,303.8639,365.7732,288.9621" style="stroke:#181818;stroke-width:1.0;"/><path d="M350.7324,298.8503 C331.6806,311.3754 327.8408,314.302 310,327 C275.9645,351.2245 239.4277,380.6873 211.1723,404.2964 " fill="none" style="stroke:#181818;stroke-width:1.0;"/><polygon fill="none" points="1873.7329,311.1997,1871.2733,330.0133,1883.0534,327.7263,1873.7329,311.1997" style="stroke:#181818;stroke-width:1.0;"/><path d="M1877.1634,328.8698 C1882.2057,354.8428 1883.8064,363.0877 1888.096,385.183 " fill="none" style="stroke:#181818;stroke-width:1.0;"/><polygon fill="none" points="1437.9449,225.3361,1420.9358,233.7439,1429.3823,242.2678,1437.9449,225.3361" style="stroke:#181818;stroke-width:1.0;"/><path d="M1425.159,238.0058 C1395.954,266.9457 1372.6873,291.5503 1343,327 C1316.2501,358.9421 1288.6992,398.6545 1272.212,423.2926 " fill="none" style="stroke:#181818;stroke-width:1.0;"/><polygon fill="none" points="482.3584,311.1997,468.5788,324.2428,479.1606,329.9019,482.3584,311.1997" style="stroke:#181818;stroke-width:1.0;"/><path d="M473.8697,327.0724 C453.3177,365.5018 441.3222,387.9317 427.4225,413.9224 " fill="none" style="stroke:#181818;stroke-width:1.0;"/><polygon fill="none" points="746.3598,247.7758,760.2916,260.6562,765.2335,249.721,746.3598,247.7758" style="stroke:#181818;stroke-width:1.0;"/><path d="M762.7625,255.1886 C812.9588,277.8735 849.62,297.3454 896,327 C930.7116,349.1941 965.7558,379.6632 991.8435,404.2797 " fill="none" style="stroke:#181818;stroke-width:1.0;"/><polygon fill="none" points="1492,225.1702,1486,243.1702,1498,243.1702,1492,225.1702" style="stroke:#181818;stroke-width:1.0;"/><path d="M1492,243.1702 C1492,280.2696 1492,313.2204 1492,356.8851 " fill="none" style="stroke:#181818;stroke-width:1.0;"/><polygon fill="none" points="630.146,311.1997,633.397,329.8928,643.9626,324.2036,630.146,311.1997" style="stroke:#181818;stroke-width:1.0;"/><path d="M638.6798,327.0482 C656.9465,360.9721 666.6262,378.9487 680.273,404.2928 " fill="none" style="stroke:#181818;stroke-width:1.0;"/><text fill="#888888" font-family="sans-serif" font-size="10" lengthAdjust="spacing" textLength="2.6" x="1073.2" y="558.69">&#160;</text><a href="https://github.com/talsma-ict/umldoclet" target="_top" title="https://github.com/talsma-ict/umldoclet" xlink:actuate="onRequest" xlink:href="https://github.com/talsma-ict/umldoclet" xlink:show="new" xlink:title="https://github.com/talsma-ict/umldoclet" xlink:type="simple"><text fill="#888888" font-family="sans-serif" font-size="10" lengthAdjust="spacing" textLength="76.7199" x="1036.14" y="572.31">UMLDoclet 2.2.1</text></a><!--SRC=[lLXRS-8s57xVNw5E7yfEi26akQo7IOT0jcM7RdOIyfJcGTW7x28aLvApORByzpsokTY6-9BEX1TZwNpdVEScMIA4aDz8NuHB6SnyJRGWsWyKkVzxH2Zto0muIAh18y62pa2H2J31PoeH148ZxGj9n3H-SuMKe4B1lO3Fo1VwH8aIaNH1sHy-aDZKUAFzErKfxPEb6Hm8bu4cZVx75ALE-_ZCwhGxfsHCcLfGCkoFxRMs7QPZT-nZWhfPu09Ng3BY7iYOLY-aBZv6oKoJF85KWU28QQ_r65TTmJKDk28XbLePbxunohNXUcoZ_T_jSzBetOsotDgVOcvDqfESHXwv5Vz5MtT_2IMT8MD6boBIH2r0KqxZAOMS5Q0fgZ5-ZfC0aEWSmunS5ZQwAlM4BkrGYXbeBQO1fmpiMmY52X0LO3fU4fpv1Lo3d58NoBq2kPLQaeU7x83jwmLxV4GiIVrUw4HfILsz8aTeoRjQNYzem1ftMc8oFpgnrXA44U5q0JlGJQWnqfHrpTJb5huwHBjF9HYU9e0wm_-LcQgE35NV1tSEtcSi86WWhL6WT3UZzR9GHuynuy3GKrlq2DlWia8yXbx3YDQ5zRXtAnZW8yVUJ3Q9cKk7znLVNecpXXc6BnVY_E0wkeSq6EiPT7QWQbw-Pah5w2WcFZHBKCPkRgJSi0UuMC3LyXlL_ixqamYy4gvPm3RkCO6IUFUa3jnSmFR6giPiawV6vi-ciDOQgzHMN4CrSKFLSrq8SQqUosZNGxNHsHQi3H-ghn5Z_milT3qL2gXqKxa_Z3gO-Hk96s4syVcXgddVorkYg4gwKHBarN90DKr00r1keQwrCwlifYJap5QXYS9KOkT-5t9kUwZK_ZUajjmv-N8W4bz2klEvEswIuU2oo6SMARzHrfcAFfa5ydCiV4VWMGFt51aZBlLM36Tigs68PEc4GJS5ljo4A3sMqNXaMScYCkHNLBk-PUqKnV125n8eibYZtuJ50lVsy1ZWsiRB09Q57o8t78oF0nGU5qiQNkMYA7WBKv30NJ28CldrVjouVgQBi6wsgYfgaZiXTQ6wLQqUAUcFleoyEWrYQlVj9VzggHySBrjSrndRxea527Z6SAeTPY9mqwUyD4LfQkKPJVHd6w4At1KHryQMEUAKVa9iVAZGOernhLxUSVzZcuOwxNm8NsCvsLi6LWSArlJ5MugsgFhgj-u6zBQQo4Cp7LrnjtESpDP6kZyig_BnpN6o9xDYmscZsT3NjVhAUQgw-VtirwUGFs-yOzIpnvLtD9mxhxndmFTE7E_eTlwZD-cmhjBBz2VqL0ZipzpwyTSo13aA-Bmlc93arul3i_VcieUXaR4Vk7CEIf5shg-xhPIzjQr_-CE3htMed5Ph5cW_cjZeLKl75qrMuEfMj61USiEKksl2at5oT_JdzXBBN0HPxGkhysbyVEQSdZid5_PPv-pyj7FIEJbgTvns- -4waYA4rgrOmEDF]--></g></svg>