<svg xmlns="http://www.w3.org/2000/svg" xmlns:xlink="http://www.w3.org/1999/xlink" contentStyleType="text/css" height="428px" preserveAspectRatio="none" style="width:601px;height:428px;background:#FFFFFF;" version="1.1" viewBox="0 0 601 428" width="601px" zoomAndPan="magnify"><defs/><g><!--cluster com.smartbay.progettofinale.Models--><g id="cluster_com.smartbay.progettofinale.Models"><path d="M16.5,4 L277.913,4 A3.75,3.75 0 0 1 280.413,6.5 L287.413,29.0679 L591.5,29.0679 A2.5,2.5 0 0 1 594,31.5679 L594,388.5 A2.5,2.5 0 0 1 591.5,391 L16.5,391 A2.5,2.5 0 0 1 14,388.5 L14,6.5 A2.5,2.5 0 0 1 16.5,4 " fill="none" style="stroke:#000000;stroke-width:1.5;"/><line style="stroke:#000000;stroke-width:1.5;" x1="14" x2="287.413" y1="29.0679" y2="29.0679"/><text fill="#000000" font-family="sans-serif" font-size="14" font-weight="bold" lengthAdjust="spacing" textLength="260.413" x="18" y="20.9659">com.smartbay.progettofinale.Models</text></g><!--class Image--><a href="Image.html" target="_top" title="Image.html" xlink:actuate="onRequest" xlink:href="Image.html" xlink:show="new" xlink:title="Image.html" xlink:type="simple"><g id="elem_Image"><rect codeLine="12" fill="#F1F1F1" height="48" id="Image" rx="2.5" ry="2.5" style="stroke:#181818;stroke-width:0.5;" width="74.1958" x="50" y="34"/><ellipse cx="65" cy="50" fill="#ADD1B2" rx="11" ry="11" style="stroke:#181818;stroke-width:1.0;"/><path d="M67.9688,55.6406 Q67.3906,55.9375 66.75,56.0781 Q66.1094,56.2344 65.4063,56.2344 Q62.9063,56.2344 61.5781,54.5938 Q60.2656,52.9375 60.2656,49.8125 Q60.2656,46.6875 61.5781,45.0313 Q62.9063,43.375 65.4063,43.375 Q66.1094,43.375 66.75,43.5313 Q67.4063,43.6875 67.9688,43.9844 L67.9688,46.7031 Q67.3438,46.125 66.75,45.8594 Q66.1563,45.5781 65.5313,45.5781 Q64.1875,45.5781 63.5,46.6563 Q62.8125,47.7188 62.8125,49.8125 Q62.8125,51.9063 63.5,52.9844 Q64.1875,54.0469 65.5313,54.0469 Q66.1563,54.0469 66.75,53.7813 Q67.3438,53.5 67.9688,52.9219 L67.9688,55.6406 Z " fill="#000000"/><text fill="#000000" font-family="sans-serif" font-size="14" lengthAdjust="spacing" textLength="42.1958" x="79" y="55.432">Image</text><line style="stroke:#181818;stroke-width:0.5;" x1="51" x2="123.1958" y1="66" y2="66"/><line style="stroke:#181818;stroke-width:0.5;" x1="51" x2="123.1958" y1="74" y2="74"/></g></a><!--class Ordine--><a href="Ordine.html" target="_top" title="Ordine.html" xlink:actuate="onRequest" xlink:href="Ordine.html" xlink:show="new" xlink:title="Ordine.html" xlink:type="simple"><g id="elem_Ordine"><rect codeLine="15" fill="#F1F1F1" height="48" id="Ordine" rx="2.5" ry="2.5" style="stroke:#181818;stroke-width:0.5;" width="77.4858" x="142.5" y="34"/><ellipse cx="157.5" cy="50" fill="#ADD1B2" rx="11" ry="11" style="stroke:#181818;stroke-width:1.0;"/><path d="M160.4688,55.6406 Q159.8906,55.9375 159.25,56.0781 Q158.6094,56.2344 157.9063,56.2344 Q155.4063,56.2344 154.0781,54.5938 Q152.7656,52.9375 152.7656,49.8125 Q152.7656,46.6875 154.0781,45.0313 Q155.4063,43.375 157.9063,43.375 Q158.6094,43.375 159.25,43.5313 Q159.9063,43.6875 160.4688,43.9844 L160.4688,46.7031 Q159.8438,46.125 159.25,45.8594 Q158.6563,45.5781 158.0313,45.5781 Q156.6875,45.5781 156,46.6563 Q155.3125,47.7188 155.3125,49.8125 Q155.3125,51.9063 156,52.9844 Q156.6875,54.0469 158.0313,54.0469 Q158.6563,54.0469 159.25,53.7813 Q159.8438,53.5 160.4688,52.9219 L160.4688,55.6406 Z " fill="#000000"/><text fill="#000000" font-family="sans-serif" font-size="14" lengthAdjust="spacing" textLength="45.4858" x="171.5" y="55.432">Ordine</text><line style="stroke:#181818;stroke-width:0.5;" x1="143.5" x2="218.9858" y1="66" y2="66"/><line style="stroke:#181818;stroke-width:0.5;" x1="143.5" x2="218.9858" y1="74" y2="74"/></g></a><!--class ArticoloOrdine--><a href="ArticoloOrdine.html" target="_top" title="ArticoloOrdine.html" xlink:actuate="onRequest" xlink:href="ArticoloOrdine.html" xlink:show="new" xlink:title="ArticoloOrdine.html" xlink:type="simple"><g id="elem_ArticoloOrdine"><rect codeLine="18" fill="#F1F1F1" height="48" id="ArticoloOrdine" rx="2.5" ry="2.5" style="stroke:#181818;stroke-width:0.5;" width="128.1516" x="238" y="34"/><ellipse cx="253" cy="50" fill="#ADD1B2" rx="11" ry="11" style="stroke:#181818;stroke-width:1.0;"/><path d="M255.9688,55.6406 Q255.3906,55.9375 254.75,56.0781 Q254.1094,56.2344 253.4063,56.2344 Q250.9063,56.2344 249.5781,54.5938 Q248.2656,52.9375 248.2656,49.8125 Q248.2656,46.6875 249.5781,45.0313 Q250.9063,43.375 253.4063,43.375 Q254.1094,43.375 254.75,43.5313 Q255.4063,43.6875 255.9688,43.9844 L255.9688,46.7031 Q255.3438,46.125 254.75,45.8594 Q254.1563,45.5781 253.5313,45.5781 Q252.1875,45.5781 251.5,46.6563 Q250.8125,47.7188 250.8125,49.8125 Q250.8125,51.9063 251.5,52.9844 Q252.1875,54.0469 253.5313,54.0469 Q254.1563,54.0469 254.75,53.7813 Q255.3438,53.5 255.9688,52.9219 L255.9688,55.6406 Z " fill="#000000"/><text fill="#000000" font-family="sans-serif" font-size="14" lengthAdjust="spacing" textLength="96.1516" x="267" y="55.432">ArticoloOrdine</text><line style="stroke:#181818;stroke-width:0.5;" x1="239" x2="365.1516" y1="66" y2="66"/><line style="stroke:#181818;stroke-width:0.5;" x1="239" x2="365.1516" y1="74" y2="74"/></g></a><!--class CareerRequest--><a href="CareerRequest.html" target="_top" title="CareerRequest.html" xlink:actuate="onRequest" xlink:href="CareerRequest.html" xlink:show="new" xlink:title="CareerRequest.html" xlink:type="simple"><g id="elem_CareerRequest"><rect codeLine="21" fill="#F1F1F1" height="48" id="CareerRequest" rx="2.5" ry="2.5" style="stroke:#181818;stroke-width:0.5;" width="129.5796" x="22" y="165.5"/><ellipse cx="37" cy="181.5" fill="#ADD1B2" rx="11" ry="11" style="stroke:#181818;stroke-width:1.0;"/><path d="M39.9688,187.1406 Q39.3906,187.4375 38.75,187.5781 Q38.1094,187.7344 37.4063,187.7344 Q34.9063,187.7344 33.5781,186.0938 Q32.2656,184.4375 32.2656,181.3125 Q32.2656,178.1875 33.5781,176.5313 Q34.9063,174.875 37.4063,174.875 Q38.1094,174.875 38.75,175.0313 Q39.4063,175.1875 39.9688,175.4844 L39.9688,178.2031 Q39.3438,177.625 38.75,177.3594 Q38.1563,177.0781 37.5313,177.0781 Q36.1875,177.0781 35.5,178.1563 Q34.8125,179.2188 34.8125,181.3125 Q34.8125,183.4063 35.5,184.4844 Q36.1875,185.5469 37.5313,185.5469 Q38.1563,185.5469 38.75,185.2813 Q39.3438,185 39.9688,184.4219 L39.9688,187.1406 Z " fill="#000000"/><text fill="#000000" font-family="sans-serif" font-size="14" lengthAdjust="spacing" textLength="97.5796" x="51" y="186.932">CareerRequest</text><line style="stroke:#181818;stroke-width:0.5;" x1="23" x2="150.5796" y1="197.5" y2="197.5"/><line style="stroke:#181818;stroke-width:0.5;" x1="23" x2="150.5796" y1="205.5" y2="205.5"/></g></a><!--class Carrello--><a href="Carrello.html" target="_top" title="Carrello.html" xlink:actuate="onRequest" xlink:href="Carrello.html" xlink:show="new" xlink:title="Carrello.html" xlink:type="simple"><g id="elem_Carrello"><rect codeLine="24" fill="#F1F1F1" height="143.3396" id="Carrello" rx="2.5" ry="2.5" style="stroke:#181818;stroke-width:0.5;" width="334.1948" x="170" y="118"/><ellipse cx="306.9195" cy="134" fill="#ADD1B2" rx="11" ry="11" style="stroke:#181818;stroke-width:1.0;"/><path d="M309.8883,139.6406 Q309.3101,139.9375 308.6695,140.0781 Q308.0289,140.2344 307.3258,140.2344 Q304.8258,140.2344 303.4976,138.5938 Q302.1851,136.9375 302.1851,133.8125 Q302.1851,130.6875 303.4976,129.0313 Q304.8258,127.375 307.3258,127.375 Q308.0289,127.375 308.6695,127.5313 Q309.3258,127.6875 309.8883,127.9844 L309.8883,130.7031 Q309.2633,130.125 308.6695,129.8594 Q308.0758,129.5781 307.4508,129.5781 Q306.107,129.5781 305.4195,130.6563 Q304.732,131.7188 304.732,133.8125 Q304.732,135.9063 305.4195,136.9844 Q306.107,138.0469 307.4508,138.0469 Q308.0758,138.0469 308.6695,137.7813 Q309.2633,137.5 309.8883,136.9219 L309.8883,139.6406 Z " fill="#000000"/><text fill="#000000" font-family="sans-serif" font-size="14" lengthAdjust="spacing" textLength="51.8558" x="327.4195" y="139.432">Carrello</text><line style="stroke:#181818;stroke-width:0.5;" x1="171" x2="503.1948" y1="150" y2="150"/><ellipse cx="181" cy="165.034" fill="none" rx="3" ry="3" style="stroke:#038048;stroke-width:1.0;"/><text fill="#000000" font-family="sans-serif" font-size="14" lengthAdjust="spacing" text-decoration="underline" textLength="94.6816" x="190" y="168.9659">maxArticle: int</text><line style="stroke:#181818;stroke-width:0.5;" x1="171" x2="503.1948" y1="177.0679" y2="177.0679"/><ellipse cx="181" cy="192.1019" fill="#84BE84" rx="3" ry="3" style="stroke:#038048;stroke-width:1.0;"/><text fill="#000000" font-family="sans-serif" font-size="14" lengthAdjust="spacing" textLength="269.149" x="190" y="196.0339">aggiornaQuantitaArticolo(Long, int): void</text><ellipse cx="181" cy="211.1698" fill="#84BE84" rx="3" ry="3" style="stroke:#038048;stroke-width:1.0;"/><text fill="#000000" font-family="sans-serif" font-size="14" lengthAdjust="spacing" textLength="177.6593" x="190" y="215.1018">rimuoviArticolo(Long): void</text><ellipse cx="181" cy="230.2377" fill="#84BE84" rx="3" ry="3" style="stroke:#038048;stroke-width:1.0;"/><text fill="#000000" font-family="sans-serif" font-size="14" lengthAdjust="spacing" textLength="87.4437" x="190" y="234.1697">svuota(): void</text><ellipse cx="181" cy="249.3056" fill="#84BE84" rx="3" ry="3" style="stroke:#038048;stroke-width:1.0;"/><text fill="#000000" font-family="sans-serif" font-size="14" lengthAdjust="spacing" textLength="308.1948" x="190" y="253.2376">getPrezzoTotale(ArticleRepository): BigDecimal</text></g></a><!--class User--><a href="User.html" target="_top" title="User.html" xlink:actuate="onRequest" xlink:href="User.html" xlink:show="new" xlink:title="User.html" xlink:type="simple"><g id="elem_User"><rect codeLine="32" fill="#F1F1F1" height="48" id="User" rx="2.5" ry="2.5" style="stroke:#181818;stroke-width:0.5;" width="62.6179" x="522.5" y="165.5"/><ellipse cx="537.5" cy="181.5" fill="#ADD1B2" rx="11" ry="11" style="stroke:#181818;stroke-width:1.0;"/><path d="M540.4688,187.1406 Q539.8906,187.4375 539.25,187.5781 Q538.6094,187.7344 537.9063,187.7344 Q535.4063,187.7344 534.0781,186.0938 Q532.7656,184.4375 532.7656,181.3125 Q532.7656,178.1875 534.0781,176.5313 Q535.4063,174.875 537.9063,174.875 Q538.6094,174.875 539.25,175.0313 Q539.9063,175.1875 540.4688,175.4844 L540.4688,178.2031 Q539.8438,177.625 539.25,177.3594 Q538.6563,177.0781 538.0313,177.0781 Q536.6875,177.0781 536,178.1563 Q535.3125,179.2188 535.3125,181.3125 Q535.3125,183.4063 536,184.4844 Q536.6875,185.5469 538.0313,185.5469 Q538.6563,185.5469 539.25,185.2813 Q539.8438,185 540.4688,184.4219 L540.4688,187.1406 Z " fill="#000000"/><text fill="#000000" font-family="sans-serif" font-size="14" lengthAdjust="spacing" textLength="30.6179" x="551.5" y="186.932">User</text><line style="stroke:#181818;stroke-width:0.5;" x1="523.5" x2="584.1179" y1="197.5" y2="197.5"/><line style="stroke:#181818;stroke-width:0.5;" x1="523.5" x2="584.1179" y1="205.5" y2="205.5"/></g></a><!--class Category--><a href="Category.html" target="_top" title="Category.html" xlink:actuate="onRequest" xlink:href="Category.html" xlink:show="new" xlink:title="Category.html" xlink:type="simple"><g id="elem_Category"><rect codeLine="35" fill="#F1F1F1" height="48" id="Category" rx="2.5" ry="2.5" style="stroke:#181818;stroke-width:0.5;" width="91.6538" x="41" y="316"/><ellipse cx="56" cy="332" fill="#ADD1B2" rx="11" ry="11" style="stroke:#181818;stroke-width:1.0;"/><path d="M58.9688,337.6406 Q58.3906,337.9375 57.75,338.0781 Q57.1094,338.2344 56.4063,338.2344 Q53.9063,338.2344 52.5781,336.5938 Q51.2656,334.9375 51.2656,331.8125 Q51.2656,328.6875 52.5781,327.0313 Q53.9063,325.375 56.4063,325.375 Q57.1094,325.375 57.75,325.5313 Q58.4063,325.6875 58.9688,325.9844 L58.9688,328.7031 Q58.3438,328.125 57.75,327.8594 Q57.1563,327.5781 56.5313,327.5781 Q55.1875,327.5781 54.5,328.6563 Q53.8125,329.7188 53.8125,331.8125 Q53.8125,333.9063 54.5,334.9844 Q55.1875,336.0469 56.5313,336.0469 Q57.1563,336.0469 57.75,335.7813 Q58.3438,335.5 58.9688,334.9219 L58.9688,337.6406 Z " fill="#000000"/><text fill="#000000" font-family="sans-serif" font-size="14" lengthAdjust="spacing" textLength="59.6538" x="70" y="337.432">Category</text><line style="stroke:#181818;stroke-width:0.5;" x1="42" x2="131.6538" y1="348" y2="348"/><line style="stroke:#181818;stroke-width:0.5;" x1="42" x2="131.6538" y1="356" y2="356"/></g></a><!--class Article--><a href="Article.html" target="_top" title="Article.html" xlink:actuate="onRequest" xlink:href="Article.html" xlink:show="new" xlink:title="Article.html" xlink:type="simple"><g id="elem_Article"><rect codeLine="38" fill="#F1F1F1" height="86.1358" id="Article" rx="2.5" ry="2.5" style="stroke:#181818;stroke-width:0.5;" width="215.2093" x="151.5" y="297"/><ellipse cx="234.0437" cy="313" fill="#ADD1B2" rx="11" ry="11" style="stroke:#181818;stroke-width:1.0;"/><path d="M237.0125,318.6406 Q236.4343,318.9375 235.7937,319.0781 Q235.1531,319.2344 234.45,319.2344 Q231.95,319.2344 230.6218,317.5938 Q229.3093,315.9375 229.3093,312.8125 Q229.3093,309.6875 230.6218,308.0313 Q231.95,306.375 234.45,306.375 Q235.1531,306.375 235.7937,306.5313 Q236.45,306.6875 237.0125,306.9844 L237.0125,309.7031 Q236.3875,309.125 235.7937,308.8594 Q235.2,308.5781 234.575,308.5781 Q233.2312,308.5781 232.5437,309.6563 Q231.8562,310.7188 231.8562,312.8125 Q231.8562,314.9063 232.5437,315.9844 Q233.2312,317.0469 234.575,317.0469 Q235.2,317.0469 235.7937,316.7813 Q236.3875,316.5 237.0125,315.9219 L237.0125,318.6406 Z " fill="#000000"/><text fill="#000000" font-family="sans-serif" font-size="14" lengthAdjust="spacing" textLength="41.6218" x="254.5437" y="318.432">Article</text><line style="stroke:#181818;stroke-width:0.5;" x1="152.5" x2="365.7093" y1="329" y2="329"/><line style="stroke:#181818;stroke-width:0.5;" x1="152.5" x2="365.7093" y1="337" y2="337"/><ellipse cx="162.5" cy="352.034" fill="#84BE84" rx="3" ry="3" style="stroke:#038048;stroke-width:1.0;"/><text fill="#000000" font-family="sans-serif" font-size="14" lengthAdjust="spacing" textLength="163.3094" x="171.5" y="355.9659">getIsAccepted(): Boolean</text><ellipse cx="162.5" cy="371.1019" fill="#84BE84" rx="3" ry="3" style="stroke:#038048;stroke-width:1.0;"/><text fill="#000000" font-family="sans-serif" font-size="14" lengthAdjust="spacing" textLength="189.2093" x="171.5" y="375.0339">setIsAccepted(Boolean): void</text></g></a><!--class Role--><a href="Role.html" target="_top" title="Role.html" xlink:actuate="onRequest" xlink:href="Role.html" xlink:show="new" xlink:title="Role.html" xlink:type="simple"><g id="elem_Role"><rect codeLine="43" fill="#F1F1F1" height="48" id="Role" rx="2.5" ry="2.5" style="stroke:#181818;stroke-width:0.5;" width="60.6859" x="384.5" y="316"/><ellipse cx="399.5" cy="332" fill="#ADD1B2" rx="11" ry="11" style="stroke:#181818;stroke-width:1.0;"/><path d="M402.4688,337.6406 Q401.8906,337.9375 401.25,338.0781 Q400.6094,338.2344 399.9063,338.2344 Q397.4063,338.2344 396.0781,336.5938 Q394.7656,334.9375 394.7656,331.8125 Q394.7656,328.6875 396.0781,327.0313 Q397.4063,325.375 399.9063,325.375 Q400.6094,325.375 401.25,325.5313 Q401.9063,325.6875 402.4688,325.9844 L402.4688,328.7031 Q401.8438,328.125 401.25,327.8594 Q400.6563,327.5781 400.0313,327.5781 Q398.6875,327.5781 398,328.6563 Q397.3125,329.7188 397.3125,331.8125 Q397.3125,333.9063 398,334.9844 Q398.6875,336.0469 400.0313,336.0469 Q400.6563,336.0469 401.25,335.7813 Q401.8438,335.5 402.4688,334.9219 L402.4688,337.6406 Z " fill="#000000"/><text fill="#000000" font-family="sans-serif" font-size="14" lengthAdjust="spacing" textLength="28.6859" x="413.5" y="337.432">Role</text><line style="stroke:#181818;stroke-width:0.5;" x1="385.5" x2="444.1859" y1="348" y2="348"/><line style="stroke:#181818;stroke-width:0.5;" x1="385.5" x2="444.1859" y1="356" y2="356"/></g></a><text fill="#888888" font-family="sans-serif" font-size="10" lengthAdjust="spacing" textLength="2.6" x="291.2" y="403.69">&#160;</text><a href="https://github.com/talsma-ict/umldoclet" target="_top" title="https://github.com/talsma-ict/umldoclet" xlink:actuate="onRequest" xlink:href="https://github.com/talsma-ict/umldoclet" xlink:show="new" xlink:title="https://github.com/talsma-ict/umldoclet" xlink:type="simple"><text fill="#888888" font-family="sans-serif" font-size="10" lengthAdjust="spacing" textLength="76.7199" x="254.14" y="417.31">UMLDoclet 2.2.1</text></a><!--SRC=[ZLHHJzim47xdLzoqXnL1qpI3hLJJf5AcmLGqrfMdhWzkSgGMZY-pdMu1yTztJahNb28rBsV7ttVttPrz003lO4XvQMIwSE08t49QkBqUWT09fAZH28S9o4oaQ66EYdHgQo22ADo23D1TjOl96BGvwKJg5Bw9fG1BXOdH1WS7K8MQF7l_8-o6ztdfVrvGhD11QtYu8IaAkn_QKHYTmaGecmcu6aw2bRV_d2Y8WYwmRoLZr9PT5Zf1KyaQv29cCwfFZc69nahIp0bNVdogCMadfBQG2-EiJ-b62Usyrcx0yK-2Zz0Q_1mrjOLdbRPZ61WjYWJ6zBjOf_icDo9bnKgKL3Ym6JgXHNLaMRD53YKSrw_Vhmaiz9xBp5goW5CrRYxA83UKedDq9xLG65nJWih2OytmNwo4jN3b6mJJQMM3XSlKRCQePz3JDlwxuIvvGhtOWp4mJiQaQCri_jZ3mr0OH3D6NoF73Xhx_VW6bQAQMYrVilptQ9rWRKzmb8c_bKo5VP3QDL178aqbSUD-5DnfwSHpGgqHN_9ZZp_imv9aqgGPcHMqb0tqJg1T5kH4Q-SPz_J6uCC3JHYYiBLIESQShEHBKJBhNAON6FFJKw_NvDRoDPzElTchWWvJTbvLi5xkstcrRhd2tLNtELtPGHnZpe_QftrEf53ehQeqK2l8TerUQ1XJ9S2RLnMlp2VhIeMVrwTtH8wBr1HxMUPeHbBV3xc51jxsTf_U-Z6Y-7hpv8hlDRAIS2Di5Qwp4MyLwvUUJXVEvRRVwQJIBOfvm8-wuweHrfQnwnIPIkhPjJN5PhFLLFgw7ez-nBJ3NljzTnA5_R3N3yFWj7TsTjBjTQEZCEBzz4jXACVEc3AS_GC0]--></g></svg>