<svg xmlns="http://www.w3.org/2000/svg" xmlns:xlink="http://www.w3.org/1999/xlink" contentStyleType="text/css" height="295px" preserveAspectRatio="none" style="width:557px;height:295px;background:#FFFFFF;" version="1.1" viewBox="0 0 557 295" width="557px" zoomAndPan="magnify"><defs/><g><!--cluster com.smartbay.progettofinale.DTO--><g id="cluster_com.smartbay.progettofinale.DTO"><path d="M16.5,4 L257.2911,4 A3.75,3.75 0 0 1 259.7911,6.5 L266.7911,29.0679 L547.5,29.0679 A2.5,2.5 0 0 1 550,31.5679 L550,255.5 A2.5,2.5 0 0 1 547.5,258 L16.5,258 A2.5,2.5 0 0 1 14,255.5 L14,6.5 A2.5,2.5 0 0 1 16.5,4 " fill="none" style="stroke:#000000;stroke-width:1.5;"/><line style="stroke:#000000;stroke-width:1.5;" x1="14" x2="266.7911" y1="29.0679" y2="29.0679"/><text fill="#000000" font-family="sans-serif" font-size="14" font-weight="bold" lengthAdjust="spacing" textLength="239.7911" x="18" y="20.9659">com.smartbay.progettofinale.DTO</text></g><!--class AggiornaArticoloCarrelloRequest--><a href="AggiornaArticoloCarrelloRequest.html" target="_top" title="AggiornaArticoloCarrelloRequest.html" xlink:actuate="onRequest" xlink:href="AggiornaArticoloCarrelloRequest.html" xlink:show="new" xlink:title="AggiornaArticoloCarrelloRequest.html" xlink:type="simple"><g id="elem_AggiornaArticoloCarrelloRequest"><rect codeLine="12" fill="#F1F1F1" height="48" id="AggiornaArticoloCarrelloRequest" rx="2.5" ry="2.5" style="stroke:#181818;stroke-width:0.5;" width="248.5792" x="22.5" y="34"/><ellipse cx="37.5" cy="50" fill="#ADD1B2" rx="11" ry="11" style="stroke:#181818;stroke-width:1.0;"/><path d="M40.4688,55.6406 Q39.8906,55.9375 39.25,56.0781 Q38.6094,56.2344 37.9063,56.2344 Q35.4063,56.2344 34.0781,54.5938 Q32.7656,52.9375 32.7656,49.8125 Q32.7656,46.6875 34.0781,45.0313 Q35.4063,43.375 37.9063,43.375 Q38.6094,43.375 39.25,43.5313 Q39.9063,43.6875 40.4688,43.9844 L40.4688,46.7031 Q39.8438,46.125 39.25,45.8594 Q38.6563,45.5781 38.0313,45.5781 Q36.6875,45.5781 36,46.6563 Q35.3125,47.7188 35.3125,49.8125 Q35.3125,51.9063 36,52.9844 Q36.6875,54.0469 38.0313,54.0469 Q38.6563,54.0469 39.25,53.7813 Q39.8438,53.5 40.4688,52.9219 L40.4688,55.6406 Z " fill="#000000"/><text fill="#000000" font-family="sans-serif" font-size="14" lengthAdjust="spacing" textLength="216.5792" x="51.5" y="55.432">AggiornaArticoloCarrelloRequest</text><line style="stroke:#181818;stroke-width:0.5;" x1="23.5" x2="270.0792" y1="66" y2="66"/><line style="stroke:#181818;stroke-width:0.5;" x1="23.5" x2="270.0792" y1="74" y2="74"/></g></a><!--class CategoryDTO--><a href="CategoryDTO.html" target="_top" title="CategoryDTO.html" xlink:actuate="onRequest" xlink:href="CategoryDTO.html" xlink:show="new" xlink:title="CategoryDTO.html" xlink:type="simple"><g id="elem_CategoryDTO"><rect codeLine="15" fill="#F1F1F1" height="48" id="CategoryDTO" rx="2.5" ry="2.5" style="stroke:#181818;stroke-width:0.5;" width="120.5917" x="289.5" y="34"/><ellipse cx="304.5" cy="50" fill="#ADD1B2" rx="11" ry="11" style="stroke:#181818;stroke-width:1.0;"/><path d="M307.4688,55.6406 Q306.8906,55.9375 306.25,56.0781 Q305.6094,56.2344 304.9063,56.2344 Q302.4063,56.2344 301.0781,54.5938 Q299.7656,52.9375 299.7656,49.8125 Q299.7656,46.6875 301.0781,45.0313 Q302.4063,43.375 304.9063,43.375 Q305.6094,43.375 306.25,43.5313 Q306.9063,43.6875 307.4688,43.9844 L307.4688,46.7031 Q306.8438,46.125 306.25,45.8594 Q305.6563,45.5781 305.0313,45.5781 Q303.6875,45.5781 303,46.6563 Q302.3125,47.7188 302.3125,49.8125 Q302.3125,51.9063 303,52.9844 Q303.6875,54.0469 305.0313,54.0469 Q305.6563,54.0469 306.25,53.7813 Q306.8438,53.5 307.4688,52.9219 L307.4688,55.6406 Z " fill="#000000"/><text fill="#000000" font-family="sans-serif" font-size="14" lengthAdjust="spacing" textLength="88.5917" x="318.5" y="55.432">CategoryDTO</text><line style="stroke:#181818;stroke-width:0.5;" x1="290.5" x2="409.0917" y1="66" y2="66"/><line style="stroke:#181818;stroke-width:0.5;" x1="290.5" x2="409.0917" y1="74" y2="74"/></g></a><!--class CarrelloDTO--><a href="CarrelloDTO.html" target="_top" title="CarrelloDTO.html" xlink:actuate="onRequest" xlink:href="CarrelloDTO.html" xlink:show="new" xlink:title="CarrelloDTO.html" xlink:type="simple"><g id="elem_CarrelloDTO"><rect codeLine="18" fill="#F1F1F1" height="48" id="CarrelloDTO" rx="2.5" ry="2.5" style="stroke:#181818;stroke-width:0.5;" width="112.7937" x="428.5" y="34"/><ellipse cx="443.5" cy="50" fill="#ADD1B2" rx="11" ry="11" style="stroke:#181818;stroke-width:1.0;"/><path d="M446.4688,55.6406 Q445.8906,55.9375 445.25,56.0781 Q444.6094,56.2344 443.9063,56.2344 Q441.4063,56.2344 440.0781,54.5938 Q438.7656,52.9375 438.7656,49.8125 Q438.7656,46.6875 440.0781,45.0313 Q441.4063,43.375 443.9063,43.375 Q444.6094,43.375 445.25,43.5313 Q445.9063,43.6875 446.4688,43.9844 L446.4688,46.7031 Q445.8438,46.125 445.25,45.8594 Q444.6563,45.5781 444.0313,45.5781 Q442.6875,45.5781 442,46.6563 Q441.3125,47.7188 441.3125,49.8125 Q441.3125,51.9063 442,52.9844 Q442.6875,54.0469 444.0313,54.0469 Q444.6563,54.0469 445.25,53.7813 Q445.8438,53.5 446.4688,52.9219 L446.4688,55.6406 Z " fill="#000000"/><text fill="#000000" font-family="sans-serif" font-size="14" lengthAdjust="spacing" textLength="80.7937" x="457.5" y="55.432">CarrelloDTO</text><line style="stroke:#181818;stroke-width:0.5;" x1="429.5" x2="540.2937" y1="66" y2="66"/><line style="stroke:#181818;stroke-width:0.5;" x1="429.5" x2="540.2937" y1="74" y2="74"/></g></a><!--class OrdineDTO--><a href="OrdineDTO.html" target="_top" title="OrdineDTO.html" xlink:actuate="onRequest" xlink:href="OrdineDTO.html" xlink:show="new" xlink:title="OrdineDTO.html" xlink:type="simple"><g id="elem_OrdineDTO"><rect codeLine="21" fill="#F1F1F1" height="48" id="OrdineDTO" rx="2.5" ry="2.5" style="stroke:#181818;stroke-width:0.5;" width="106.4237" x="85" y="118"/><ellipse cx="100" cy="134" fill="#ADD1B2" rx="11" ry="11" style="stroke:#181818;stroke-width:1.0;"/><path d="M102.9688,139.6406 Q102.3906,139.9375 101.75,140.0781 Q101.1094,140.2344 100.4063,140.2344 Q97.9063,140.2344 96.5781,138.5938 Q95.2656,136.9375 95.2656,133.8125 Q95.2656,130.6875 96.5781,129.0313 Q97.9063,127.375 100.4063,127.375 Q101.1094,127.375 101.75,127.5313 Q102.4063,127.6875 102.9688,127.9844 L102.9688,130.7031 Q102.3438,130.125 101.75,129.8594 Q101.1563,129.5781 100.5313,129.5781 Q99.1875,129.5781 98.5,130.6563 Q97.8125,131.7188 97.8125,133.8125 Q97.8125,135.9063 98.5,136.9844 Q99.1875,138.0469 100.5313,138.0469 Q101.1563,138.0469 101.75,137.7813 Q102.3438,137.5 102.9688,136.9219 L102.9688,139.6406 Z " fill="#000000"/><text fill="#000000" font-family="sans-serif" font-size="14" lengthAdjust="spacing" textLength="74.4237" x="114" y="139.432">OrdineDTO</text><line style="stroke:#181818;stroke-width:0.5;" x1="86" x2="190.4237" y1="150" y2="150"/><line style="stroke:#181818;stroke-width:0.5;" x1="86" x2="190.4237" y1="158" y2="158"/></g></a><!--class ArticoloQuantitaDTO--><a href="ArticoloQuantitaDTO.html" target="_top" title="ArticoloQuantitaDTO.html" xlink:actuate="onRequest" xlink:href="ArticoloQuantitaDTO.html" xlink:show="new" xlink:title="ArticoloQuantitaDTO.html" xlink:type="simple"><g id="elem_ArticoloQuantitaDTO"><rect codeLine="24" fill="#F1F1F1" height="48" id="ArticoloQuantitaDTO" rx="2.5" ry="2.5" style="stroke:#181818;stroke-width:0.5;" width="169.2695" x="209.5" y="118"/><ellipse cx="224.5" cy="134" fill="#ADD1B2" rx="11" ry="11" style="stroke:#181818;stroke-width:1.0;"/><path d="M227.4688,139.6406 Q226.8906,139.9375 226.25,140.0781 Q225.6094,140.2344 224.9063,140.2344 Q222.4063,140.2344 221.0781,138.5938 Q219.7656,136.9375 219.7656,133.8125 Q219.7656,130.6875 221.0781,129.0313 Q222.4063,127.375 224.9063,127.375 Q225.6094,127.375 226.25,127.5313 Q226.9063,127.6875 227.4688,127.9844 L227.4688,130.7031 Q226.8438,130.125 226.25,129.8594 Q225.6563,129.5781 225.0313,129.5781 Q223.6875,129.5781 223,130.6563 Q222.3125,131.7188 222.3125,133.8125 Q222.3125,135.9063 223,136.9844 Q223.6875,138.0469 225.0313,138.0469 Q225.6563,138.0469 226.25,137.7813 Q226.8438,137.5 227.4688,136.9219 L227.4688,139.6406 Z " fill="#000000"/><text fill="#000000" font-family="sans-serif" font-size="14" lengthAdjust="spacing" textLength="137.2695" x="238.5" y="139.432">ArticoloQuantitaDTO</text><line style="stroke:#181818;stroke-width:0.5;" x1="210.5" x2="377.7695" y1="150" y2="150"/><line style="stroke:#181818;stroke-width:0.5;" x1="210.5" x2="377.7695" y1="158" y2="158"/></g></a><!--class PersonalInfoDTO--><a href="PersonalInfoDTO.html" target="_top" title="PersonalInfoDTO.html" xlink:actuate="onRequest" xlink:href="PersonalInfoDTO.html" xlink:show="new" xlink:title="PersonalInfoDTO.html" xlink:type="simple"><g id="elem_PersonalInfoDTO"><rect codeLine="27" fill="#F1F1F1" height="48" id="PersonalInfoDTO" rx="2.5" ry="2.5" style="stroke:#181818;stroke-width:0.5;" width="145.0636" x="396.5" y="118"/><ellipse cx="411.5" cy="134" fill="#ADD1B2" rx="11" ry="11" style="stroke:#181818;stroke-width:1.0;"/><path d="M414.4688,139.6406 Q413.8906,139.9375 413.25,140.0781 Q412.6094,140.2344 411.9063,140.2344 Q409.4063,140.2344 408.0781,138.5938 Q406.7656,136.9375 406.7656,133.8125 Q406.7656,130.6875 408.0781,129.0313 Q409.4063,127.375 411.9063,127.375 Q412.6094,127.375 413.25,127.5313 Q413.9063,127.6875 414.4688,127.9844 L414.4688,130.7031 Q413.8438,130.125 413.25,129.8594 Q412.6563,129.5781 412.0313,129.5781 Q410.6875,129.5781 410,130.6563 Q409.3125,131.7188 409.3125,133.8125 Q409.3125,135.9063 410,136.9844 Q410.6875,138.0469 412.0313,138.0469 Q412.6563,138.0469 413.25,137.7813 Q413.8438,137.5 414.4688,136.9219 L414.4688,139.6406 Z " fill="#000000"/><text fill="#000000" font-family="sans-serif" font-size="14" lengthAdjust="spacing" textLength="113.0636" x="425.5" y="139.432">PersonalInfoDTO</text><line style="stroke:#181818;stroke-width:0.5;" x1="397.5" x2="540.5636" y1="150" y2="150"/><line style="stroke:#181818;stroke-width:0.5;" x1="397.5" x2="540.5636" y1="158" y2="158"/></g></a><!--class ArticleDTO--><a href="ArticleDTO.html" target="_top" title="ArticleDTO.html" xlink:actuate="onRequest" xlink:href="ArticleDTO.html" xlink:show="new" xlink:title="ArticleDTO.html" xlink:type="simple"><g id="elem_ArticleDTO"><rect codeLine="30" fill="#F1F1F1" height="48" id="ArticleDTO" rx="2.5" ry="2.5" style="stroke:#181818;stroke-width:0.5;" width="102.5597" x="86.5" y="202"/><ellipse cx="101.5" cy="218" fill="#ADD1B2" rx="11" ry="11" style="stroke:#181818;stroke-width:1.0;"/><path d="M104.4688,223.6406 Q103.8906,223.9375 103.25,224.0781 Q102.6094,224.2344 101.9063,224.2344 Q99.4063,224.2344 98.0781,222.5938 Q96.7656,220.9375 96.7656,217.8125 Q96.7656,214.6875 98.0781,213.0313 Q99.4063,211.375 101.9063,211.375 Q102.6094,211.375 103.25,211.5313 Q103.9063,211.6875 104.4688,211.9844 L104.4688,214.7031 Q103.8438,214.125 103.25,213.8594 Q102.6563,213.5781 102.0313,213.5781 Q100.6875,213.5781 100,214.6563 Q99.3125,215.7188 99.3125,217.8125 Q99.3125,219.9063 100,220.9844 Q100.6875,222.0469 102.0313,222.0469 Q102.6563,222.0469 103.25,221.7813 Q103.8438,221.5 104.4688,220.9219 L104.4688,223.6406 Z " fill="#000000"/><text fill="#000000" font-family="sans-serif" font-size="14" lengthAdjust="spacing" textLength="70.5597" x="115.5" y="223.432">ArticleDTO</text><line style="stroke:#181818;stroke-width:0.5;" x1="87.5" x2="188.0597" y1="234" y2="234"/><line style="stroke:#181818;stroke-width:0.5;" x1="87.5" x2="188.0597" y1="242" y2="242"/></g></a><!--class UserDTO--><a href="UserDTO.html" target="_top" title="UserDTO.html" xlink:actuate="onRequest" xlink:href="UserDTO.html" xlink:show="new" xlink:title="UserDTO.html" xlink:type="simple"><g id="elem_UserDTO"><rect codeLine="33" fill="#F1F1F1" height="48" id="UserDTO" rx="2.5" ry="2.5" style="stroke:#181818;stroke-width:0.5;" width="91.5558" x="208" y="202"/><ellipse cx="223" cy="218" fill="#ADD1B2" rx="11" ry="11" style="stroke:#181818;stroke-width:1.0;"/><path d="M225.9688,223.6406 Q225.3906,223.9375 224.75,224.0781 Q224.1094,224.2344 223.4063,224.2344 Q220.9063,224.2344 219.5781,222.5938 Q218.2656,220.9375 218.2656,217.8125 Q218.2656,214.6875 219.5781,213.0313 Q220.9063,211.375 223.4063,211.375 Q224.1094,211.375 224.75,211.5313 Q225.4063,211.6875 225.9688,211.9844 L225.9688,214.7031 Q225.3438,214.125 224.75,213.8594 Q224.1563,213.5781 223.5313,213.5781 Q222.1875,213.5781 221.5,214.6563 Q220.8125,215.7188 220.8125,217.8125 Q220.8125,219.9063 221.5,220.9844 Q222.1875,222.0469 223.5313,222.0469 Q224.1563,222.0469 224.75,221.7813 Q225.3438,221.5 225.9688,220.9219 L225.9688,223.6406 Z " fill="#000000"/><text fill="#000000" font-family="sans-serif" font-size="14" lengthAdjust="spacing" textLength="59.5558" x="237" y="223.432">UserDTO</text><line style="stroke:#181818;stroke-width:0.5;" x1="209" x2="298.5558" y1="234" y2="234"/><line style="stroke:#181818;stroke-width:0.5;" x1="209" x2="298.5558" y1="242" y2="242"/></g></a><!--class UserInfoDTO--><a href="UserInfoDTO.html" target="_top" title="UserInfoDTO.html" xlink:actuate="onRequest" xlink:href="UserInfoDTO.html" xlink:show="new" xlink:title="UserInfoDTO.html" xlink:type="simple"><g id="elem_UserInfoDTO"><rect codeLine="36" fill="#F1F1F1" height="48" id="UserInfoDTO" rx="2.5" ry="2.5" style="stroke:#181818;stroke-width:0.5;" width="118.2397" x="318" y="202"/><ellipse cx="333" cy="218" fill="#ADD1B2" rx="11" ry="11" style="stroke:#181818;stroke-width:1.0;"/><path d="M335.9688,223.6406 Q335.3906,223.9375 334.75,224.0781 Q334.1094,224.2344 333.4063,224.2344 Q330.9063,224.2344 329.5781,222.5938 Q328.2656,220.9375 328.2656,217.8125 Q328.2656,214.6875 329.5781,213.0313 Q330.9063,211.375 333.4063,211.375 Q334.1094,211.375 334.75,211.5313 Q335.4063,211.6875 335.9688,211.9844 L335.9688,214.7031 Q335.3438,214.125 334.75,213.8594 Q334.1563,213.5781 333.5313,213.5781 Q332.1875,213.5781 331.5,214.6563 Q330.8125,215.7188 330.8125,217.8125 Q330.8125,219.9063 331.5,220.9844 Q332.1875,222.0469 333.5313,222.0469 Q334.1563,222.0469 334.75,221.7813 Q335.3438,221.5 335.9688,220.9219 L335.9688,223.6406 Z " fill="#000000"/><text fill="#000000" font-family="sans-serif" font-size="14" lengthAdjust="spacing" textLength="86.2397" x="347" y="223.432">UserInfoDTO</text><line style="stroke:#181818;stroke-width:0.5;" x1="319" x2="435.2397" y1="234" y2="234"/><line style="stroke:#181818;stroke-width:0.5;" x1="319" x2="435.2397" y1="242" y2="242"/></g></a><text fill="#888888" font-family="sans-serif" font-size="10" lengthAdjust="spacing" textLength="2.6" x="269.2" y="270.69">&#160;</text><a href="https://github.com/talsma-ict/umldoclet" target="_top" title="https://github.com/talsma-ict/umldoclet" xlink:actuate="onRequest" xlink:href="https://github.com/talsma-ict/umldoclet" xlink:show="new" xlink:title="https://github.com/talsma-ict/umldoclet" xlink:type="simple"><text fill="#888888" font-family="sans-serif" font-size="10" lengthAdjust="spacing" textLength="76.7199" x="232.14" y="284.31">UMLDoclet 2.2.1</text></a><!--SRC=[ZLJTRzCm47_VNt681uPOqpGjQnSXfAf3C5IqKTgdq0StlQRM73lObw48yRzp-MWRgY7Y5_ji_pxEzXa0u1NCJ5POcUm9o03jfOFLbpa8lOK4DLf1k0MPYWGTR50PdRXw8uB8QMyic5qLnSPQT9dHMwaJ-2oU13YJsnYTTt41bTJomFvJk1RxfYWdRqsiaE1ozhfbAV07rxt03zx2KYYN2hYRBRs6xOG9lC0R07Ch6QDsJ9dhBThArZGJCNVpUkKAdj0wQJHZ_8QdJ3KsceJK3Z9XoPKfFIYXgVGwy5X_v8tXSlfj_hSt_wRoTWLJgqM-XONvaH_JVP5PaR1Z9GgJ4xWKIMXHBJdsx92b1F7vXM4DOAEFVCpi9VKuLKiRKNYPDGaIcPtKGg5tkxo7N_NsiiLAE0VJ99667KmjoTWeCnDy4qgP1PPs2ABeFpkyFQLglMRc0_7lSuqPtrHYR54QYA9Mr0bRgnsmnwW3zjxoSy8QUHntm1qo_PhpDKeIDSCpinsu7lZ963x-ExrhSZYRwUf7OSk6wfZ9og6jOSse8-RajXNz4zjqxnmL2jyVLtV641VIQNlPFXKPshdKZpC-IWil9y-lhieQL7nZNFRneqRsvRTaAxb-Iw_H-gwZQ4-KkR3VJoJjyut75T6dglvxCgP-dgfjNVXdNy1wtPJqn-FVKjPdpv_qWflbm0-7GJWSU-FHP38SNO-6R_mWzFteGsvDXls5IN7z1m00]--></g></svg>