<svg xmlns="http://www.w3.org/2000/svg" xmlns:xlink="http://www.w3.org/1999/xlink" contentStyleType="text/css" height="640px" preserveAspectRatio="none" style="width:1604px;height:640px;background:#FFFFFF;" version="1.1" viewBox="0 0 1604 640" width="1604px" zoomAndPan="magnify"><defs/><g><!--cluster com.smartbay.progettofinale.Config--><g id="cluster_com.smartbay.progettofinale.Config"><path d="M127.5,460 L384.0131,460 A3.75,3.75 0 0 1 386.5131,462.5 L393.5131,485.0679 L1594.5,485.0679 A2.5,2.5 0 0 1 1597,487.5679 L1597,600.5 A2.5,2.5 0 0 1 1594.5,603 L127.5,603 A2.5,2.5 0 0 1 125,600.5 L125,462.5 A2.5,2.5 0 0 1 127.5,460 " fill="none" style="stroke:#000000;stroke-width:1.5;"/><line style="stroke:#000000;stroke-width:1.5;" x1="125" x2="393.5131" y1="485.0679" y2="485.0679"/><text fill="#000000" font-family="sans-serif" font-size="14" font-weight="bold" lengthAdjust="spacing" textLength="255.5131" x="129" y="476.9659">com.smartbay.progettofinale.Config</text></g><!--cluster org.springframework.web.servlet.config.annotation--><g id="cluster_org.springframework.web.servlet.config.annotation"><path d="M16.5,4 L382.9407,4 A3.75,3.75 0 0 1 385.4407,6.5 L392.4407,29.0679 L553.5,29.0679 A2.5,2.5 0 0 1 556,31.5679 L556,449.5 A2.5,2.5 0 0 1 553.5,452 L16.5,452 A2.5,2.5 0 0 1 14,449.5 L14,6.5 A2.5,2.5 0 0 1 16.5,4 " fill="none" style="stroke:#000000;stroke-width:1.5;"/><line style="stroke:#000000;stroke-width:1.5;" x1="14" x2="392.4407" y1="29.0679" y2="29.0679"/><text fill="#000000" font-family="sans-serif" font-size="14" font-weight="bold" lengthAdjust="spacing" textLength="365.4407" x="18" y="20.9659">org.springframework.web.servlet.config.annotation</text></g><!--cluster org.springframework.web.servlet--><g id="cluster_org.springframework.web.servlet"><path d="M1009.5,156.5 L1246.0911,156.5 A3.75,3.75 0 0 1 1248.5911,159 L1255.5911,181.5679 L1594.5,181.5679 A2.5,2.5 0 0 1 1597,184.0679 L1597,297 A2.5,2.5 0 0 1 1594.5,299.5 L1009.5,299.5 A2.5,2.5 0 0 1 1007,297 L1007,159 A2.5,2.5 0 0 1 1009.5,156.5 " fill="none" style="stroke:#000000;stroke-width:1.5;"/><line style="stroke:#000000;stroke-width:1.5;" x1="1007" x2="1255.5911" y1="181.5679" y2="181.5679"/><text fill="#000000" font-family="sans-serif" font-size="14" font-weight="bold" lengthAdjust="spacing" textLength="235.5911" x="1011" y="173.4659">org.springframework.web.servlet</text></g><!--class WebConfig--><a href="WebConfig.html" target="_top" title="WebConfig.html" xlink:actuate="onRequest" xlink:href="WebConfig.html" xlink:show="new" xlink:title="WebConfig.html" xlink:type="simple"><g id="elem_WebConfig"><rect codeLine="12" fill="#F1F1F1" height="67.0679" id="WebConfig" rx="2.5" ry="2.5" style="stroke:#181818;stroke-width:0.5;" width="304.207" x="133" y="509"/><ellipse cx="244.5866" cy="525" fill="#ADD1B2" rx="11" ry="11" style="stroke:#181818;stroke-width:1.0;"/><path d="M247.5554,530.6406 Q246.9773,530.9375 246.3366,531.0781 Q245.696,531.2344 244.9929,531.2344 Q242.4929,531.2344 241.1648,529.5938 Q239.8523,527.9375 239.8523,524.8125 Q239.8523,521.6875 241.1648,520.0313 Q242.4929,518.375 244.9929,518.375 Q245.696,518.375 246.3366,518.5313 Q246.9929,518.6875 247.5554,518.9844 L247.5554,521.7031 Q246.9304,521.125 246.3366,520.8594 Q245.7429,520.5781 245.1179,520.5781 Q243.7741,520.5781 243.0866,521.6563 Q242.3991,522.7188 242.3991,524.8125 Q242.3991,526.9063 243.0866,527.9844 Q243.7741,529.0469 245.1179,529.0469 Q245.7429,529.0469 246.3366,528.7813 Q246.9304,528.5 247.5554,527.9219 L247.5554,530.6406 Z " fill="#000000"/><text fill="#000000" font-family="sans-serif" font-size="14" lengthAdjust="spacing" textLength="72.5337" x="265.0866" y="530.432">WebConfig</text><line style="stroke:#181818;stroke-width:0.5;" x1="134" x2="436.207" y1="541" y2="541"/><line style="stroke:#181818;stroke-width:0.5;" x1="134" x2="436.207" y1="549" y2="549"/><ellipse cx="144" cy="564.034" fill="#84BE84" rx="3" ry="3" style="stroke:#038048;stroke-width:1.0;"/><text fill="#000000" font-family="sans-serif" font-size="14" lengthAdjust="spacing" textLength="278.207" x="153" y="567.9659">addInterceptors(InterceptorRegistry): void</text></g></a><!--class SecurityConfig--><a href="SecurityConfig.html" target="_top" title="SecurityConfig.html" xlink:actuate="onRequest" xlink:href="SecurityConfig.html" xlink:show="new" xlink:title="SecurityConfig.html" xlink:type="simple"><g id="elem_SecurityConfig"><rect codeLine="16" fill="#F1F1F1" height="105.2038" id="SecurityConfig" rx="2.5" ry="2.5" style="stroke:#181818;stroke-width:0.5;" width="541.114" x="455.5" y="490"/><ellipse cx="674.0322" cy="506" fill="#ADD1B2" rx="11" ry="11" style="stroke:#181818;stroke-width:1.0;"/><path d="M677.0009,511.6406 Q676.4228,511.9375 675.7822,512.0781 Q675.1416,512.2344 674.4384,512.2344 Q671.9384,512.2344 670.6103,510.5938 Q669.2978,508.9375 669.2978,505.8125 Q669.2978,502.6875 670.6103,501.0313 Q671.9384,499.375 674.4384,499.375 Q675.1416,499.375 675.7822,499.5313 Q676.4384,499.6875 677.0009,499.9844 L677.0009,502.7031 Q676.3759,502.125 675.7822,501.8594 Q675.1884,501.5781 674.5634,501.5781 Q673.2197,501.5781 672.5322,502.6563 Q671.8447,503.7188 671.8447,505.8125 Q671.8447,507.9063 672.5322,508.9844 Q673.2197,510.0469 674.5634,510.0469 Q675.1884,510.0469 675.7822,509.7813 Q676.3759,509.5 677.0009,508.9219 L677.0009,511.6406 Z " fill="#000000"/><text fill="#000000" font-family="sans-serif" font-size="14" lengthAdjust="spacing" textLength="95.5496" x="694.5322" y="511.432">SecurityConfig</text><line style="stroke:#181818;stroke-width:0.5;" x1="456.5" x2="995.614" y1="522" y2="522"/><line style="stroke:#181818;stroke-width:0.5;" x1="456.5" x2="995.614" y1="530" y2="530"/><ellipse cx="466.5" cy="545.034" fill="#84BE84" rx="3" ry="3" style="stroke:#038048;stroke-width:1.0;"/><text fill="#000000" font-family="sans-serif" font-size="14" lengthAdjust="spacing" textLength="289.1969" x="475.5" y="548.9659">filterChain(HttpSecurity): SecurityFilterChain</text><ellipse cx="466.5" cy="564.1019" fill="#84BE84" rx="3" ry="3" style="stroke:#038048;stroke-width:1.0;"/><text fill="#000000" font-family="sans-serif" font-size="14" lengthAdjust="spacing" textLength="352.6447" x="475.5" y="568.0339">configureGlobal(AuthenticationManagerBuilder): void</text><ellipse cx="466.5" cy="583.1698" fill="#84BE84" rx="3" ry="3" style="stroke:#038048;stroke-width:1.0;"/><text fill="#000000" font-family="sans-serif" font-size="14" lengthAdjust="spacing" textLength="515.114" x="475.5" y="587.1018">authenticationManager(AuthenticationConfiguration): AuthenticationManager</text></g></a><!--class NotificationInterceptor--><a href="NotificationInterceptor.html" target="_top" title="NotificationInterceptor.html" xlink:actuate="onRequest" xlink:href="NotificationInterceptor.html" xlink:show="new" xlink:title="NotificationInterceptor.html" xlink:type="simple"><g id="elem_NotificationInterceptor"><rect codeLine="22" fill="#F1F1F1" height="67.0679" id="NotificationInterceptor" rx="2.5" ry="2.5" style="stroke:#181818;stroke-width:0.5;" width="574.2659" x="1015" y="509"/><ellipse cx="1222.2692" cy="525" fill="#ADD1B2" rx="11" ry="11" style="stroke:#181818;stroke-width:1.0;"/><path d="M1225.238,530.6406 Q1224.6599,530.9375 1224.0192,531.0781 Q1223.3786,531.2344 1222.6755,531.2344 Q1220.1755,531.2344 1218.8474,529.5938 Q1217.5349,527.9375 1217.5349,524.8125 Q1217.5349,521.6875 1218.8474,520.0313 Q1220.1755,518.375 1222.6755,518.375 Q1223.3786,518.375 1224.0192,518.5313 Q1224.6755,518.6875 1225.238,518.9844 L1225.238,521.7031 Q1224.613,521.125 1224.0192,520.8594 Q1223.4255,520.5781 1222.8005,520.5781 Q1221.4567,520.5781 1220.7692,521.6563 Q1220.0817,522.7188 1220.0817,524.8125 Q1220.0817,526.9063 1220.7692,527.9844 Q1221.4567,529.0469 1222.8005,529.0469 Q1223.4255,529.0469 1224.0192,528.7813 Q1224.613,528.5 1225.238,527.9219 L1225.238,530.6406 Z " fill="#000000"/><text fill="#000000" font-family="sans-serif" font-size="14" lengthAdjust="spacing" textLength="151.2274" x="1242.7692" y="530.432">NotificationInterceptor</text><line style="stroke:#181818;stroke-width:0.5;" x1="1016" x2="1588.2659" y1="541" y2="541"/><line style="stroke:#181818;stroke-width:0.5;" x1="1016" x2="1588.2659" y1="549" y2="549"/><ellipse cx="1026" cy="564.034" fill="#84BE84" rx="3" ry="3" style="stroke:#038048;stroke-width:1.0;"/><text fill="#000000" font-family="sans-serif" font-size="14" lengthAdjust="spacing" textLength="548.2659" x="1035" y="567.9659">postHandle(HttpServletRequest, HttpServletResponse, Object, ModelAndView): void</text></g></a><!--class WebMvcConfigurer--><g id="elem_WebMvcConfigurer"><rect codeLine="29" fill="#F1F1F1" height="410.2904" id="WebMvcConfigurer" rx="2.5" ry="2.5" style="stroke:#181818;stroke-width:0.5;" width="524.5661" x="22.5" y="34"/><ellipse cx="221.3623" cy="50" fill="#B4A7E5" rx="11" ry="11" style="stroke:#181818;stroke-width:1.0;"/><path d="M217.2841,45.7656 L217.2841,43.6094 L224.6748,43.6094 L224.6748,45.7656 L222.206,45.7656 L222.206,53.8438 L224.6748,53.8438 L224.6748,56 L217.2841,56 L217.2841,53.8438 L219.7529,53.8438 L219.7529,45.7656 L217.2841,45.7656 Z " fill="#000000"/><text fill="#000000" font-family="sans-serif" font-size="14" font-style="italic" lengthAdjust="spacing" textLength="118.3416" x="241.8623" y="55.432">WebMvcConfigurer</text><line style="stroke:#181818;stroke-width:0.5;" x1="23.5" x2="546.0661" y1="66" y2="66"/><line style="stroke:#181818;stroke-width:0.5;" x1="23.5" x2="546.0661" y1="74" y2="74"/><ellipse cx="33.5" cy="89.034" fill="#84BE84" rx="3" ry="3" style="stroke:#038048;stroke-width:1.0;"/><text fill="#000000" font-family="sans-serif" font-size="14" lengthAdjust="spacing" textLength="319.9408" x="42.5" y="92.9659">configurePathMatch(PathMatchConfigurer): void</text><ellipse cx="33.5" cy="108.1019" fill="#84BE84" rx="3" ry="3" style="stroke:#038048;stroke-width:1.0;"/><text fill="#000000" font-family="sans-serif" font-size="14" lengthAdjust="spacing" textLength="439.0244" x="42.5" y="112.0339">configureContentNegotiation(ContentNegotiationConfigurer): void</text><ellipse cx="33.5" cy="127.1698" fill="#84BE84" rx="3" ry="3" style="stroke:#038048;stroke-width:1.0;"/><text fill="#000000" font-family="sans-serif" font-size="14" lengthAdjust="spacing" textLength="359.9807" x="42.5" y="131.1018">configureAsyncSupport(AsyncSupportConfigurer): void</text><ellipse cx="33.5" cy="146.2377" fill="#84BE84" rx="3" ry="3" style="stroke:#038048;stroke-width:1.0;"/><text fill="#000000" font-family="sans-serif" font-size="14" lengthAdjust="spacing" textLength="476.9642" x="42.5" y="150.1697">configureDefaultServletHandling(DefaultServletHandlerConfigurer): void</text><ellipse cx="33.5" cy="165.3056" fill="#84BE84" rx="3" ry="3" style="stroke:#038048;stroke-width:1.0;"/><text fill="#000000" font-family="sans-serif" font-size="14" lengthAdjust="spacing" textLength="261.3791" x="42.5" y="169.2376">addFormatters(FormatterRegistry): void</text><ellipse cx="33.5" cy="184.3735" fill="#84BE84" rx="3" ry="3" style="stroke:#038048;stroke-width:1.0;"/><text fill="#000000" font-family="sans-serif" font-size="14" lengthAdjust="spacing" textLength="278.207" x="42.5" y="188.3055">addInterceptors(InterceptorRegistry): void</text><ellipse cx="33.5" cy="203.4415" fill="#84BE84" rx="3" ry="3" style="stroke:#038048;stroke-width:1.0;"/><text fill="#000000" font-family="sans-serif" font-size="14" lengthAdjust="spacing" textLength="356.1027" x="42.5" y="207.3734">addResourceHandlers(ResourceHandlerRegistry): void</text><ellipse cx="33.5" cy="222.5094" fill="#84BE84" rx="3" ry="3" style="stroke:#038048;stroke-width:1.0;"/><text fill="#000000" font-family="sans-serif" font-size="14" lengthAdjust="spacing" textLength="247.1411" x="42.5" y="226.4414">addCorsMappings(CorsRegistry): void</text><ellipse cx="33.5" cy="241.5773" fill="#84BE84" rx="3" ry="3" style="stroke:#038048;stroke-width:1.0;"/><text fill="#000000" font-family="sans-serif" font-size="14" lengthAdjust="spacing" textLength="323.0628" x="42.5" y="245.5093">addViewControllers(ViewControllerRegistry): void</text><ellipse cx="33.5" cy="260.6452" fill="#84BE84" rx="3" ry="3" style="stroke:#038048;stroke-width:1.0;"/><text fill="#000000" font-family="sans-serif" font-size="14" lengthAdjust="spacing" textLength="341.2067" x="42.5" y="264.5772">configureViewResolvers(ViewResolverRegistry): void</text><ellipse cx="33.5" cy="279.7131" fill="#84BE84" rx="3" ry="3" style="stroke:#038048;stroke-width:1.0;"/><text fill="#000000" font-family="sans-serif" font-size="14" lengthAdjust="spacing" textLength="463.9863" x="42.5" y="283.6451">addArgumentResolvers(List&lt;HandlerMethodArgumentResolver&gt;): void</text><ellipse cx="33.5" cy="298.781" fill="#84BE84" rx="3" ry="3" style="stroke:#038048;stroke-width:1.0;"/><text fill="#000000" font-family="sans-serif" font-size="14" lengthAdjust="spacing" textLength="486.1342" x="42.5" y="302.713">addReturnValueHandlers(List&lt;HandlerMethodReturnValueHandler&gt;): void</text><ellipse cx="33.5" cy="317.849" fill="#84BE84" rx="3" ry="3" style="stroke:#038048;stroke-width:1.0;"/><text fill="#000000" font-family="sans-serif" font-size="14" lengthAdjust="spacing" textLength="451.1342" x="42.5" y="321.7809">configureMessageConverters(List&lt;HttpMessageConverter&lt;?&gt;&gt;): void</text><ellipse cx="33.5" cy="336.9169" fill="#84BE84" rx="3" ry="3" style="stroke:#038048;stroke-width:1.0;"/><text fill="#000000" font-family="sans-serif" font-size="14" lengthAdjust="spacing" textLength="433.4384" x="42.5" y="340.8489">extendMessageConverters(List&lt;HttpMessageConverter&lt;?&gt;&gt;): void</text><ellipse cx="33.5" cy="355.9848" fill="#84BE84" rx="3" ry="3" style="stroke:#038048;stroke-width:1.0;"/><text fill="#000000" font-family="sans-serif" font-size="14" lengthAdjust="spacing" textLength="498.5661" x="42.5" y="359.9168">configureHandlerExceptionResolvers(List&lt;HandlerExceptionResolver&gt;): void</text><ellipse cx="33.5" cy="375.0527" fill="#84BE84" rx="3" ry="3" style="stroke:#038048;stroke-width:1.0;"/><text fill="#000000" font-family="sans-serif" font-size="14" lengthAdjust="spacing" textLength="480.8702" x="42.5" y="378.9847">extendHandlerExceptionResolvers(List&lt;HandlerExceptionResolver&gt;): void</text><ellipse cx="33.5" cy="394.1206" fill="#84BE84" rx="3" ry="3" style="stroke:#038048;stroke-width:1.0;"/><text fill="#000000" font-family="sans-serif" font-size="14" lengthAdjust="spacing" textLength="360.6667" x="42.5" y="398.0526">addErrorResponseInterceptors(List&lt;Interceptor&gt;): void</text><ellipse cx="33.5" cy="413.1885" fill="#84BE84" rx="3" ry="3" style="stroke:#038048;stroke-width:1.0;"/><text fill="#000000" font-family="sans-serif" font-size="14" lengthAdjust="spacing" textLength="155.8474" x="42.5" y="417.1205">getValidator(): Validator</text><ellipse cx="33.5" cy="432.2565" fill="#84BE84" rx="3" ry="3" style="stroke:#038048;stroke-width:1.0;"/><text fill="#000000" font-family="sans-serif" font-size="14" lengthAdjust="spacing" textLength="347.5067" x="42.5" y="436.1884">getMessageCodesResolver(): MessageCodesResolver</text></g><!--class HandlerInterceptor--><g id="elem_HandlerInterceptor"><rect codeLine="53" fill="#F1F1F1" height="105.2038" id="HandlerInterceptor" rx="2.5" ry="2.5" style="stroke:#181818;stroke-width:0.5;" width="574.2659" x="1015" y="186.5"/><ellipse cx="1238.2642" cy="202.5" fill="#B4A7E5" rx="11" ry="11" style="stroke:#181818;stroke-width:1.0;"/><path d="M1234.1861,198.2656 L1234.1861,196.1094 L1241.5767,196.1094 L1241.5767,198.2656 L1239.1079,198.2656 L1239.1079,206.3438 L1241.5767,206.3438 L1241.5767,208.5 L1234.1861,208.5 L1234.1861,206.3438 L1236.6548,206.3438 L1236.6548,198.2656 L1234.1861,198.2656 Z " fill="#000000"/><text fill="#000000" font-family="sans-serif" font-size="14" font-style="italic" lengthAdjust="spacing" textLength="119.2375" x="1258.7642" y="207.932">HandlerInterceptor</text><line style="stroke:#181818;stroke-width:0.5;" x1="1016" x2="1588.2659" y1="218.5" y2="218.5"/><line style="stroke:#181818;stroke-width:0.5;" x1="1016" x2="1588.2659" y1="226.5" y2="226.5"/><ellipse cx="1026" cy="241.534" fill="#84BE84" rx="3" ry="3" style="stroke:#038048;stroke-width:1.0;"/><text fill="#000000" font-family="sans-serif" font-size="14" lengthAdjust="spacing" textLength="461.6763" x="1035" y="245.4659">preHandle(HttpServletRequest, HttpServletResponse, Object): boolean</text><ellipse cx="1026" cy="260.6019" fill="#84BE84" rx="3" ry="3" style="stroke:#038048;stroke-width:1.0;"/><text fill="#000000" font-family="sans-serif" font-size="14" lengthAdjust="spacing" textLength="548.2659" x="1035" y="264.5339">postHandle(HttpServletRequest, HttpServletResponse, Object, ModelAndView): void</text><ellipse cx="1026" cy="279.6698" fill="#84BE84" rx="3" ry="3" style="stroke:#038048;stroke-width:1.0;"/><text fill="#000000" font-family="sans-serif" font-size="14" lengthAdjust="spacing" textLength="545.942" x="1035" y="283.6018">afterCompletion(HttpServletRequest, HttpServletResponse, Object, Exception): void</text></g><polygon fill="none" points="285,444.028,279,462.028,291,462.028,285,444.028" style="stroke:#181818;stroke-width:1.0;"/><path d="M285,462.028 C285,486.9012 285,491.5537 285,508.748 " fill="none" style="stroke:#181818;stroke-width:1.0;stroke-dasharray:7.0,7.0;"/><polygon fill="none" points="1302,291.8297,1296,309.8297,1308,309.8297,1302,291.8297" style="stroke:#181818;stroke-width:1.0;"/><path d="M1302,309.8297 C1302,372.1251 1302,456.77 1302,508.9141 " fill="none" style="stroke:#181818;stroke-width:1.0;stroke-dasharray:7.0,7.0;"/><text fill="#888888" font-family="sans-serif" font-size="10" lengthAdjust="spacing" textLength="2.6" x="792.7" y="615.69">&#160;</text><a href="https://github.com/talsma-ict/umldoclet" target="_top" title="https://github.com/talsma-ict/umldoclet" xlink:actuate="onRequest" xlink:href="https://github.com/talsma-ict/umldoclet" xlink:show="new" xlink:title="https://github.com/talsma-ict/umldoclet" xlink:type="simple"><text fill="#888888" font-family="sans-serif" font-size="10" lengthAdjust="spacing" textLength="76.7199" x="755.64" y="629.31">UMLDoclet 2.2.1</text></a><!--SRC=[lLVVSzis37xlNy7T7gPU4_d7cgNM-RBptBJfpkvwITezU7wW9LZcGf4g2JdrTVtV1qgoBDjouknwyqj44i07V008XZ76Vc93dQwCY1V8K3DS2Ci-ZaUCguZ5eC1mX8Y9XCTWsGoaLh4j187n31VQC3tFLw4s1cogLIHKp7xdIywipam8rd_sZELGjslhzzpMhCzMRlEr3YKWyuRFQovrsvrVJhljxXcxvT8cdBqRtlgbjOrEr-_w7KQsfGX1MJAPgGXCxjOWvI7z6HKd9sm9nWgjIATTsd6XXbeX5ygob1kqBgGFaYjqldPymd_fdpDlS3FQzgtTotqxOGEZU1QnQ_qvgyBz8JKy9eybN-aCcKq0kUBvaIMVBH0KH-8l20e5SlIEQ2PV4fz2DJZZApyrEWP4FHUAI_27Mir5pBuM6kuNIcuj-nDcvT5aKdtx2qpaT4hIhFPxmQFedKAWpAG4RxtQuXfYOT6idWTigKLKwNtRnRk1C3C2LnNeziO1vBcG13LS4DFU5MAwLYAuzUURZSYsRfWRpWoybNh6fJUWuWE58kH8wHmJjJ6Otp8XAV6xxXTXDodic1cM8Fc2h3I276RblKOnBuLhh18z1quEy9HgYrTKbX9AcioIolmQN7NX2TlQSntdwlgFsTyGqk5OHo07AleauFv06hzjrvisiMzJGrqxDpo1Ustk_7kO-RQ0y0lcVQwKnZo0chl2nJBd8RWA72_3DO7KV5yFvEy3nyMOOxZmgg-DLcFcAbMIGqh7UuY9pjmLRt_hM6C3krBXJPQcsg1NNnnhu3NCUIQnp4IUB-BGQzYcWdxO9hNa6sqIZiIczQhFG-tuNzjuhKTLaz_CfNFMszbuJ7z8U6EUfXIkzTpYCGLNZ2vJHiiSRtlze7P5jzDnVihbsi9wzHZwmCHPGaMoqHwHVByCTWmqnVPaBWvpXvbHdxZCDlJjczkNkdWukZ5OIyr8f10uRenIg-yUzN-zQ3O6NwWLekzXgNAhTFxoYoiiQgvc2lUE7_BlkvgaX5mQuog-k0UtEYAtLzjfDa7ZbV8a8ZUBFPAe5djY5NqHsBLRJgDfltRdFltARRnWIsBgSsLtRAppzTIfGJ7Cj9R0rVypXuhKpTsWrqbAwkucVp92LIBxOwv6-PEdMn3iZRB-Fxv_nBCirom-Zu4EWeQK7Wrru4LH1Dstk99mKJ4ornhtHlBLAWKp4kfkg2KX__Yg-VIZUqhJP0DwlOTtYcgTjNUexhTgU2NMNseoML3wRD1gnG8NsOoeJbgOF-DFHOYjB95HyNxVUSbFf-NB_6trBu9xPf-sNvrsUxUTyw3R2SxE_TxvsSlUMQ_zyujsDsYt9vUPqIcqhdK2qty1]--></g></svg>